<?xml version="1.0" standalone="no"?>
<!DOCTYPE svg PUBLIC "-//W3C//DTD SVG 1.1//EN" "http://www.w3.org/Graphics/SVG/1.1/DTD/svg11.dtd" >
<svg xmlns="http://www.w3.org/2000/svg">
<metadata></metadata>
<defs>
<font id="repsolbold" horiz-adv-x="1228" >
<font-face units-per-em="2048" ascent="1536" descent="-512" />
<missing-glyph horiz-adv-x="565" />
<glyph unicode="&#xfb01;" horiz-adv-x="1310" d="M25 768v246h153v57q0 169 82 254q87 90 283 90h223v-250h-207q-60 0 -78 -18t-18 -70v-63h737v-1014h-285v768h-452v-768h-285v768h-153zM891 1292q0 70 48.5 118t117.5 48t117.5 -48t48.5 -118t-48.5 -118t-117.5 -48t-117.5 48t-48.5 118z" />
<glyph unicode="&#xfb02;" horiz-adv-x="1482" d="M25 768v246h153v57q0 169 82 254q87 90 283 90h661v-1048q0 -81 33 -111q34 -31 129 -31h47v-237h-57q-248 0 -338 88q-55 53 -76.5 119t-21.5 172v798h-361q-60 0 -78 -18t-18 -70v-63h274v-246h-274v-768h-285v768h-153z" />
<glyph unicode="&#xfb03;" horiz-adv-x="2048" d="M25 768v246h153v45q0 169 82 254q87 90 283 90h223v-238h-207q-60 0 -78 -18t-18 -70v-63h452v45q0 169 82 254q87 90 283 90h223v-238h-207q-59 0 -77 -18q-19 -19 -19 -70v-63h737v-1014h-284v768h-453v-768h-285v768h-452v-768h-285v768h-153zM1628 1292 q0 70 48.5 118t117.5 48t117.5 -48t48.5 -118t-48.5 -118t-117.5 -48t-117.5 48t-48.5 118z" />
<glyph unicode="&#xfb04;" horiz-adv-x="2220" d="M25 768v246h153v57q0 169 82 254q87 90 283 90h223v-250h-207q-60 0 -78 -18t-18 -70v-63h452v57q0 169 82 254q87 90 283 90h662v-1048q0 -82 32 -111q34 -31 129 -31h47v-237h-57q-248 0 -338 88q-55 53 -76.5 119t-21.5 172v798h-361q-59 0 -77 -18q-19 -19 -19 -70 v-63h275v-246h-275v-768h-285v768h-452v-768h-285v768h-153z" />
<glyph horiz-adv-x="0" />
<glyph horiz-adv-x="0" />
<glyph horiz-adv-x="682" />
<glyph unicode="&#xd;" horiz-adv-x="565" />
<glyph unicode=" "  horiz-adv-x="565" />
<glyph unicode="&#x09;" horiz-adv-x="565" />
<glyph unicode="&#xa0;" horiz-adv-x="565" />
<glyph unicode="!" horiz-adv-x="604" d="M141 150q0 71 47.5 117t114.5 46q69 0 116.5 -46t47.5 -117q0 -72 -47.5 -117t-116.5 -45q-68 0 -115 45t-47 117zM143 1270h250q64 0 64 -64l-15 -725q0 -26 -11.5 -37.5t-37.5 -11.5h-184q-26 0 -37.5 11.5t-11.5 37.5z" />
<glyph unicode="&#x22;" horiz-adv-x="927" d="M106 1270h240q38 0 51 -15.5t11 -50.5l-19 -407q-1 -29 -13.5 -40.5t-41.5 -11.5h-154q-29 0 -41.5 11.5t-13.5 40.5zM518 1270h240q38 0 50.5 -15.5t10.5 -50.5l-18 -407q-1 -29 -14 -40.5t-42 -11.5h-153q-29 0 -41.5 11.5t-13.5 40.5z" />
<glyph unicode="#" d="M63 274v244h209v232h-209v243h209v277h244v-277h197v277h243v-277h207v-243h-207v-232h207v-244h-207v-274h-243v274h-197v-274h-244v274h-209zM516 518h197v232h-197v-232z" />
<glyph unicode="$" d="M94 139l123 205q121 -82 313 -82h15v232l-68 8q-189 22 -282 112q-78 78 -78 254v43q0 175 84 265q100 106 311 106h33v205h174v-205q127 0 224.5 -35.5t174.5 -116.5l-123 -204q-118 77 -276 82v-238l57 -6q188 -22 283 -113q78 -78 78 -254v-39q0 -174 -84 -264 q-100 -106 -312 -106h-22v-205h-174v205h-49q-129 0 -227 35t-175 116zM420 889q0 -42 20.5 -65t73.5 -29l31 -4v217h-2q-72 0 -101 -29q-22 -25 -22 -78v-12zM719 262q63 0 92 29q23 26 23 78v8q0 42 -21 65t-74 29l-20 2v-211z" />
<glyph unicode="%" horiz-adv-x="1978" d="M115 811v242q0 114 59 170q62 59 186 59h172q125 0 187 -59q59 -56 59 -170v-242q0 -114 -59 -170q-62 -59 -187 -59h-172q-124 0 -186 59q-59 56 -59 170zM342 823q0 -25 10 -35t35 -10h119q25 0 35 10t10 35v217q0 25 -10 35t-35 10h-119q-25 0 -35 -10t-10 -35v-217z M524 0l643 1270h289l-643 -1270h-289zM1200 217v242q0 113 60 170q62 59 186 59h172q124 0 186 -59q60 -57 60 -170v-242q0 -113 -60 -170q-62 -59 -186 -59h-172q-124 0 -186 59q-60 57 -60 170zM1427 229q0 -23 11 -34t35 -11h118q24 0 35 11q10 10 10 34v217q0 25 -10 35 q-11 11 -35 11h-118q-24 0 -35 -11t-11 -35v-217z" />
<glyph unicode="&#x26;" horiz-adv-x="1370" d="M61 358v54q0 96 30.5 150t117.5 112l90 59q-76 101 -76 217v4q0 152 94 236q105 92 310 92h94q133 0 224 -27.5t155 -97.5l-127 -219q-59 45 -113 62.5t-133 17.5h-90q-59 0 -88 -16.5t-29 -59.5q0 -28 19 -55t63 -70l289 -282l65 77q17 20 21 32t4 40v84h272v-84 q0 -79 -16 -121.5t-70 -107.5l-88 -107l43 -41q27 -27 47.5 -35t65.5 -8h78v-276h-109q-99 0 -148 19.5t-124 92.5l-35 33l-10 -12q-68 -80 -129.5 -106.5t-165.5 -26.5h-135q-212 0 -312 106q-84 90 -84 264zM365 375q0 -61 20 -84q27 -27 96 -27h115q42 0 61 7t41 34 l11 12l-242 236l-59 -47q-28 -23 -35.5 -40t-7.5 -54v-37z" />
<glyph unicode="'" horiz-adv-x="516" d="M106 1270h240q38 0 51 -15.5t11 -50.5l-19 -407q-1 -29 -13.5 -40.5t-41.5 -11.5h-154q-29 0 -41.5 11.5t-13.5 40.5z" />
<glyph unicode="(" horiz-adv-x="716" d="M123 27v1155q0 99 16 158t62 110q47 52 126.5 74t211.5 22h133v-266h-125q-75 0 -101 -23q-22 -20 -22 -81v-1143q0 -62 22 -82q26 -23 101 -23h125v-266h-133q-132 0 -211.5 22t-126.5 74q-46 51 -62 110t-16 159z" />
<glyph unicode=")" horiz-adv-x="716" d="M45 -72h125q74 0 100 23q23 20 23 82v1143q0 61 -23 81q-26 23 -100 23h-125v266h133q132 0 211.5 -22t126.5 -74q46 -51 62 -110t16 -158v-1155q0 -100 -16 -159t-62 -110q-47 -52 -126.5 -74t-211.5 -22h-133v266z" />
<glyph unicode="*" horiz-adv-x="970" d="M84 997l70 119q19 34 57 8l195 -149l-29 254q-3 41 37 41h141q42 0 39 -41l-31 -256l193 149q21 16 36 15t25 -21l66 -110q9 -16 10.5 -27.5t-5.5 -21t-24 -17.5l-227 -98l235 -99q36 -16 15 -53l-70 -117q-21 -36 -59 -12l-195 148l31 -252q2 -19 -7 -28t-32 -9h-141 q-40 0 -37 39l29 250l-191 -146q-15 -11 -34 -7t-31 24l-62 102q-25 45 14 61l232 99l-238 102q-33 14 -12 53z" />
<glyph unicode="+" horiz-adv-x="909" d="M74 514v256h252v254h256v-254h252v-256h-252v-254h-256v254h-252z" />
<glyph unicode="," horiz-adv-x="532" d="M115 172q0 62 40 101.5t111 39.5q74 0 117 -40.5t43 -108.5q0 -79 -66 -234l-75 -180q-16 -38 -64 -26l-63 16q-40 9 -29 49l37 127q16 54 16 82q0 22 -10.5 43.5t-23 36t-23 39.5t-10.5 55z" />
<glyph unicode="-" horiz-adv-x="788" d="M94 367v262h600v-262h-600z" />
<glyph unicode="." horiz-adv-x="528" d="M100 150q0 71 47.5 117t114.5 46q69 0 116.5 -46t47.5 -117q0 -72 -47.5 -117t-116.5 -45q-68 0 -115 45t-47 117z" />
<glyph unicode="/" horiz-adv-x="784" d="M25 0l434 1270h301l-434 -1270h-301z" />
<glyph unicode="0" horiz-adv-x="1187" d="M106 358v553q0 175 84 265q100 106 312 106h184q211 0 311 -106q84 -90 84 -265v-553q0 -174 -84 -264q-100 -106 -311 -106h-184q-212 0 -312 106q-84 90 -84 264zM401 375q0 -60 23 -86q29 -29 100 -29h140q71 0 100 29q22 25 22 86v520q0 61 -22 86q-29 29 -100 29 h-140q-71 0 -100 -29q-23 -26 -23 -86v-520z" />
<glyph unicode="1" horiz-adv-x="942" d="M106 0v258h254v754h-229v258h434q54 0 72 -18.5t18 -65.5v-928h205v-258h-754z" />
<glyph unicode="2" horiz-adv-x="1122" d="M109 1130q77 81 174.5 116.5t226.5 35.5h94q211 0 311 -106q84 -90 84 -265v-51q0 -137 -49 -210.5t-182 -121.5l-287 -104q-40 -14 -52.5 -36t-12.5 -64v-66h581v-258h-766q-108 0 -108 113v219q0 131 49.5 207t181.5 125l271 100q47 18 63.5 38.5t16.5 63.5v35 q0 60 -23 86q-29 29 -100 29h-37q-110 0 -178 -25t-121 -78z" />
<glyph unicode="3" horiz-adv-x="1179" d="M80 139l137 217q52 -52 120 -77t179 -25h129q41 0 64 20l28 25q23 20 23 53v66q0 69 -23 98q-24 33 -106 33h-129q-32 0 -42.5 10.5t-10.5 38.5v53q0 23 5.5 37.5t22.5 36.5l141 182q62 79 68 105h-502v258h748q40 0 52.5 -12t12.5 -48v-39q0 -99 -21 -159t-91 -150 l-94 -121q119 -10 186 -77q76 -76 76 -238v-160q0 -55 -9.5 -78t-42.5 -51l-108 -92q-40 -35 -72 -46t-98 -11h-242q-129 0 -226.5 35t-174.5 116z" />
<glyph unicode="4" d="M84 395q0 37 37 127l315 748h299l-334 -793h316v303h289v-303h153v-241h-153v-236h-289v236h-539q-28 0 -42 11t-23 38l-17 49q-12 40 -12 61z" />
<glyph unicode="5" horiz-adv-x="1146" d="M78 139l137 217q52 -52 120 -77t179 -25h115q82 0 106 33q23 29 23 100v23q0 69 -23 98q-24 33 -106 33h-357q-54 0 -78 23.5t-24 72.5v549q0 47 18 65.5t72 18.5h701v-258h-504v-205h198q211 0 312 -107q84 -90 84 -264v-78q0 -174 -84 -264q-100 -106 -312 -106h-51 h-125q-129 0 -226.5 35t-174.5 116z" />
<glyph unicode="6" horiz-adv-x="1187" d="M123 358v553q0 175 84 265q100 106 311 106h141q120 0 204 -27.5t169 -95.5l-106 -211q-134 72 -279 72h-108q-72 0 -101 -29q-22 -25 -22 -86v-137l47 20q58 25 96 25h127q211 0 311 -106q84 -90 84 -265v-84q0 -174 -84 -264q-100 -106 -311 -106h-168q-211 0 -311 106 q-84 90 -84 264zM416 379q0 -70 22 -98q24 -33 107 -33h117q82 0 106 33q23 29 23 98v45q0 69 -23 98q-24 33 -106 33h-123q-19 0 -43 -8l-43 -17q-23 -8 -30 -18t-7 -37v-96z" />
<glyph unicode="7" horiz-adv-x="1056" d="M61 1012v258h850q41 0 53.5 -12t12.5 -48v-61q0 -84 -12.5 -140.5t-51.5 -136.5l-317 -641q-26 -57 -29 -125l-4 -106h-280v98q0 72 8.5 116t34.5 97l311 627q23 51 29 74h-605z" />
<glyph unicode="8" d="M111 358v91q0 59 13.5 91.5t61.5 80.5l35 34l-10 11q-48 48 -62 79.5t-14 85.5v80q0 175 84 265q100 106 311 106h166q212 0 312 -106q84 -90 84 -265v-80q0 -54 -14 -85.5t-62 -79.5l-10 -11l36 -34q48 -48 62 -80.5t14 -91.5v-91q0 -174 -84 -264q-100 -106 -311 -106 h-217q-211 0 -311 106q-84 90 -84 264zM406 383q0 -70 22 -98q24 -33 107 -33h159q83 0 107 33q22 28 22 98v70q0 16 -10 26l-18 19q-10 10 -25 10h-311q-15 0 -25 -10l-18 -19q-10 -10 -10 -26v-70zM430 813q0 -17 10 -27l19 -18q10 -10 28 -10h252q19 0 29 10l18 18 q11 11 11 27v74q0 69 -23 98q-24 33 -106 33h-109q-82 0 -106 -33q-23 -29 -23 -98v-74z" />
<glyph unicode="9" horiz-adv-x="1187" d="M106 827v84q0 175 84 265q100 106 312 106h168q211 0 311 -106q84 -90 84 -265v-553q0 -174 -84 -264q-100 -106 -311 -106h-142q-120 0 -203.5 27.5t-168.5 95.5l106 211q134 -72 279 -72h108q72 0 101 29q22 25 22 86v137l-47 -21q-55 -24 -96 -24h-127 q-212 0 -312 106q-84 90 -84 264zM397 846q0 -69 23 -98q24 -33 106 -33h123q19 0 43 8l43 16q22 8 29.5 18.5t7.5 37.5v96q0 70 -22 98q-24 33 -107 33h-117q-82 0 -106 -33q-23 -29 -23 -98v-45z" />
<glyph unicode=":" horiz-adv-x="528" d="M100 150q0 71 47.5 117t114.5 46q69 0 116.5 -46t47.5 -117q0 -72 -47.5 -117t-116.5 -45q-68 0 -115 45t-47 117zM100 698q0 71 47.5 117.5t114.5 46.5q69 0 116.5 -46.5t47.5 -117.5q0 -72 -47.5 -116.5t-116.5 -44.5q-68 0 -115 44.5t-47 116.5z" />
<glyph unicode=";" horiz-adv-x="532" d="M115 698q0 71 47 117.5t114 46.5q69 0 116.5 -46.5t47.5 -117.5q0 -72 -47.5 -116.5t-116.5 -44.5q-68 0 -114.5 44.5t-46.5 116.5zM123 172q0 62 40 101.5t111 39.5q74 0 117 -40.5t43 -108.5q0 -82 -65 -234l-76 -180q-16 -38 -64 -26l-63 16q-40 9 -29 49l37 127 q16 54 16 82q0 22 -10.5 43.5t-23 36t-23 39.5t-10.5 55z" />
<glyph unicode="&#x3c;" horiz-adv-x="909" d="M74 590v102q0 32 10 47.5t41 28.5l711 299v-279l-398 -147l398 -147v-279l-711 299q-31 13 -41 28.5t-10 47.5z" />
<glyph unicode="=" horiz-adv-x="909" d="M74 311v256h762v-256h-762zM74 715v256h762v-256h-762z" />
<glyph unicode="&#x3e;" horiz-adv-x="909" d="M74 215v279l397 147l-397 147v279l710 -299q32 -13 42 -28.5t10 -47.5v-102q0 -32 -10 -47.5t-42 -28.5z" />
<glyph unicode="?" horiz-adv-x="1058" d="M80 1155q85 68 177.5 97.5t213.5 29.5h117q204 0 291 -90q82 -85 82 -272v-33q0 -153 -52 -217q-42 -53 -145 -86l-86 -27q-28 -9 -38 -24.5t-13 -49.5l-4 -51h-267l-4 125q-3 77 25 125t106 74l105 35q43 14 60.5 36.5t17.5 65.5v12q0 64 -27 88q-26 23 -90 23h-53 q-184 0 -299 -72zM332 150q0 71 47.5 117t114.5 46q69 0 116 -46t47 -117q0 -72 -47 -117t-116 -45q-68 0 -115 45t-47 117z" />
<glyph unicode="@" horiz-adv-x="1472" d="M115 332v618q0 97 14 151.5t55 96.5q78 84 275 84h575q197 0 275 -84q41 -42 55 -96.5t14 -151.5v-395q0 -77 -16.5 -123t-52.5 -76q-71 -57 -203 -57q-111 0 -174 53l-53 -33q-34 -20 -91 -20h-94q-126 0 -186 57q-53 50 -53 154t53 154q60 57 186 57h51q45 0 76 -10 l13 -4v57q0 57 -70 57h-51q-89 0 -170 -41l-74 125q93 76 225 76h80q130 0 187 -41q67 -53 67 -184v-250q0 -57 64 -57q65 0 65 57v440q0 81 -24 105q-25 28 -101 28h-565q-75 0 -100 -28q-25 -25 -25 -105v-610q0 -80 25 -105q25 -28 100 -28h860v-203h-868q-197 0 -275 84 q-41 42 -55 96.5t-14 151.5zM645 508q0 -29 12 -39t43 -10h99q13 0 22 6l4 2q9 6 9 14v66q0 12 -13 12h-121q-31 0 -43 -11t-12 -40z" />
<glyph unicode="A" horiz-adv-x="1351" d="M33 0l387 1202q17 46 51 63t113 17h184q79 0 113 -17t51 -63l387 -1202h-320l-77 258h-500l-78 -258h-311zM500 516h342l-146 479q-5 19 -22 19h-4q-18 0 -23 -19z" />
<glyph unicode="B" horiz-adv-x="1214" d="M119 78v1114q0 78 84 78h502q210 0 311 -107q84 -90 84 -264v-53q0 -53 -13 -86t-43 -64l-38 -41l73 -71q35 -35 47.5 -68.5t12.5 -93.5v-51q0 -175 -84 -265q-100 -106 -312 -106h-540q-84 0 -84 78zM422 258h291q71 0 100 29q23 26 23 86v71q0 16 -11 27l-28 29 q-10 10 -29 10h-346v-252zM422 756h311q19 0 29 10l29 29q10 10 10 26v74q0 60 -23 86q-29 29 -100 29h-256v-254z" />
<glyph unicode="C" horiz-adv-x="1144" d="M88 358v553q0 175 84 265q100 106 311 106h160q274 0 424 -147l-131 -217q-62 42 -133 62.5t-174 20.5h-115q-72 0 -100 -28q-23 -26 -23 -86v-504q0 -60 23 -86q29 -29 100 -29h131q102 0 173.5 21t133.5 63l129 -213q-77 -81 -174.5 -116t-226.5 -35h-197 q-211 0 -311 106q-84 90 -84 264z" />
<glyph unicode="D" horiz-adv-x="1265" d="M119 78v1114q0 78 84 78h579q211 0 312 -107q84 -90 84 -264v-528q0 -175 -84 -265q-100 -106 -312 -106h-579q-84 0 -84 78zM422 268h330q70 0 100 33q22 25 22 94v479q0 70 -22 95q-29 32 -100 32h-330v-733z" />
<glyph unicode="E" horiz-adv-x="1107" d="M119 78v1114q0 78 84 78h794v-266h-575v-234h471v-266h-471v-238h590v-266h-809q-84 0 -84 78z" />
<glyph unicode="F" horiz-adv-x="1044" d="M119 0v1192q0 78 84 78h796v-266h-577v-234h473v-266h-473v-504h-303z" />
<glyph unicode="G" horiz-adv-x="1236" d="M88 358v553q0 175 84 265q100 106 311 106h242q129 0 225.5 -34.5t179.5 -110.5l-133 -219q-62 42 -133 62.5t-174 20.5h-176q-72 0 -100 -28q-23 -26 -23 -86v-506q0 -60 23 -86q29 -29 100 -29h258q20 0 35 10l31 19q16 11 16 27v178h-186v250h401q84 0 84 -78v-434 q0 -38 -8.5 -60t-20 -31.5t-43.5 -29.5l-94 -56q-73 -42 -121.5 -57.5t-120.5 -15.5h-262q-211 0 -311 106q-84 90 -84 264z" />
<glyph unicode="H" horiz-adv-x="1288" d="M119 0v1270h303v-498h444v498h303v-1270h-303v500h-444v-500h-303z" />
<glyph unicode="I" horiz-adv-x="565" d="M131 0v1270h303v-1270h-303z" />
<glyph unicode="J" horiz-adv-x="1048" d="M49 139l129 213q125 -84 299 -84h27q75 0 104 29q23 26 23 86v887h303v-912q0 -174 -84 -264q-100 -106 -311 -106h-88q-129 0 -227 35t-175 116z" />
<glyph unicode="K" horiz-adv-x="1292" d="M119 0v1270h303v-512h96q33 0 49 8.5t31 34.5l287 469h334l-385 -623q-13 -21 0 -43l426 -604h-359l-301 446q-29 43 -82 43h-96v-489h-303z" />
<glyph unicode="L" horiz-adv-x="1032" d="M119 78v1192h303v-1004h557v-266h-776q-84 0 -84 78z" />
<glyph unicode="M" horiz-adv-x="1505" d="M119 0v1214q0 56 71 56h138q46 0 70.5 -12.5t47.5 -49.5l195 -309q82 -129 119 -209q40 97 110 209l193 309q41 62 119 62h143q61 0 61 -56v-1214h-290v590q0 164 6 246q-23 -93 -121 -246l-102 -154q-15 -23 -28.5 -30t-37.5 -7h-119q-24 0 -38 8t-27 29l-109 162 q-101 151 -123 240q11 -90 11 -248v-590h-289z" />
<glyph unicode="N" horiz-adv-x="1314" d="M119 0v1214q0 56 71 56h99q44 0 68.5 -12.5t50.5 -49.5l438 -606q49 -67 76 -125v793h274v-1215q0 -55 -72 -55h-102q-46 0 -69.5 12t-49.5 49l-438 607q-48 67 -72 118v-786h-274z" />
<glyph unicode="O" horiz-adv-x="1261" d="M88 358v553q0 175 84 265q100 106 311 106h295q212 0 312 -106q84 -90 84 -265v-553q0 -174 -84 -264q-100 -106 -312 -106h-295q-211 0 -311 106q-84 90 -84 264zM391 383q0 -60 23 -86q29 -29 100 -29h234q71 0 100 29q22 25 22 86v504q0 61 -22 86q-28 28 -100 28 h-234q-72 0 -100 -28q-23 -26 -23 -86v-504z" />
<glyph unicode="P" horiz-adv-x="1214" d="M119 0v1192q0 78 84 78h530q210 0 311 -107q84 -90 84 -264v-180q0 -80 -13 -116t-62 -85l-80 -80q-42 -42 -82.5 -57.5t-118.5 -15.5h-350v-365h-303zM422 631h309q27 0 41 14l39 39q14 14 14 37v168q0 61 -22 86q-29 29 -101 29h-280v-373z" />
<glyph unicode="Q" horiz-adv-x="1263" d="M88 358v553q0 175 84 265q100 106 311 106h295q212 0 312 -106q84 -90 84 -265v-553q0 -174 -84 -264q-88 -91 -246 -102l12 -25q22 -45 47 -61q31 -21 86 -21h105v-233h-197q-139 0 -203 53q-29 24 -51.5 57t-52.5 93l-66 133h-41q-211 0 -311 106q-84 90 -84 264z M391 383q0 -60 23 -86q29 -29 100 -29h234q71 0 100 29q22 25 22 86v504q0 61 -22 86q-28 28 -100 28h-234q-72 0 -100 -28q-23 -26 -23 -86v-504z" />
<glyph unicode="R" horiz-adv-x="1234" d="M119 0v1192q0 78 84 78h538q211 0 312 -107q84 -90 84 -264v-158q0 -79 -13.5 -115t-62.5 -85l-57 -58q-28 -27 -56 -37l182 -446h-323l-145 387h-240v-387h-303zM422 653h317q26 0 41 15l39 39q15 15 15 36v146q0 60 -23 86q-29 29 -100 29h-289v-351z" />
<glyph unicode="S" horiz-adv-x="1144" d="M61 133l127 211q121 -82 314 -82h147q72 0 101 29q22 25 22 78v8q0 42 -20.5 64.5t-73.5 29.5l-229 31q-193 25 -283 112q-78 78 -78 254v43q0 175 84 265q100 106 311 106h160q126 0 220.5 -30t176.5 -99l-125 -215q-111 70 -292 70h-109q-71 0 -100 -29 q-23 -26 -23 -78v-12q0 -42 20.5 -64.5t73.5 -29.5l230 -31q191 -25 282 -113q78 -78 78 -254v-39q0 -174 -84 -264q-100 -106 -311 -106h-201q-127 0 -227.5 32.5t-190.5 112.5z" />
<glyph unicode="T" horiz-adv-x="1114" d="M49 1004v266h1016v-266h-356v-1004h-303v1004h-357z" />
<glyph unicode="U" horiz-adv-x="1282" d="M115 358v912h303v-887q0 -61 22 -86q29 -29 101 -29h245q20 0 35 6l25 11q14 7 14 24v961h303v-1065q0 -60 -19 -86t-79 -53l-102 -46q-74 -32 -177 -32h-276q-211 0 -311 106q-84 90 -84 264z" />
<glyph unicode="V" horiz-adv-x="1261" d="M12 1270h340l258 -996q5 -18 19 -18h16q14 0 19 18l254 996h331l-342 -1178q-17 -59 -54 -81.5t-112 -22.5h-227q-75 0 -112 22.5t-54 81.5z" />
<glyph unicode="W" horiz-adv-x="1880" d="M49 1270h307l183 -985q3 -18 9.5 -23.5t20.5 -5.5h6q26 0 31 29l154 915q7 41 30 55.5t70 14.5h160q47 0 70 -14.5t30 -55.5l156 -915q5 -29 31 -29h6q14 0 20.5 5.5t9.5 23.5l181 985h307l-232 -1159q-15 -72 -58 -97.5t-142 -25.5h-150q-100 0 -142 23.5t-56 99.5 l-56 292q-40 214 -55 445q-16 -247 -53 -445l-56 -292q-14 -76 -56 -99.5t-142 -23.5h-150q-99 0 -142 26t-58 99z" />
<glyph unicode="X" horiz-adv-x="1292" d="M37 0l412 608q20 28 0 58l-396 604h348l258 -391l250 391h334l-399 -592q-20 -28 0 -57l411 -621h-348l-260 416l-276 -416h-334z" />
<glyph unicode="Y" d="M16 1270h338l262 -561l265 561h331l-430 -819q-16 -31 -16 -66v-385h-303v385q0 33 -17 66z" />
<glyph unicode="Z" horiz-adv-x="1097" d="M82 68v61q0 80 43 145l321 496q107 163 175 238h-517v262h807q42 0 59 -17t17 -51v-61q0 -81 -43 -146l-321 -495q-109 -167 -174 -238h563v-262h-854q-42 0 -59 17t-17 51z" />
<glyph unicode="[" horiz-adv-x="704" d="M135 -246v1700q0 48 22.5 70t75.5 22h418v-266h-215v-1352h215v-266h-418q-53 0 -75.5 22t-22.5 70z" />
<glyph unicode="\" horiz-adv-x="784" d="M25 1270h301l434 -1270h-301z" />
<glyph unicode="]" horiz-adv-x="704" d="M53 -72h215v1352h-215v266h418q53 0 75.5 -22t22.5 -70v-1700q0 -48 -22.5 -70t-75.5 -22h-418v266z" />
<glyph unicode="^" horiz-adv-x="1159" d="M70 596l370 629q18 27 35 36t53 9h103q36 0 53 -9t35 -36l371 -629h-312l-198 379l-199 -379h-311z" />
<glyph unicode="_" horiz-adv-x="1054" d="M0 -12h1055v-254h-1055v254z" />
<glyph unicode="`" horiz-adv-x="942" d="M184 1343l105 173q27 43 61 43q23 0 66 -31l317 -252q39 -31 12 -78l-36 -57q-26 -43 -76 -19z" />
<glyph unicode="a" horiz-adv-x="1056" d="M66 309q0 155 84 236q91 84 288 84h39q75 0 156 -15l39 -8v86q0 51 -19 70q-18 18 -78 18h-98q-88 0 -147.5 -16.5t-118.5 -54.5l-119 194q146 123 369 123h131q195 0 282 -90q82 -85 82 -254v-492q0 -50 -16.5 -75.5t-69.5 -57.5l-34 -20q-49 -29 -85 -39t-92 -10h-221 q-195 0 -288 86q-84 81 -84 235zM346 317q0 -49 20.5 -67.5t73.5 -18.5h181q12 0 26 7l15 8q10 6 10 20v129q-3 8 -19 8h-213q-53 0 -73.5 -18.5t-20.5 -67.5z" />
<glyph unicode="b" horiz-adv-x="1095" d="M104 190v1213h285v-416l23 8q84 31 139 31h94q196 0 283 -90q82 -85 82 -254v-350q0 -169 -82 -254q-87 -90 -283 -90h-244q-56 0 -91.5 10t-84.5 39l-35 20q-53 32 -69.5 57.5t-16.5 75.5zM389 285q0 -15 10 -21l15 -8q12 -6 24 -6h191q60 0 78 18t18 70v338 q0 51 -18 69q-19 19 -78 19h-140q-12 0 -24 -4l-66 -21q-10 -3 -10 -14v-440z" />
<glyph unicode="c" horiz-adv-x="991" d="M86 332v350q0 169 82 254q87 90 291 90h100q236 0 387 -131l-121 -199q-117 68 -260 68h-78q-64 0 -90 -23t-26 -88v-293q0 -65 26 -88q25 -22 90 -22h99q145 0 260 67l121 -198q-151 -131 -387 -131h-121q-204 0 -291 90q-82 85 -82 254z" />
<glyph unicode="d" horiz-adv-x="1095" d="M86 332v350q0 169 82 254q87 90 283 90h94q55 0 139 -31l23 -8v416h284v-1213q0 -50 -16.5 -75.5t-69.5 -57.5l-35 -20q-49 -29 -84.5 -39t-91.5 -10h-243q-196 0 -283 90q-82 85 -82 254zM371 338q0 -52 18 -70t78 -18h190q13 0 25 6l14 8q11 7 11 21v440q0 10 -11 14 l-65 21q-12 4 -25 4h-139q-59 0 -78 -19q-18 -18 -18 -69v-338z" />
<glyph unicode="e" horiz-adv-x="1067" d="M86 332v350q0 169 82 254q87 90 283 90h161q196 0 283 -90q82 -85 82 -254v-190q0 -51 -24 -74t-81 -23h-501v-73q0 -52 18 -70q19 -19 78 -19h127q88 0 147.5 17t118.5 55l119 -194q-145 -123 -369 -123h-159q-196 0 -283 90q-82 85 -82 254zM371 616h325v76 q0 52 -18 70t-78 18h-133q-60 0 -78 -18t-18 -70v-76z" />
<glyph unicode="f" horiz-adv-x="765" d="M25 768v246h153v57q0 169 82 254q87 90 283 90h223v-250h-207q-60 0 -78 -18t-18 -70v-63h274v-246h-274v-768h-285v768h-153z" />
<glyph unicode="g" horiz-adv-x="1095" d="M86 332v350q0 169 82 254q87 90 283 90h243q56 0 91.5 -10t84.5 -39l35 -21q53 -32 69.5 -57.5t16.5 -75.5v-880q0 -169 -82 -254q-87 -90 -291 -90h-102q-229 0 -364 108l114 197q106 -64 254 -64h70q64 0 90 23q27 24 27 88v76l-23 -9q-82 -30 -139 -30h-94 q-196 0 -283 90q-82 85 -82 254zM371 338q0 -52 18 -70t78 -18h139q13 0 25 4l65 20q11 4 11 15v440q0 14 -11 21l-14 8q-12 6 -25 6h-190q-59 0 -78 -19q-18 -18 -18 -69v-338z" />
<glyph unicode="h" horiz-adv-x="1103" d="M104 0v1403h285v-416l23 8q84 31 139 31h88q196 0 283 -90q82 -85 82 -254v-682h-285v676q0 50 -19 69t-77 19h-134q-12 0 -24 -4l-66 -21q-10 -3 -10 -14v-725h-285z" />
<glyph unicode="i" horiz-adv-x="505" d="M86 1292q0 70 48.5 118t117.5 48t117.5 -48t48.5 -118t-48.5 -118t-117.5 -48t-117.5 48t-48.5 118zM111 0v1014h284v-1014h-284z" />
<glyph unicode="j" horiz-adv-x="561" d="M-119 -164h96q109 0 150 35q43 34 43 141v1002h285v-1037q0 -184 -97 -278q-100 -100 -327 -100h-94zM145 1292q0 70 48.5 118t117.5 48t117.5 -48t48.5 -118t-48.5 -118t-117.5 -48t-117.5 48t-48.5 118z" />
<glyph unicode="k" horiz-adv-x="1077" d="M106 0v1403h285v-750h78q20 0 29.5 5t19.5 22l211 334h305l-291 -439q-12 -20 -12 -29.5t12 -31.5l301 -514h-315l-209 373q-9 17 -18.5 21.5t-30.5 4.5h-80v-399h-285z" />
<glyph unicode="l" horiz-adv-x="669" d="M106 367v1036h285v-1036q0 -81 33 -111q34 -31 129 -31h47v-237h-57q-248 0 -338 88q-55 53 -77 119t-22 172z" />
<glyph unicode="m" horiz-adv-x="1669" d="M104 0v823q0 50 16.5 75.5t69.5 57.5l35 21q49 29 84.5 39t91.5 10h213q77 0 127.5 -13.5t94.5 -45.5q44 32 94 45.5t127 13.5h147q196 0 283 -90q82 -85 82 -254v-682h-285v676q0 51 -18 69q-19 19 -78 19h-158q-14 0 -26 -6l-15 -8q-10 -6 -10 -21v-729h-285v676 q0 51 -18 69q-19 19 -78 19h-158q-14 0 -26 -6l-15 -8q-10 -6 -10 -21v-729h-285z" />
<glyph unicode="n" horiz-adv-x="1103" d="M104 0v823q0 50 16.5 75.5t69.5 57.5l35 21q49 29 84.5 39t91.5 10h238q196 0 283 -90q82 -85 82 -254v-682h-285v676q0 50 -19 69t-77 19h-183q-14 0 -26 -6l-15 -8q-10 -6 -10 -21v-729h-285z" />
<glyph unicode="o" horiz-adv-x="1085" d="M86 332v350q0 169 82 254q87 90 283 90h184q196 0 283 -90q81 -84 81 -254v-350q0 -170 -81 -254q-87 -90 -283 -90h-184q-196 0 -283 90q-82 85 -82 254zM371 338q0 -52 18 -70t78 -18h151q60 0 78 18q19 19 19 70v338q0 50 -19 69t-78 19h-151q-59 0 -78 -19 q-18 -18 -18 -69v-338z" />
<glyph unicode="p" horiz-adv-x="1095" d="M104 -389v1212q0 50 16.5 75.5t69.5 57.5l35 21q49 29 84.5 39t91.5 10h244q196 0 283 -90q82 -85 82 -254v-350q0 -169 -82 -254q-87 -90 -283 -90h-94q-57 0 -139 30l-23 9v-416h-285zM389 289q0 -12 10 -15l66 -20q12 -4 24 -4h140q60 0 78 18t18 70v338q0 51 -18 69 q-19 19 -78 19h-191q-12 0 -24 -6l-15 -8q-10 -6 -10 -21v-440z" />
<glyph unicode="q" horiz-adv-x="1095" d="M86 332v350q0 169 82 254q87 90 283 90h243q56 0 91.5 -10t84.5 -39l35 -21q53 -32 69.5 -57.5t16.5 -75.5v-1212h-284v416l-23 -9q-82 -30 -139 -30h-94q-196 0 -283 90q-82 85 -82 254zM371 338q0 -52 18 -70t78 -18h139q13 0 25 4l65 20q11 4 11 15v440q0 14 -11 21 l-14 8q-12 6 -25 6h-190q-59 0 -78 -19q-18 -18 -18 -69v-338z" />
<glyph unicode="r" horiz-adv-x="741" d="M100 0v682q0 169 82 254q87 90 283 90h203v-262h-187q-59 0 -78 -19q-18 -18 -18 -69v-676h-285z" />
<glyph unicode="s" horiz-adv-x="1015" d="M57 104l121 201q97 -72 266 -72h111q49 0 72 13q26 16 26 55v4q0 32 -20 47t-68 21l-159 20q-173 21 -238 86q-70 70 -70 217v15q0 138 84 225q87 90 289 90h102q197 0 353 -106l-121 -199q-101 59 -244 59h-84q-50 0 -71 -12q-27 -17 -27 -53v-4q0 -31 19.5 -47.5 t68.5 -22.5l160 -20q94 -12 148 -31.5t89 -54.5q70 -70 70 -218v-14q0 -138 -84 -225q-87 -90 -279 -90h-131q-237 0 -383 116z" />
<glyph unicode="t" horiz-adv-x="837" d="M33 768v246h153v256h285v-256h274v-246h-274v-430q0 -52 18 -70t78 -18h185v-262h-201q-196 0 -283 90q-82 85 -82 254v436h-153z" />
<glyph unicode="u" horiz-adv-x="1099" d="M100 332v682h285v-676q0 -52 18 -70t78 -18h178q15 0 27 6l14 8q11 7 11 21v729h284v-824q0 -50 -16.5 -75.5t-69.5 -57.5l-35 -20q-49 -29 -84.5 -39t-91.5 -10h-233q-196 0 -283 90q-82 85 -82 254z" />
<glyph unicode="v" horiz-adv-x="1058" d="M12 1014h307l117 -400q64 -222 96 -389q35 164 99 389l114 400h302l-304 -944q-17 -46 -43.5 -64t-72.5 -18h-195q-46 0 -73 18t-44 64z" />
<glyph unicode="w" horiz-adv-x="1642" d="M33 1014h295l67 -291q65 -281 86 -479q21 219 84 479l56 231q9 34 29.5 47t60.5 13h221q40 0 60.5 -13t29.5 -47l55 -231q63 -260 84 -479q21 198 86 479l68 291h295l-248 -967q-9 -34 -29.5 -46.5t-60.5 -12.5h-211q-42 0 -62.5 12.5t-27.5 46.5l-72 332 q-59 278 -78 416q-19 -138 -78 -416l-71 -332q-7 -34 -27.5 -46.5t-62.5 -12.5h-211q-40 0 -60.5 12.5t-29.5 46.5z" />
<glyph unicode="x" horiz-adv-x="1081" d="M16 0l355 508q16 24 0 47l-314 459h318l174 -264l178 264h317l-321 -463q-16 -23 0 -47l342 -504h-317l-203 307l-211 -307h-318z" />
<glyph unicode="y" horiz-adv-x="1083" d="M12 1014h322l106 -324q68 -207 103 -422q29 207 100 422l107 324h321l-405 -1116q-35 -96 -73.5 -152.5t-92.5 -91.5q-82 -55 -252 -55h-101l-55 237h90q89 0 135 25q48 28 72 88l4 10z" />
<glyph unicode="z" horiz-adv-x="923" d="M66 43v68q0 50 24 90l375 563h-391v250h727q27 0 36 -9.5t9 -33.5v-68q0 -49 -25 -90l-375 -563h416v-250h-751q-27 0 -36 9.5t-9 33.5z" />
<glyph unicode="{" horiz-adv-x="765" d="M41 604q0 30 15.5 55t58.5 68l49 49q24 24 24 53v353q0 99 16 158t62 110q47 52 126.5 74t211.5 22h125v-266h-117q-74 0 -100 -23q-23 -20 -23 -81v-381q0 -43 -12 -69.5t-43 -57.5l-63 -64l63 -63q31 -31 43 -57.5t12 -69.5v-381q0 -62 23 -82q26 -23 100 -23h117v-266 h-125q-132 0 -211.5 22t-126.5 74q-46 51 -62 110t-16 159v352q0 29 -24 53l-49 49q-43 43 -58.5 68t-15.5 55z" />
<glyph unicode="|" horiz-adv-x="548" d="M133 -236v1692h283v-1692h-283z" />
<glyph unicode="}" horiz-adv-x="765" d="M37 -72h117q74 0 100 23q22 20 22 82v381q0 42 12.5 69t43.5 58l63 63l-63 64q-31 31 -43.5 58t-12.5 69v381q0 61 -22 81q-26 23 -100 23h-117v266h125q132 0 211.5 -22t126.5 -74q46 -51 62 -110t16 -158v-353q0 -29 24 -53l49 -49q43 -43 58.5 -68t15.5 -55t-15.5 -55 t-58.5 -68l-49 -49q-24 -24 -24 -53v-352q0 -100 -16 -159t-62 -110q-47 -52 -126.5 -74t-211.5 -22h-125v266z" />
<glyph unicode="~" horiz-adv-x="1159" d="M29 543l139 135q123 117 246 117q56 0 112 -23t92.5 -50t74 -50t61.5 -23q17 0 67 33l148 111l161 -185l-139 -135q-123 -117 -246 -117q-56 0 -111.5 23t-92 50t-74 50t-61.5 23q-18 0 -68 -33l-148 -111z" />
<glyph unicode="&#xa1;" horiz-adv-x="604" d="M137 844q0 72 47.5 117t116.5 45q68 0 115 -45t47 -117q0 -71 -47.5 -117.5t-114.5 -46.5q-69 0 -116.5 46.5t-47.5 117.5zM147 -213l15 725q0 26 11.5 37.5t37.5 11.5h184q26 0 37.5 -11.5t11.5 -37.5l17 -788h-250q-64 0 -64 63z" />
<glyph unicode="&#xa2;" d="M172 332v330q0 168 82 253q88 91 291 91h53v204h176v-209q189 -18 301 -127l-119 -198q-73 53 -182 63v-487q126 8 203 65l119 -198q-116 -113 -322 -129v-207h-176v205h-53q-204 0 -291 90q-82 85 -82 254zM457 360q0 -65 26 -88q25 -22 90 -22h25v493h-25 q-65 0 -90 -22q-26 -23 -26 -88v-273z" />
<glyph unicode="&#xa3;" d="M154 0v258h141v234h-137v241h123l-13 84q-14 96 -14 133q0 138 70 213q106 119 338 119h49q250 0 415 -149l-118 -205q-72 47 -142.5 66.5t-171.5 19.5h-18q-127 0 -127 -90q0 -28 8 -80l16 -111h416v-241h-399v-234h502v-258h-938z" />
<glyph unicode="&#xa4;" d="M121 166l176 201q-27 47 -27 137v262q0 88 27 137l-176 201h297l69 -109h252l72 109h297l-176 -201q29 -53 29 -137v-262q0 -86 -29 -139l176 -199h-297l-72 108h-252l-69 -108h-297zM487 522q0 -18 9 -30q10 -13 32 -13h174q23 0 33 13q8 11 8 30v226q0 19 -8 30 q-10 13 -33 13h-174q-22 0 -32 -13q-9 -12 -9 -30v-226z" />
<glyph unicode="&#xa5;" d="M37 1270h313l271 -598l270 598h301l-363 -725h164v-174h-227v-62h227v-174h-227v-135h-303v135h-232v174h232v62h-232v174h168z" />
<glyph unicode="&#xa6;" horiz-adv-x="548" d="M133 -236v758h283v-758h-283zM133 700v756h283v-756h-283z" />
<glyph unicode="&#xa7;" horiz-adv-x="1167" d="M131 -315l117 192q88 -65 260 -65h123q65 0 90 22q27 20 27 84v4q0 64 -27 84q-20 17 -90 23l-127 8q-108 6 -175.5 26t-109.5 64q-82 85 -82 240v18q0 71 19.5 120.5t66.5 96.5l37 37q-123 86 -123 276v23q0 169 82 254q87 90 285 90h147q230 0 383 -119l-116 -192 q-88 65 -261 65h-122q-66 0 -91 -22q-26 -20 -26 -84v-4q0 -65 26 -84q20 -17 91 -23l127 -8q108 -6 175 -26t109 -64q82 -85 82 -240v-18q0 -71 -19.5 -120.5t-68.5 -98.5l-35 -35q123 -86 123 -277v-22q0 -169 -82 -254q-87 -90 -284 -90h-148q-230 0 -383 119zM416 387 q0 -55 26 -74q22 -19 90 -22l105 -6l63 63q48 48 48 101v10q0 53 -27 73q-23 20 -90 23l-105 6l-63 -63q-47 -47 -47 -101v-10z" />
<glyph unicode="&#xa8;" horiz-adv-x="942" d="M100 1317q0 70 44.5 115t115.5 45q72 0 117 -45.5t45 -114.5t-45 -114.5t-117 -45.5q-71 0 -115.5 45t-44.5 115zM516 1317q0 70 44.5 115t115.5 45q72 0 117 -45.5t45 -114.5t-45 -114.5t-117 -45.5q-71 0 -115.5 45t-44.5 115z" />
<glyph unicode="&#xa9;" horiz-adv-x="1550" d="M127 324v622q0 106 19 164t65 100q45 40 106.5 56t161.5 16h592q100 0 161.5 -16t106.5 -56q46 -42 65 -100t19 -164v-622q0 -106 -19 -164.5t-65 -100.5q-44 -40 -106 -55.5t-162 -15.5h-592q-100 0 -162 15.5t-106 55.5q-46 42 -65 100.5t-19 164.5zM381 307 q0 -42 20 -59q19 -19 62 -19h624q43 0 62 19q20 17 20 59v656q0 42 -20 59q-18 18 -62 18h-624q-44 0 -62 -18q-20 -17 -20 -59v-656zM547 496v280q0 65 39 98q41 41 135 41h82q131 0 205 -71l-64 -115q-58 33 -139 33h-45q-29 0 -39 -10q-10 -8 -10 -29v-174q0 -24 10 -29 q10 -10 39 -10h53q81 0 139 33l64 -115q-75 -72 -205 -72h-90q-94 0 -135 41q-39 33 -39 99z" />
<glyph unicode="&#xaa;" horiz-adv-x="882" d="M115 772v39q0 98 47 145q52 52 166 52h116q58 0 109 -21l20 -8v61q0 37 -20 53.5t-72 16.5h-65q-122 0 -205 -47l-82 133q58 50 119.5 68t159.5 18h84q79 0 125.5 -13.5t80.5 -45.5q33 -32 47.5 -69.5t14.5 -100.5v-367q0 -23 -6 -33.5t-25 -19.5l-72 -37 q-41 -21 -96 -21h-233q-114 0 -166 52q-47 47 -47 145zM299 774q0 -27 10 -37q8 -8 35 -8h164q27 0 43 8l12 6q10 5 10 17v57q0 12 -2.5 16.5t-15.5 8.5l-20 6q-18 6 -48 6h-143q-27 0 -35 -8q-10 -10 -10 -37v-35z" />
<glyph unicode="&#xab;" horiz-adv-x="1425" d="M78 498v45q0 31 8.5 47t32.5 37l411 336l162 -209l-301 -234l301 -233l-162 -209l-411 336q-24 21 -32.5 37t-8.5 47zM709 498v45q0 32 8 48.5t33 35.5l411 336l162 -209l-301 -234l301 -233l-162 -209l-411 336q-25 19 -33 35.5t-8 48.5z" />
<glyph unicode="&#xac;" horiz-adv-x="909" d="M74 715v256h762v-660h-256v404h-506z" />
<glyph unicode="&#xad;" horiz-adv-x="788" d="M94 367v262h600v-262h-600z" />
<glyph unicode="&#xae;" horiz-adv-x="1550" d="M127 324v622q0 106 19 164t65 100q45 40 106.5 56t161.5 16h592q100 0 161.5 -16t106.5 -56q46 -42 65 -100t19 -164v-622q0 -106 -19 -164.5t-65 -100.5q-44 -40 -106 -55.5t-162 -15.5h-592q-100 0 -162 15.5t-106 55.5q-46 42 -65 100.5t-19 164.5zM381 307 q0 -42 20 -59q19 -19 62 -19h624q43 0 62 19q20 17 20 59v656q0 42 -20 59q-18 18 -62 18h-624q-44 0 -62 -18q-20 -17 -20 -59v-656zM543 360v519q0 30 37 30h243q105 0 146 -41q37 -34 37 -98v-90q0 -36 -6.5 -55t-28.5 -41l-35 -35l78 -189h-172l-60 156h-77v-156h-162z M705 664h108q15 0 23 8t8 20v45q0 25 -29 25h-110v-98z" />
<glyph unicode="&#xaf;" horiz-adv-x="942" d="M129 1214v244h684v-244h-684z" />
<glyph unicode="&#xb0;" horiz-adv-x="944" d="M123 842v190q0 117 74 182q71 68 215 68h120q145 0 216 -68q73 -64 73 -182v-190q0 -119 -73 -183q-70 -67 -216 -67h-120q-145 0 -215 67q-74 65 -74 183zM356 895q0 -40 21 -61t72 -21h49q50 0 71 21q19 19 19 61v84q0 42 -19 61q-21 21 -71 21h-49q-51 0 -72 -21 t-21 -61v-84z" />
<glyph unicode="&#xb1;" horiz-adv-x="909" d="M74 0v256h760v-256h-760zM74 655v256h252v254h256v-254h252v-256h-252v-254h-256v254h-252z" />
<glyph unicode="&#xb2;" horiz-adv-x="868" d="M135 1186q59 53 113.5 74.5t165.5 21.5h32q155 0 218 -63q57 -57 57 -172v-62q0 -93 -29 -135.5t-114 -69.5l-187 -59q-12 -5 -16 -10.5t-4 -18.5v-30h348v-203h-483q-47 0 -69 19.5t-22 62.5v168q0 88 29.5 129.5t114.5 68.5l184 60q23 6 23 26v35q0 26 -11 37 q-10 10 -41 10h-24q-71 0 -115 -11t-90 -44z" />
<glyph unicode="&#xb3;" horiz-adv-x="868" d="M111 555l79 154q46 -33 90.5 -44.5t114.5 -11.5h62q19 0 30 11l15 14q12 12 12 31v26q0 41 -39 41h-115q-43 0 -43 39v39q0 27 19 49l119 133q18 21 20 39h-282v195h454q51 0 51 -51v-119q0 -32 -5 -48t-23 -34l-92 -92q165 -19 165 -183v-47q0 -55 -9.5 -79t-45.5 -60 l-45 -45q-31 -31 -59.5 -42t-87.5 -11h-107q-111 0 -165 21.5t-113 74.5z" />
<glyph unicode="&#xb4;" horiz-adv-x="942" d="M197 1198q-27 47 12 78l317 252q43 31 66 31q34 0 61 -43l105 -173l-449 -221q-50 -24 -76 19z" />
<glyph unicode="&#xb6;" horiz-adv-x="1290" d="M102 768v502h1086v-232h-170v-1460h-238v1460h-94v-1460h-237v1075h-224q-68 0 -95.5 25.5t-27.5 89.5z" />
<glyph unicode="&#xb7;" horiz-adv-x="528" d="M100 621q0 71 47.5 117t114.5 46q69 0 116.5 -46t47.5 -117q0 -72 -47.5 -117t-116.5 -45q-68 0 -115 45t-47 117z" />
<glyph unicode="&#xb8;" horiz-adv-x="942" d="M281 -131q0 19 14 51l51 117h139v-68q0 -15 13 -20l92 -39q40 -17 57 -39.5t17 -58.5q0 -41 -18 -68t-68 -59l-197 -134l-98 144l137 90l-68 22q-40 13 -55.5 27t-15.5 35z" />
<glyph unicode="&#xb9;" horiz-adv-x="868" d="M184 459v205h152v403h-143v203h288q48 0 65 -16t17 -58v-532h123v-205h-502z" />
<glyph unicode="&#xba;" horiz-adv-x="897" d="M119 786v285q0 62 10.5 98t36.5 64q46 49 166 49h233q120 0 166 -49q26 -28 36.5 -64t10.5 -98v-285q0 -62 -10.5 -97.5t-36.5 -63.5q-47 -50 -166 -50h-233q-119 0 -166 50q-26 28 -36.5 63.5t-10.5 97.5zM305 805q0 -29 12 -41t43 -12h177q31 0 43 12t12 41v248 q0 29 -12 41t-43 12h-177q-31 0 -43 -12t-12 -41v-248z" />
<glyph unicode="&#xbb;" horiz-adv-x="1425" d="M102 287l301 233l-301 234l162 209l412 -336q24 -21 32.5 -37t8.5 -47v-45q0 -31 -8.5 -47t-32.5 -37l-412 -336zM733 287l301 233l-301 234l162 209l412 -336q24 -21 32.5 -37t8.5 -47v-45q0 -31 -8.5 -47t-32.5 -37l-412 -336z" />
<glyph unicode="&#xbc;" horiz-adv-x="2007" d="M135 459v205h152v403h-144v203h289q48 0 65 -16t17 -58v-532h123v-205h-502zM487 2l643 1270h289l-643 -1270h-289zM1182 258q0 20 14 55l223 498h254l-217 -475h141v174h228v-174h92v-205h-92v-131h-228v131h-340q-29 0 -39 8.5t-18 36.5l-12 45q-6 21 -6 37z" />
<glyph unicode="&#xbd;" horiz-adv-x="2007" d="M147 459v205h152v403h-143v203h288q48 0 65 -16t17 -58v-532h123v-205h-502zM498 0l643 1270h289l-644 -1270h-288zM1270 727q59 53 113 74.5t165 21.5h33q154 0 217 -63q57 -57 57 -172v-62q0 -93 -29 -134.5t-114 -69.5l-186 -60q-12 -5 -16.5 -10.5t-4.5 -18.5v-30 h348v-203h-483q-46 0 -68 19t-22 63v168q0 88 29 130t114 69l185 59q22 6 22 27v34q0 27 -10 37t-41 10h-25q-70 0 -114 -11t-90 -44z" />
<glyph unicode="&#xbe;" horiz-adv-x="2007" d="M59 555l80 154q46 -33 90.5 -44.5t114.5 -11.5h62q19 0 30 11l15 14q12 12 12 31v26q0 41 -39 41h-115q-43 0 -43 39v39q0 27 19 49l118 133q19 22 21 39h-283v195h455q51 0 51 -51v-119q0 -32 -5.5 -48t-23.5 -34l-92 -92q166 -20 166 -183v-47q0 -55 -9.5 -79 t-45.5 -60l-45 -45q-31 -31 -60 -42t-88 -11h-106q-111 0 -165.5 21.5t-113.5 74.5zM514 0l643 1270h289l-643 -1270h-289zM1210 258q0 18 15 55l223 498h254l-217 -475h141v174h227v-174h93v-205h-93v-131h-227v131h-340q-29 0 -39 8.5t-18 36.5l-12 45q-7 24 -7 37z" />
<glyph unicode="&#xbf;" horiz-adv-x="1058" d="M98 74v32q0 154 52 218q42 53 145 86l86 26q28 9 38 24.5t13 49.5l4 51h266l5 -125q3 -76 -25 -124t-107 -74l-104 -35q-43 -13 -60.5 -36.5t-17.5 -66.5v-12q0 -64 27 -88q26 -23 90 -23h53q184 0 299 72l117 -211q-85 -68 -177.5 -97.5t-213.5 -29.5h-117 q-204 0 -291 90q-82 85 -82 273zM401 844q0 72 47.5 117t116.5 45q68 0 115 -45t47 -117q0 -71 -47.5 -117.5t-114.5 -46.5q-69 0 -116.5 46.5t-47.5 117.5z" />
<glyph unicode="&#xc0;" horiz-adv-x="1351" d="M33 0l387 1202q17 46 51 63t113 17h184q79 0 113 -17t51 -63l387 -1202h-320l-77 258h-500l-78 -258h-311zM381 1610l104 172q27 43 62 43q22 0 65 -31l318 -252q39 -31 12 -78l-37 -57q-14 -24 -33 -27.5t-43 9.5zM500 516h342l-146 479q-5 19 -22 19h-4q-18 0 -23 -19z " />
<glyph unicode="&#xc1;" horiz-adv-x="1351" d="M33 0l387 1202q17 46 51 63t113 17h184q79 0 113 -17t51 -63l387 -1202h-320l-77 258h-500l-78 -258h-311zM399 1464q-27 46 13 78l317 252q43 31 66 31q34 0 61 -43l105 -172l-449 -221q-24 -13 -43 -9.5t-33 27.5zM500 516h342l-146 479q-5 19 -22 19h-4q-18 0 -23 -19 z" />
<glyph unicode="&#xc2;" horiz-adv-x="1351" d="M33 0l387 1202q17 46 51 63t113 17h184q79 0 113 -17t51 -63l387 -1202h-320l-77 258h-500l-78 -258h-311zM268 1403l269 369q22 30 41.5 38.5t54.5 8.5h78q35 0 54.5 -8.5t41.5 -38.5l268 -369h-272l-131 205l-131 -205h-273zM500 516h342l-146 479q-5 19 -22 19h-4 q-18 0 -23 -19z" />
<glyph unicode="&#xc3;" horiz-adv-x="1351" d="M33 0l387 1202q17 46 51 63t113 17h184q79 0 113 -17t51 -63l387 -1202h-320l-77 258h-500l-78 -258h-311zM248 1632l123 94q57 44 93 60t83 16q43 0 88.5 -22.5t84.5 -45t64 -22.5q14 0 47 17l138 75l127 -176l-123 -94q-57 -44 -93 -60t-83 -16q-43 0 -89 22.5t-85 45 t-64 22.5q-16 0 -47 -16l-137 -76zM500 516h342l-146 479q-5 19 -22 19h-4q-18 0 -23 -19z" />
<glyph unicode="&#xc4;" horiz-adv-x="1351" d="M33 0l387 1202q17 46 51 63t113 17h184q79 0 113 -17t51 -63l387 -1202h-320l-77 258h-500l-78 -258h-311zM256 1583q0 70 44.5 115t115.5 45q72 0 117 -45.5t45 -114.5t-45 -114.5t-117 -45.5q-71 0 -115.5 45t-44.5 115zM500 516h342l-146 479q-5 19 -22 19h-4 q-18 0 -23 -19zM766 1583q0 70 44.5 115t115.5 45t116 -45t45 -115t-45 -115t-116 -45t-115.5 45t-44.5 115z" />
<glyph unicode="&#xc5;" horiz-adv-x="1351" d="M33 0l387 1202q17 46 51 63t113 17h184q79 0 113 -17t51 -63l387 -1202h-320l-77 258h-500l-78 -258h-311zM395 1571v149q0 95 47.5 139t149.5 44h160q101 0 148.5 -44t47.5 -139v-149q0 -95 -47 -138.5t-149 -43.5h-160q-102 0 -149.5 43.5t-47.5 138.5zM500 516h342 l-146 479q-5 19 -22 19h-4q-18 0 -23 -19zM596 1602q0 -17 6 -23t23 -6h94q17 0 23 6t6 23v88q0 17 -6 22.5t-23 5.5h-94q-17 0 -23 -5.5t-6 -22.5v-88z" />
<glyph unicode="&#xc6;" horiz-adv-x="1990" d="M12 0l604 1151q46 73 88 96t130 23h1046v-266h-606v-234h502v-266h-502v-238h620v-266h-839q-84 0 -84 78v227h-467l-156 -305h-336zM639 567h332v437h-74q-21 0 -30.5 -5.5t-18.5 -23.5z" />
<glyph unicode="&#xc7;" horiz-adv-x="1144" d="M88 358v553q0 175 84 265q100 106 311 106h181q129 0 226.5 -35.5t174.5 -116.5l-129 -212q-62 42 -133 62.5t-174 20.5h-115q-72 0 -100 -28q-23 -26 -23 -86v-504q0 -60 23 -86q29 -29 100 -29h131q102 0 173.5 21t133.5 63l129 -213q-77 -81 -174.5 -116t-226.5 -35 h-14v-19q0 -15 12 -20l92 -39q40 -17 57 -39.5t17 -58.5q0 -41 -18 -68t-68 -59l-197 -134l-98 144l137 90l-68 22q-40 13 -55.5 27t-15.5 35q0 19 14 51l29 68h-21q-211 0 -311 106q-84 90 -84 264z" />
<glyph unicode="&#xc8;" horiz-adv-x="1107" d="M119 78v1114q0 78 84 78h794v-266h-575v-234h471v-266h-471v-238h590v-266h-809q-84 0 -84 78zM264 1610l105 172q27 43 61 43q23 0 66 -31l317 -252q39 -31 12 -78l-37 -57q-14 -24 -32.5 -27.5t-42.5 9.5z" />
<glyph unicode="&#xc9;" horiz-adv-x="1107" d="M119 78v1114q0 78 84 78h794v-266h-575v-234h471v-266h-471v-238h590v-266h-809q-84 0 -84 78zM283 1464q-27 47 12 78l317 252q43 31 66 31q34 0 61 -43l105 -172l-449 -221q-24 -13 -43 -9.5t-33 27.5z" />
<glyph unicode="&#xca;" horiz-adv-x="1107" d="M119 78v1114q0 78 84 78h794v-266h-575v-234h471v-266h-471v-238h590v-266h-809q-84 0 -84 78zM150 1403l268 369q22 30 41.5 38.5t54.5 8.5h78q35 0 54.5 -8.5t41.5 -38.5l268 -369h-272l-131 205l-131 -205h-272z" />
<glyph unicode="&#xcb;" horiz-adv-x="1107" d="M119 78v1114q0 78 84 78h794v-266h-575v-234h471v-266h-471v-238h590v-266h-809q-84 0 -84 78zM137 1583q0 70 44.5 115t115.5 45t116.5 -45.5t45.5 -114.5t-45.5 -114.5t-116.5 -45.5t-115.5 45t-44.5 115zM647 1583q0 70 44.5 115t115.5 45t116.5 -45.5t45.5 -114.5 t-45.5 -114.5t-116.5 -45.5t-115.5 45t-44.5 115z" />
<glyph unicode="&#xcc;" horiz-adv-x="565" d="M-6 1610l104 172q27 43 62 43q22 0 65 -31l318 -252q39 -31 12 -78l-37 -57q-14 -24 -33 -27.5t-43 9.5zM131 0v1270h303v-1270h-303z" />
<glyph unicode="&#xcd;" horiz-adv-x="565" d="M12 1464q-27 46 13 78l317 252q43 31 66 31q34 0 61 -43l104 -172l-448 -221q-24 -13 -43 -9.5t-33 27.5zM131 0v1270h303v-1270h-303z" />
<glyph unicode="&#xce;" horiz-adv-x="565" d="M-121 1403l268 369q22 29 41.5 38t55.5 9h78q35 0 54.5 -8.5t41.5 -38.5l268 -369h-272l-131 205l-131 -205h-273zM131 0v1270h303v-1270h-303z" />
<glyph unicode="&#xcf;" horiz-adv-x="565" d="M-133 1583q0 70 44.5 115t115.5 45t116 -45t45 -115t-45 -115t-116 -45t-115.5 45t-44.5 115zM131 0v1270h303v-1270h-303zM377 1583q0 70 44.5 115t115.5 45t116 -45t45 -115t-45 -115t-116 -45t-115.5 45t-44.5 115z" />
<glyph unicode="&#xd0;" horiz-adv-x="1300" d="M37 502v268h117v422q0 78 84 78h579q210 0 311 -107q84 -90 84 -264v-528q0 -175 -84 -265q-100 -106 -311 -106h-579q-84 0 -84 78v424h-117zM457 268h329q71 0 101 33q22 25 22 94v479q0 70 -22 95q-29 32 -101 32h-329v-231h207v-268h-207v-234z" />
<glyph unicode="&#xd1;" horiz-adv-x="1314" d="M119 0v1214q0 56 71 56h99q44 0 68.5 -12.5t50.5 -49.5l438 -606q49 -67 76 -125v793h274v-1215q0 -55 -72 -55h-102q-46 0 -69.5 12t-49.5 49l-438 607q-48 67 -72 118v-786h-274zM233 1632l123 94q57 44 93 60t83 16q43 0 89 -22.5t85 -45t64 -22.5q14 0 47 17l137 75 l127 -176l-123 -94q-57 -44 -93 -60t-83 -16q-43 0 -88.5 22.5t-84.5 45t-64 22.5q-16 0 -47 -16l-138 -76z" />
<glyph unicode="&#xd2;" horiz-adv-x="1261" d="M88 358v553q0 175 84 265q100 106 311 106h295q212 0 312 -106q84 -90 84 -265v-553q0 -174 -84 -264q-100 -106 -312 -106h-295q-211 0 -311 106q-84 90 -84 264zM340 1610l104 172q27 43 62 43q22 0 65 -31l318 -252q39 -31 12 -78l-37 -57q-14 -24 -33 -27.5t-43 9.5z M391 383q0 -60 23 -86q29 -29 100 -29h234q71 0 100 29q22 25 22 86v504q0 61 -22 86q-28 28 -100 28h-234q-72 0 -100 -28q-23 -26 -23 -86v-504z" />
<glyph unicode="&#xd3;" horiz-adv-x="1261" d="M88 358v553q0 175 84 265q100 106 311 106h295q212 0 312 -106q84 -90 84 -265v-553q0 -174 -84 -264q-100 -106 -312 -106h-295q-211 0 -311 106q-84 90 -84 264zM358 1464q-27 46 13 78l317 252q43 31 66 31q34 0 61 -43l105 -172l-449 -221q-24 -13 -43 -9.5t-33 27.5 zM391 383q0 -60 23 -86q29 -29 100 -29h234q71 0 100 29q22 25 22 86v504q0 61 -22 86q-28 28 -100 28h-234q-72 0 -100 -28q-23 -26 -23 -86v-504z" />
<glyph unicode="&#xd4;" horiz-adv-x="1261" d="M88 358v553q0 175 84 265q100 106 311 106h295q212 0 312 -106q84 -90 84 -265v-553q0 -174 -84 -264q-100 -106 -312 -106h-295q-211 0 -311 106q-84 90 -84 264zM227 1403l269 369q22 30 41.5 38.5t54.5 8.5h78q35 0 54.5 -8.5t41.5 -38.5l268 -369h-272l-131 205 l-131 -205h-273zM391 383q0 -60 23 -86q29 -29 100 -29h234q71 0 100 29q22 25 22 86v504q0 61 -22 86q-28 28 -100 28h-234q-72 0 -100 -28q-23 -26 -23 -86v-504z" />
<glyph unicode="&#xd5;" horiz-adv-x="1261" d="M88 358v553q0 175 84 265q100 106 311 106h295q212 0 312 -106q84 -90 84 -265v-553q0 -174 -84 -264q-100 -106 -312 -106h-295q-211 0 -311 106q-84 90 -84 264zM207 1632l123 94q57 44 93 60t83 16q43 0 88.5 -22.5t84.5 -45t64 -22.5q15 0 48 17l137 75l127 -176 l-123 -94q-57 -44 -93 -60t-83 -16q-43 0 -89 22.5t-85 45t-64 22.5q-16 0 -47 -16l-137 -76zM391 383q0 -60 23 -86q29 -29 100 -29h234q71 0 100 29q22 25 22 86v504q0 61 -22 86q-28 28 -100 28h-234q-72 0 -100 -28q-23 -26 -23 -86v-504z" />
<glyph unicode="&#xd6;" horiz-adv-x="1261" d="M88 358v553q0 175 84 265q100 106 311 106h295q212 0 312 -106q84 -90 84 -265v-553q0 -174 -84 -264q-100 -106 -312 -106h-295q-211 0 -311 106q-84 90 -84 264zM215 1583q0 70 44.5 115t115.5 45t116.5 -45.5t45.5 -114.5t-45.5 -114.5t-116.5 -45.5t-115.5 45 t-44.5 115zM391 383q0 -60 23 -86q29 -29 100 -29h234q71 0 100 29q22 25 22 86v504q0 61 -22 86q-28 28 -100 28h-234q-72 0 -100 -28q-23 -26 -23 -86v-504zM725 1583q0 70 44.5 115t115.5 45t116.5 -45.5t45.5 -114.5t-45.5 -114.5t-116.5 -45.5t-115.5 45t-44.5 115z " />
<glyph unicode="&#xd7;" horiz-adv-x="909" d="M92 821l182 183l179 -181l178 178l182 -182l-178 -178l180 -178l-182 -182l-178 180l-179 -178l-182 182l178 176z" />
<glyph unicode="&#xd8;" horiz-adv-x="1302" d="M88 358v553q0 175 84 265q100 106 311 106h234l53 182h252l-57 -198q96 -21 165 -90q84 -90 84 -265v-553q0 -174 -84 -264q-100 -106 -311 -106h-241l-52 -183h-252l58 199q-103 27 -160 90q-84 90 -84 264zM391 383q0 -72 31 -94l207 712h-115q-72 0 -100 -28 q-23 -26 -23 -86v-504zM668 268h120q72 0 101 29q22 25 22 86v504q0 79 -37 96z" />
<glyph unicode="&#xd9;" horiz-adv-x="1282" d="M115 358v912h303v-887q0 -61 22 -86q29 -29 101 -29h245q20 0 35 6l25 11q14 7 14 24v961h303v-1065q0 -60 -19 -86t-79 -53l-102 -46q-74 -32 -177 -32h-276q-211 0 -311 106q-84 90 -84 264zM350 1610l105 172q27 43 61 43q23 0 66 -31l317 -252q39 -31 12 -78l-37 -57 q-14 -24 -32.5 -27.5t-42.5 9.5z" />
<glyph unicode="&#xda;" horiz-adv-x="1282" d="M115 358v912h303v-887q0 -61 22 -86q29 -29 101 -29h245q20 0 35 6l25 11q14 7 14 24v961h303v-1065q0 -60 -19 -86t-79 -53l-102 -46q-74 -32 -177 -32h-276q-211 0 -311 106q-84 90 -84 264zM369 1464q-27 47 12 78l317 252q43 31 66 31q34 0 61 -43l105 -172 l-449 -221q-24 -13 -42.5 -9.5t-32.5 27.5z" />
<glyph unicode="&#xdb;" horiz-adv-x="1282" d="M115 358v912h303v-887q0 -61 22 -86q29 -29 101 -29h245q20 0 35 6l25 11q14 7 14 24v961h303v-1065q0 -60 -19 -86t-79 -53l-102 -46q-74 -32 -177 -32h-276q-211 0 -311 106q-84 90 -84 264zM238 1403l268 369q22 30 41.5 38.5t54.5 8.5h78q35 0 54.5 -8.5t41.5 -38.5 l268 -369h-272l-131 205l-131 -205h-272z" />
<glyph unicode="&#xdc;" horiz-adv-x="1282" d="M115 358v912h303v-887q0 -61 22 -86q29 -29 101 -29h245q20 0 35 6l25 11q14 7 14 24v961h303v-1065q0 -60 -19 -86t-79 -53l-102 -46q-74 -32 -177 -32h-276q-211 0 -311 106q-84 90 -84 264zM225 1583q0 70 44.5 115t115.5 45t116.5 -45.5t45.5 -114.5t-45.5 -114.5 t-116.5 -45.5t-115.5 45t-44.5 115zM735 1583q0 70 44.5 115t115.5 45t116.5 -45.5t45.5 -114.5t-45.5 -114.5t-116.5 -45.5t-115.5 45t-44.5 115z" />
<glyph unicode="&#xdd;" d="M16 1270h338l262 -561l265 561h331l-430 -819q-16 -31 -16 -66v-385h-303v385q0 33 -17 66zM342 1464q-27 47 12 78l318 252q43 31 65 31q35 0 62 -43l104 -172l-448 -221q-24 -13 -43 -9.5t-33 27.5z" />
<glyph unicode="&#xde;" horiz-adv-x="1230" d="M119 0v1270h303v-172h348q210 0 311 -107q84 -90 84 -264v-180q0 -80 -13 -116t-62 -85l-80 -80q-42 -42 -82.5 -57.5t-118.5 -15.5h-387v-193h-303zM422 459h354q19 0 29 10l47 47q10 10 10 27v174q0 61 -22 86q-28 28 -101 28h-317v-372z" />
<glyph unicode="&#xdf;" horiz-adv-x="1267" d="M104 -381v1452q0 169 82 254q87 90 283 90h291q195 0 282 -90q82 -85 82 -254v-133q0 -85 -55 -143l-29 -31l66 -64q33 -33 47 -64t14 -77v-225q0 -159 -82 -244q-87 -90 -282 -90h-309v262h292q59 0 78 19t19 69v185q0 13 -11 24l-28 29q-10 10 -25 10h-254v262h217 q9 0 19 10l28 29q11 11 11 25v141q0 51 -19 70q-18 18 -78 18h-258q-59 0 -77 -18q-19 -19 -19 -70v-1446h-285z" />
<glyph unicode="&#xe0;" horiz-adv-x="1056" d="M66 309q0 -154 84 -235q93 -86 288 -86h221q56 0 92 10t85 39l34 20q53 32 69.5 57.5t16.5 75.5v492q0 169 -82 254q-87 90 -282 90h-131q-223 0 -369 -123l119 -194q59 38 118.5 54.5t147.5 16.5h98q60 0 78 -18q19 -19 19 -70v-86l-39 8q-81 15 -156 15h-39 q-197 0 -288 -84q-84 -81 -84 -236zM229 1343l105 173q27 43 61 43q23 0 66 -31l317 -252q40 -32 13 -78l-37 -57q-26 -43 -76 -19zM346 317q0 49 20.5 67.5t73.5 18.5h213q16 0 19 -8v-129q0 -14 -10 -20l-15 -8q-14 -7 -26 -7h-181q-53 0 -73.5 18.5t-20.5 67.5z" />
<glyph unicode="&#xe1;" horiz-adv-x="1056" d="M66 309q0 -154 84 -235q93 -86 288 -86h221q56 0 92 10t85 39l34 20q53 32 69.5 57.5t16.5 75.5v492q0 169 -82 254q-87 90 -282 90h-131q-223 0 -369 -123l119 -194q59 38 118.5 54.5t147.5 16.5h98q60 0 78 -18q19 -19 19 -70v-86l-39 8q-81 15 -156 15h-39 q-197 0 -288 -84q-84 -81 -84 -236zM248 1198q-27 47 12 78l318 252q43 31 65 31q35 0 62 -43l104 -173l-449 -221q-49 -24 -75 19zM346 317q0 49 20.5 67.5t73.5 18.5h213q16 0 19 -8v-129q0 -14 -10 -20l-15 -8q-14 -7 -26 -7h-181q-53 0 -73.5 18.5t-20.5 67.5z" />
<glyph unicode="&#xe2;" horiz-adv-x="1056" d="M66 309q0 -154 84 -235q93 -86 288 -86h221q56 0 92 10t85 39l34 20q53 32 69.5 57.5t16.5 75.5v492q0 169 -82 254q-87 90 -282 90h-131q-223 0 -369 -123l119 -194q59 38 118.5 54.5t147.5 16.5h98q60 0 78 -18q19 -19 19 -70v-86l-39 8q-81 15 -156 15h-39 q-197 0 -288 -84q-84 -81 -84 -236zM117 1137l268 368q22 30 41.5 38.5t54.5 8.5h78q35 0 54.5 -8.5t41.5 -38.5l269 -368h-273l-131 204l-131 -204h-272zM346 317q0 49 20.5 67.5t73.5 18.5h213q16 0 19 -8v-129q0 -14 -10 -20l-15 -8q-14 -7 -26 -7h-181q-53 0 -73.5 18.5 t-20.5 67.5z" />
<glyph unicode="&#xe3;" horiz-adv-x="1056" d="M66 309q0 -154 84 -235q93 -86 288 -86h221q56 0 92 10t85 39l34 20q53 32 69.5 57.5t16.5 75.5v492q0 169 -82 254q-87 90 -282 90h-131q-223 0 -369 -123l119 -194q59 38 118.5 54.5t147.5 16.5h98q60 0 78 -18q19 -19 19 -70v-86l-39 8q-81 15 -156 15h-39 q-197 0 -288 -84q-84 -81 -84 -236zM96 1325l123 94q57 44 93 60t83 16q43 0 89 -22.5t85 -45t64 -22.5q16 0 47 16l137 76l127 -176l-123 -94q-57 -44 -93 -60t-83 -16q-43 0 -88.5 22.5t-84.5 45t-64 22.5q-17 0 -48 -16l-137 -76zM346 317q0 49 20.5 67.5t73.5 18.5h213 q16 0 19 -8v-129q0 -14 -10 -20l-15 -8q-14 -7 -26 -7h-181q-53 0 -73.5 18.5t-20.5 67.5z" />
<glyph unicode="&#xe4;" horiz-adv-x="1056" d="M66 309q0 -154 84 -235q93 -86 288 -86h221q56 0 92 10t85 39l34 20q53 32 69.5 57.5t16.5 75.5v492q0 169 -82 254q-87 90 -282 90h-131q-223 0 -369 -123l119 -194q59 38 118.5 54.5t147.5 16.5h98q60 0 78 -18q19 -19 19 -70v-86l-39 8q-81 15 -156 15h-39 q-197 0 -288 -84q-84 -81 -84 -236zM150 1317q0 70 44 115t115 45t116.5 -45.5t45.5 -114.5t-45.5 -114.5t-116.5 -45.5t-115 45t-44 115zM346 317q0 49 20.5 67.5t73.5 18.5h213q16 0 19 -8v-129q0 -14 -10 -20l-15 -8q-14 -7 -26 -7h-181q-53 0 -73.5 18.5t-20.5 67.5z M565 1317q0 70 44.5 115t115.5 45t116.5 -45.5t45.5 -114.5t-45.5 -114.5t-116.5 -45.5t-115.5 45t-44.5 115z" />
<glyph unicode="&#xe5;" horiz-adv-x="1056" d="M66 309q0 -154 84 -235q93 -86 288 -86h221q56 0 92 10t85 39l34 20q53 32 69.5 57.5t16.5 75.5v492q0 169 -82 254q-87 90 -282 90h-131q-223 0 -369 -123l119 -194q59 38 118.5 54.5t147.5 16.5h98q60 0 78 -18q19 -19 19 -70v-86l-39 8q-81 15 -156 15h-39 q-197 0 -288 -84q-84 -81 -84 -236zM244 1305v149q0 95 47 138.5t149 43.5h160q102 0 149.5 -43.5t47.5 -138.5v-149q0 -95 -47.5 -139t-149.5 -44h-160q-101 0 -148.5 44t-47.5 139zM346 317q0 49 20.5 67.5t73.5 18.5h213q16 0 19 -8v-129q0 -14 -10 -20l-15 -8 q-14 -7 -26 -7h-181q-53 0 -73.5 18.5t-20.5 67.5zM444 1335q0 -17 6 -22.5t23 -5.5h94q17 0 23 5.5t6 22.5v88q0 17 -6 23t-23 6h-94q-17 0 -23 -6t-6 -23v-88z" />
<glyph unicode="&#xe6;" horiz-adv-x="1652" d="M66 309q0 155 84 236q91 84 288 84h39q75 0 156 -15l39 -8v86q0 51 -19 70q-18 18 -78 18h-98q-88 0 -147.5 -16.5t-118.5 -54.5l-119 194q146 123 369 123h110q172 0 242 -65q70 65 229 65h156q196 0 283 -90q82 -85 82 -254v-190q0 -51 -24 -74t-81 -23h-502v-73 q0 -51 19 -70t78 -19h127q88 0 147.5 17t118.5 55l119 -194q-145 -123 -369 -123h-143q-167 0 -240 92l-106 -64q-46 -28 -115 -28h-154q-195 0 -288 86q-84 81 -84 235zM346 317q0 -49 20.5 -67.5t73.5 -18.5h181q12 0 26 7l15 8q10 6 10 20v129q-3 8 -19 8h-213 q-53 0 -73.5 -18.5t-20.5 -67.5zM956 616h326v76q0 52 -18 70t-78 18h-133q-60 0 -78 -18q-19 -19 -19 -70v-76z" />
<glyph unicode="&#xe7;" horiz-adv-x="991" d="M86 332v350q0 169 82 254q87 90 291 90h100q236 0 387 -131l-121 -199q-117 68 -260 68h-78q-64 0 -90 -23t-26 -88v-293q0 -65 26 -88q25 -22 90 -22h99q145 0 260 67l121 -198q-138 -122 -355 -131v-19q0 -15 13 -20l92 -39q40 -17 57 -39.5t17 -58.5q0 -41 -18 -68 t-68 -59l-197 -134l-98 144l137 90l-68 22q-40 13 -55.5 27t-15.5 35q0 19 14 51l29 68q-202 3 -283 90q-82 85 -82 254z" />
<glyph unicode="&#xe8;" horiz-adv-x="1067" d="M86 332v350q0 169 82 254q87 90 283 90h161q196 0 283 -90q82 -85 82 -254v-190q0 -51 -24 -74t-81 -23h-501v-73q0 -52 18 -70q19 -19 78 -19h127q88 0 147.5 17t118.5 55l119 -194q-145 -123 -369 -123h-159q-196 0 -283 90q-82 85 -82 254zM244 1343l104 173 q27 43 62 43q22 0 65 -31l318 -252q39 -31 12 -78l-37 -57q-26 -43 -76 -19zM371 616h325v76q0 52 -18 70t-78 18h-133q-60 0 -78 -18t-18 -70v-76z" />
<glyph unicode="&#xe9;" horiz-adv-x="1067" d="M86 332v350q0 169 82 254q87 90 283 90h161q196 0 283 -90q82 -85 82 -254v-190q0 -51 -24 -74t-81 -23h-501v-73q0 -52 18 -70q19 -19 78 -19h127q88 0 147.5 17t118.5 55l119 -194q-145 -123 -369 -123h-159q-196 0 -283 90q-82 85 -82 254zM262 1198q-27 47 12 78 l318 252q43 31 65 31q35 0 62 -43l104 -173l-448 -221q-50 -24 -76 19zM371 616h325v76q0 52 -18 70t-78 18h-133q-60 0 -78 -18t-18 -70v-76z" />
<glyph unicode="&#xea;" horiz-adv-x="1067" d="M86 332v350q0 169 82 254q87 90 283 90h161q196 0 283 -90q82 -85 82 -254v-190q0 -51 -24 -74t-81 -23h-501v-73q0 -52 18 -70q19 -19 78 -19h127q88 0 147.5 17t118.5 55l119 -194q-145 -123 -369 -123h-159q-196 0 -283 90q-82 85 -82 254zM129 1137l268 368 q22 29 41.5 38t55.5 9h77q36 0 55.5 -9t41.5 -38l268 -368h-272l-132 204l-131 -204h-272zM371 616h325v76q0 52 -18 70t-78 18h-133q-60 0 -78 -18t-18 -70v-76z" />
<glyph unicode="&#xeb;" horiz-adv-x="1067" d="M86 332v350q0 169 82 254q87 90 283 90h161q196 0 283 -90q82 -85 82 -254v-190q0 -51 -24 -74t-81 -23h-501v-73q0 -52 18 -70q19 -19 78 -19h127q88 0 147.5 17t118.5 55l119 -194q-145 -123 -369 -123h-159q-196 0 -283 90q-82 85 -82 254zM162 1317q0 70 44.5 115 t115.5 45t116 -45t45 -115t-45 -115t-116 -45t-115.5 45t-44.5 115zM371 616h325v76q0 52 -18 70t-78 18h-133q-60 0 -78 -18t-18 -70v-76zM578 1317q0 70 44 115t115 45t116.5 -45.5t45.5 -114.5t-45.5 -114.5t-116.5 -45.5t-115 45t-44 115z" />
<glyph unicode="&#xec;" horiz-adv-x="505" d="M-37 1343l105 173q27 43 61 43q23 0 66 -31l317 -252q39 -31 12 -78l-37 -57q-26 -43 -75 -19zM111 0v1014h284v-1014h-284z" />
<glyph unicode="&#xed;" horiz-adv-x="505" d="M-18 1198q-27 47 12 78l317 252q43 31 66 31q34 0 61 -43l105 -173l-449 -221q-50 -24 -76 19zM111 0v1014h284v-1014h-284z" />
<glyph unicode="&#xee;" horiz-adv-x="505" d="M-150 1137l269 368q22 30 41.5 38.5t54.5 8.5h78q35 0 54.5 -8.5t41.5 -38.5l268 -368h-272l-131 204l-131 -204h-273zM111 0v1014h284v-1014h-284z" />
<glyph unicode="&#xef;" horiz-adv-x="505" d="M-117 1317q0 70 44.5 115t115.5 45t116.5 -45.5t45.5 -114.5t-45.5 -114.5t-116.5 -45.5t-115.5 45t-44.5 115zM111 0v1014h284v-1014h-284zM299 1317q0 70 44.5 115t115.5 45t116.5 -45.5t45.5 -114.5t-45.5 -114.5t-116.5 -45.5t-115.5 45t-44.5 115z" />
<glyph unicode="&#xf0;" horiz-adv-x="1103" d="M86 332v227q0 169 82 254q87 90 283 90h81q87 0 148 -26l35 -17v107q0 53 -6 77l-82 -86l-111 105l100 100q-21 8 -53 8h-24q-148 0 -263 -86l-118 199q134 131 374 131h46q143 0 239 -49l129 129l117 -102l-127 -125q63 -67 63 -203v-733q0 -170 -81 -254 q-87 -90 -283 -90h-184q-196 0 -283 90q-82 85 -82 254zM371 338q0 -52 18 -70t78 -18h151q60 0 78 18q19 19 19 70v252q0 17 -15 22l-51 17q-37 12 -86 12h-96q-60 0 -78 -18t-18 -70v-215z" />
<glyph unicode="&#xf1;" horiz-adv-x="1103" d="M117 0v823q0 50 16.5 75.5t69.5 57.5l35 21q49 29 84.5 39t91.5 10h237q196 0 283 -90q82 -85 82 -254v-682h-285v676q0 51 -18 69q-19 19 -78 19h-182q-15 0 -27 -6l-14 -8q-11 -7 -11 -21v-729h-284zM127 1325l123 94q57 44 93 60t83 16q43 0 89 -22.5t85 -45t64 -22.5 q16 0 47 16l137 76l127 -176l-123 -94q-57 -44 -93 -60t-83 -16q-43 0 -89 22.5t-85 45t-64 22.5q-16 0 -47 -16l-137 -76z" />
<glyph unicode="&#xf2;" horiz-adv-x="1085" d="M86 332v350q0 169 82 254q87 90 283 90h184q196 0 283 -90q81 -84 81 -254v-350q0 -170 -81 -254q-87 -90 -283 -90h-184q-196 0 -283 90q-82 85 -82 254zM252 1343l104 173q27 43 62 43q22 0 65 -31l318 -252q39 -31 12 -78l-37 -57q-26 -43 -76 -19zM371 338 q0 -52 18 -70t78 -18h151q60 0 78 18q19 19 19 70v338q0 50 -19 69t-78 19h-151q-59 0 -78 -19q-18 -18 -18 -69v-338z" />
<glyph unicode="&#xf3;" horiz-adv-x="1085" d="M86 332v350q0 169 82 254q87 90 283 90h184q196 0 283 -90q81 -84 81 -254v-350q0 -170 -81 -254q-87 -90 -283 -90h-184q-196 0 -283 90q-82 85 -82 254zM270 1198q-27 46 13 78l317 252q43 31 66 31q34 0 61 -43l104 -173l-448 -221q-50 -24 -76 19zM371 338 q0 -52 18 -70t78 -18h151q60 0 78 18q19 19 19 70v338q0 50 -19 69t-78 19h-151q-59 0 -78 -19q-18 -18 -18 -69v-338z" />
<glyph unicode="&#xf4;" horiz-adv-x="1085" d="M86 332v350q0 169 82 254q87 90 283 90h184q196 0 283 -90q81 -84 81 -254v-350q0 -170 -81 -254q-87 -90 -283 -90h-184q-196 0 -283 90q-82 85 -82 254zM139 1137l269 368q22 30 41.5 38.5t54.5 8.5h78q35 0 54.5 -8.5t41.5 -38.5l268 -368h-272l-131 204l-131 -204 h-273zM371 338q0 -52 18 -70t78 -18h151q60 0 78 18q19 19 19 70v338q0 50 -19 69t-78 19h-151q-59 0 -78 -19q-18 -18 -18 -69v-338z" />
<glyph unicode="&#xf5;" horiz-adv-x="1085" d="M86 332v350q0 169 82 254q87 90 283 90h184q196 0 283 -90q81 -84 81 -254v-350q0 -170 -81 -254q-87 -90 -283 -90h-184q-196 0 -283 90q-82 85 -82 254zM119 1325l123 94q57 44 93 60t83 16q43 0 88.5 -22.5t84.5 -45t64 -22.5q16 0 47 16l138 76l127 -176l-123 -94 q-57 -44 -93 -60t-83 -16q-43 0 -89 22.5t-85 45t-64 22.5q-16 0 -47 -16l-137 -76zM371 338q0 -52 18 -70t78 -18h151q60 0 78 18q19 19 19 70v338q0 50 -19 69t-78 19h-151q-59 0 -78 -19q-18 -18 -18 -69v-338z" />
<glyph unicode="&#xf6;" horiz-adv-x="1085" d="M86 332v350q0 169 82 254q87 90 283 90h184q196 0 283 -90q81 -84 81 -254v-350q0 -170 -81 -254q-87 -90 -283 -90h-184q-196 0 -283 90q-82 85 -82 254zM172 1317q0 70 44.5 115t115.5 45q72 0 117 -45.5t45 -114.5t-45 -114.5t-117 -45.5q-71 0 -115.5 45t-44.5 115z M371 338q0 -52 18 -70t78 -18h151q60 0 78 18q19 19 19 70v338q0 50 -19 69t-78 19h-151q-59 0 -78 -19q-18 -18 -18 -69v-338zM588 1317q0 70 44.5 115t115.5 45t116 -45t45 -115t-45 -115t-116 -45t-115.5 45t-44.5 115z" />
<glyph unicode="&#xf7;" horiz-adv-x="909" d="M74 514v256h760v-256h-760zM322 266q0 59 39 97t96 38t96 -38t39 -97q0 -60 -39 -97.5t-96 -37.5t-96 37.5t-39 97.5zM322 1018q0 59 39 97t96 38t96 -38t39 -97q0 -60 -39 -97.5t-96 -37.5t-96 37.5t-39 97.5z" />
<glyph unicode="&#xf8;" horiz-adv-x="1126" d="M86 332v350q0 169 82 254q87 90 283 90h198l49 137h220l-60 -166q59 -20 100 -61q82 -85 82 -254v-350q0 -169 -82 -254q-87 -90 -282 -90h-195l-49 -138h-219l57 162q-59 20 -102 66q-82 85 -82 254zM371 338q0 -35 6 -53l170 479h-80q-59 0 -78 -19q-18 -18 -18 -69 v-338zM584 250h75q60 0 78 18q19 19 19 70v338q0 28 -6 43z" />
<glyph unicode="&#xf9;" horiz-adv-x="1099" d="M100 332v682h285v-676q0 -52 18 -70t78 -18h178q15 0 27 6l14 8q11 7 11 21v729h284v-824q0 -50 -16.5 -75.5t-69.5 -57.5l-35 -20q-49 -29 -84.5 -39t-91.5 -10h-233q-196 0 -283 90q-82 85 -82 254zM260 1343l105 173q27 43 61 43q23 0 66 -31l317 -252q39 -31 12 -78 l-37 -57q-26 -43 -75 -19z" />
<glyph unicode="&#xfa;" horiz-adv-x="1099" d="M100 332v682h285v-676q0 -52 18 -70t78 -18h178q15 0 27 6l14 8q11 7 11 21v729h284v-824q0 -50 -16.5 -75.5t-69.5 -57.5l-35 -20q-49 -29 -84.5 -39t-91.5 -10h-233q-196 0 -283 90q-82 85 -82 254zM279 1198q-27 47 12 78l317 252q43 31 66 31q34 0 61 -43l105 -173 l-449 -221q-50 -24 -76 19z" />
<glyph unicode="&#xfb;" horiz-adv-x="1099" d="M100 332v682h285v-676q0 -52 18 -70t78 -18h178q15 0 27 6l14 8q11 7 11 21v729h284v-824q0 -50 -16.5 -75.5t-69.5 -57.5l-35 -20q-49 -29 -84.5 -39t-91.5 -10h-233q-196 0 -283 90q-82 85 -82 254zM145 1137l269 368q22 30 41.5 38.5t54.5 8.5h78q35 0 54.5 -8.5 t41.5 -38.5l268 -368h-272l-131 204l-131 -204h-273z" />
<glyph unicode="&#xfc;" horiz-adv-x="1099" d="M100 332v682h285v-676q0 -52 18 -70t78 -18h178q15 0 27 6l14 8q11 7 11 21v729h284v-824q0 -50 -16.5 -75.5t-69.5 -57.5l-35 -20q-49 -29 -84.5 -39t-91.5 -10h-233q-196 0 -283 90q-82 85 -82 254zM178 1317q0 70 44.5 115t115.5 45q72 0 117 -45.5t45 -114.5 t-45 -114.5t-117 -45.5q-71 0 -115.5 45t-44.5 115zM594 1317q0 70 44.5 115t115.5 45t116 -45t45 -115t-45 -115t-116 -45t-115.5 45t-44.5 115z" />
<glyph unicode="&#xfd;" horiz-adv-x="1083" d="M12 1014h322l106 -324q68 -207 103 -422q29 207 100 422l107 324h321l-405 -1116q-35 -96 -73.5 -152.5t-92.5 -91.5q-82 -55 -252 -55h-101l-55 237h90q89 0 135 25q48 28 72 88l4 10zM332 1198q-27 47 12 78l318 252q43 31 65 31q34 0 61 -43l105 -173l-449 -221 q-49 -24 -75 19z" />
<glyph unicode="&#xfe;" horiz-adv-x="1095" d="M104 -389v1792h285v-416l23 8q84 31 139 31h94q196 0 283 -90q82 -85 82 -254v-350q0 -169 -82 -254q-87 -90 -283 -90h-94q-57 0 -139 30l-23 9v-416h-285zM389 289q0 -12 10 -15l66 -20q12 -4 24 -4h140q60 0 78 18t18 70v338q0 51 -18 69q-19 19 -78 19h-191 q-12 0 -24 -6l-15 -8q-10 -6 -10 -21v-440z" />
<glyph unicode="&#xff;" horiz-adv-x="1083" d="M12 1014h322l106 -324q68 -207 103 -422q29 207 100 422l107 324h321l-405 -1116q-35 -96 -73.5 -152.5t-92.5 -91.5q-82 -55 -252 -55h-101l-55 237h90q89 0 135 25q48 28 72 88l4 10zM170 1317q0 70 44.5 115t115.5 45q72 0 117 -45.5t45 -114.5t-45 -114.5t-117 -45.5 q-71 0 -115.5 45t-44.5 115zM586 1317q0 70 44 115t115 45t116.5 -45.5t45.5 -114.5t-45.5 -114.5t-116.5 -45.5t-115 45t-44 115z" />
<glyph unicode="&#x152;" horiz-adv-x="1890" d="M88 358v553q0 175 84 265q100 106 311 106h256q111 0 175 -20t114 -68q45 42 100.5 59t151.5 17h500v-266h-484q-71 0 -100 -29q-22 -25 -22 -86v-119h501v-266h-501v-123q0 -61 22 -86q29 -29 100 -29h498v-266h-514q-96 0 -151.5 17t-100.5 59q-50 -48 -114.5 -68 t-176.5 -20h-254q-211 0 -311 106q-84 90 -84 264zM391 383q0 -60 23 -86q29 -29 100 -29h234q71 0 100 29q22 25 22 86v504q0 61 -22 86q-28 28 -100 28h-234q-72 0 -100 -28q-23 -26 -23 -86v-504z" />
<glyph unicode="&#x153;" horiz-adv-x="1695" d="M86 332v350q0 169 82 254q87 90 283 90h172q161 0 233 -90q72 90 234 90h151q196 0 283 -90q82 -85 82 -254v-190q0 -51 -24 -74t-81 -23h-502v-73q0 -51 19 -70t78 -19h127q88 0 147.5 17t118.5 55l119 -194q-145 -123 -369 -123h-149q-165 0 -234 90q-69 -90 -233 -90 h-172q-196 0 -283 90q-82 85 -82 254zM371 338q0 -52 18 -70t78 -18h151q60 0 78 18q19 19 19 70v338q0 50 -19 69t-78 19h-151q-59 0 -78 -19q-18 -18 -18 -69v-338zM999 616h326v76q0 52 -18 70t-78 18h-133q-60 0 -78 -18q-19 -19 -19 -70v-76z" />
<glyph unicode="&#x178;" d="M16 1270h338l262 -561l265 561h331l-430 -819q-16 -31 -16 -66v-385h-303v385q0 33 -17 66zM199 1583q0 70 44 115t115 45q72 0 117 -45.5t45 -114.5t-45 -114.5t-117 -45.5q-71 0 -115 45t-44 115zM709 1583q0 70 44 115t115 45q72 0 117 -45.5t45 -114.5t-45 -114.5 t-117 -45.5q-71 0 -115 45t-44 115z" />
<glyph unicode="&#x2c6;" horiz-adv-x="942" d="M68 1137l268 368q22 30 41.5 38.5t54.5 8.5h78q35 0 54.5 -8.5t41.5 -38.5l268 -368h-272l-131 204l-131 -204h-272z" />
<glyph unicode="&#x2dc;" horiz-adv-x="942" d="M47 1325l123 94q57 44 93 60t83 16q43 0 89 -22.5t85 -45t64 -22.5q16 0 47 16l137 76l127 -176l-123 -94q-57 -44 -93 -60t-83 -16q-43 0 -89 22.5t-85 45t-64 22.5q-16 0 -47 -16l-137 -76z" />
<glyph unicode="&#x2000;" horiz-adv-x="951" />
<glyph unicode="&#x2001;" horiz-adv-x="1903" />
<glyph unicode="&#x2002;" horiz-adv-x="951" />
<glyph unicode="&#x2003;" horiz-adv-x="1903" />
<glyph unicode="&#x2004;" horiz-adv-x="634" />
<glyph unicode="&#x2005;" horiz-adv-x="475" />
<glyph unicode="&#x2006;" horiz-adv-x="317" />
<glyph unicode="&#x2007;" horiz-adv-x="317" />
<glyph unicode="&#x2008;" horiz-adv-x="237" />
<glyph unicode="&#x2009;" horiz-adv-x="380" />
<glyph unicode="&#x200a;" horiz-adv-x="105" />
<glyph unicode="&#x2010;" horiz-adv-x="788" d="M94 367v262h600v-262h-600z" />
<glyph unicode="&#x2011;" horiz-adv-x="788" d="M94 367v262h600v-262h-600z" />
<glyph unicode="&#x2012;" horiz-adv-x="788" d="M94 367v262h600v-262h-600z" />
<glyph unicode="&#x2013;" horiz-adv-x="1024" d="M0 375v254h1024v-254h-1024z" />
<glyph unicode="&#x2014;" horiz-adv-x="2048" d="M0 375v254h2048v-254h-2048z" />
<glyph unicode="&#x2018;" horiz-adv-x="544" d="M100 838q0 78 66 233l76 180q9 21 23.5 27t39.5 0l64 -16q39 -9 28 -50l-37 -127q-16 -54 -16 -81q0 -32 34 -80.5t34 -94.5q0 -62 -40.5 -101.5t-111.5 -39.5q-74 0 -117 41t-43 109z" />
<glyph unicode="&#x2019;" horiz-adv-x="532" d="M121 1141q0 62 40 101.5t111 39.5q74 0 117 -40.5t43 -108.5q0 -82 -65 -234l-76 -180q-16 -39 -64 -27l-63 17q-40 9 -29 49l37 127q16 54 16 82q0 22 -10.5 43.5t-23 36t-23 39.5t-10.5 55z" />
<glyph unicode="&#x201a;" horiz-adv-x="532" d="M111 51q0 62 40 102t111 40q74 0 117 -41t43 -109q0 -78 -66 -233l-75 -181q-16 -38 -64 -26l-63 16q-40 9 -29 49l37 127q16 54 16 82q0 22 -10.5 43.5t-23 36t-23 39.5t-10.5 55z" />
<glyph unicode="&#x201c;" horiz-adv-x="968" d="M100 838q0 78 66 233l76 180q9 21 23.5 27t39.5 0l64 -16q39 -9 28 -50l-37 -127q-16 -54 -16 -81q0 -32 34 -80.5t34 -94.5q0 -62 -40.5 -101.5t-111.5 -39.5q-74 0 -117 41t-43 109zM537 838q0 81 65 233l76 180q9 21 23.5 27t39.5 0l64 -16q40 -9 29 -50l-37 -127 q-17 -57 -17 -81q0 -32 34 -80.5t34 -94.5q0 -62 -40.5 -101.5t-111.5 -39.5q-74 0 -116.5 41t-42.5 109z" />
<glyph unicode="&#x201d;" horiz-adv-x="968" d="M121 1141q0 62 40 101.5t111 39.5q74 0 117 -40.5t43 -108.5q0 -82 -65 -234l-76 -180q-16 -39 -64 -27l-63 17q-40 9 -29 49l37 127q16 54 16 82q0 22 -10.5 43.5t-23 36t-23 39.5t-10.5 55zM557 1141q0 62 40.5 101.5t111.5 39.5q74 0 116.5 -40.5t42.5 -108.5 q0 -82 -65 -234l-76 -180q-9 -21 -23.5 -27t-39.5 0l-64 17q-40 9 -29 49l37 127q17 57 17 82q0 28 -17 53t-34 54.5t-17 66.5z" />
<glyph unicode="&#x201e;" horiz-adv-x="968" d="M111 49q0 62 40 101.5t111 39.5q74 0 117 -40.5t43 -108.5q0 -79 -66 -234l-75 -180q-16 -38 -64 -26l-63 16q-40 9 -29 49l37 127q16 54 16 82q0 22 -10.5 43.5t-23 36t-23 39.5t-10.5 55zM547 49q0 62 40 101.5t111 39.5q74 0 117 -40.5t43 -108.5q0 -82 -65 -234 l-76 -180q-16 -38 -64 -26l-63 16q-40 9 -29 49l37 127q16 54 16 82q0 22 -10.5 43.5t-23 36t-23 39.5t-10.5 55z" />
<glyph unicode="&#x2022;" horiz-adv-x="794" d="M123 608q0 124 77.5 198.5t198.5 74.5t199 -74.5t78 -198.5t-78.5 -200t-198.5 -76t-198 76t-78 200z" />
<glyph unicode="&#x2026;" horiz-adv-x="1585" d="M100 150q0 71 47.5 117t114.5 46q69 0 116.5 -46t47.5 -117q0 -72 -47.5 -117t-116.5 -45q-68 0 -115 45t-47 117zM629 150q0 71 47.5 117t114.5 46q69 0 116 -46t47 -117q0 -72 -47 -117t-116 -45q-68 0 -115 45t-47 117zM1157 150q0 71 47.5 117t114.5 46 q69 0 116.5 -46t47.5 -117q0 -72 -47.5 -117t-116.5 -45q-68 0 -115 45t-47 117z" />
<glyph unicode="&#x202f;" horiz-adv-x="380" />
<glyph unicode="&#x2039;" horiz-adv-x="794" d="M78 498v45q0 31 8.5 47t32.5 37l411 336l162 -209l-301 -234l301 -233l-162 -209l-411 336q-24 21 -32.5 37t-8.5 47z" />
<glyph unicode="&#x203a;" horiz-adv-x="794" d="M102 287l301 233l-301 234l162 209l412 -336q24 -21 32.5 -37t8.5 -47v-45q0 -33 -7.5 -48t-33.5 -36l-412 -336z" />
<glyph unicode="&#x205f;" horiz-adv-x="475" />
<glyph unicode="&#x20ac;" d="M90 420v174h137v82h-137v174h137v61q0 175 84 265q100 106 344 106h64q266 0 411 -152l-129 -212q-62 42 -133 62.5t-174 20.5h-41q-72 0 -100 -28q-23 -26 -23 -86v-37h263v-174h-263v-82h263v-174h-263v-37q0 -60 23 -86q29 -29 100 -29h58q102 0 173.5 21t133.5 63 l129 -213q-144 -151 -412 -151h-82q-242 0 -342 106q-84 90 -84 264v62h-137z" />
<glyph unicode="&#x2122;" horiz-adv-x="1624" d="M53 1055v215h623v-215h-193v-510h-235v510h-195zM762 545v686q0 23 9.5 31t31.5 8h106q23 0 35 -7t27 -30l159 -246l164 250q21 33 64 33h96q27 0 35 -7.5t8 -31.5v-686h-219v293l-57 -86q-13 -22 -27 -29.5t-37 -7.5h-59q-40 0 -62 37l-57 86v-293h-217z" />
<glyph unicode="&#xe000;" horiz-adv-x="1013" d="M0 0v1014h1014v-1014h-1014z" />
</font>
</defs>
</svg>
