<?xml version="1.0" standalone="no"?>
<!DOCTYPE svg PUBLIC "-//W3C//DTD SVG 1.1//EN" "http://www.w3.org/Graphics/SVG/1.1/DTD/svg11.dtd">
<svg xmlns="http://www.w3.org/2000/svg">
<metadata>Generated by Fontastic.me</metadata>
<defs>
<font id="repsol-font-4" horiz-adv-x="512">
<font-face font-family="repsol-font-4" units-per-em="512" ascent="480" descent="-32"/>
<missing-glyph horiz-adv-x="512" />

<glyph unicode="&#98;" d="M495 0l-64 0c-9 0-16 7-16 16 0 9 7 16 16 16l64 0c9 0 16-7 16-16 0-9-7-16-16-16m-128 0l-350 0c-9 0-16 7-16 16 0 9 7 16 16 16l350 0c9 0 16-7 16-16 0-9-7-16-16-16m-40 445c-65 0-119-54-119-119 0-7 1-15 2-22l-144-144 0-67c0-17 13-29 30-29l32 1 0 30 33 0 0 32 31 0 0 32 32 0 0 32 31 0 32 23c12-4 26-7 40-7 66 0 119 53 119 119 0 65-53 119-119 119z m36-119c-20 0-36 16-36 35 0 20 16 36 36 36 19 0 35-16 35-36 0-19-16-35-35-35z"/>
<glyph unicode="&#99;" d="M220 372c-32-6-55-29-68-70-6-20-9-39-9-59 0-2 0-4 0-6 0-2 1-5 1-11l76 0 0-152-149 0 0 140c0 69 14 122 42 160 27 37 63 58 107 64z m221 0c-26-4-45-18-59-43-13-25-20-53-20-85 0-3 0-6 1-9 0-2 0-5 1-9l77 0 0-152-150 0 0 140c0 56 12 105 35 149 23 43 61 68 115 75z"/>
<glyph unicode="&#100;" d="M292 140c32 6 55 29 68 70 6 20 9 39 9 59 0 2 0 4 0 6 0 2-1 5-1 11l-76 0 0 152 149 0 0-140c0-69-14-122-42-160-27-37-63-58-107-64z m-221 0c26 4 45 18 59 43 13 25 20 53 20 85 0 3 0 6-1 9 0 2 0 5-1 9l-77 0 0 152 150 0 0-140c0-56-12-105-35-149-23-43-61-68-115-75z"/>
<glyph unicode="&#101;" d="M495 0l-64 0c-9 0-16 7-16 16 0 9 7 16 16 16l64 0c9 0 16-7 16-16 0-9-7-16-16-16m-128 0l-350 0c-9 0-16 7-16 16 0 9 7 16 16 16l350 0c9 0 16-7 16-16 0-9-7-16-16-16m-1 283l-223 0c-9 0-16 7-16 16 0 9 7 16 16 16l223 0c9 0 16-7 16-16 0-9-7-16-16-16z m77 130c-8 20-26 33-48 33l-280 0c-28 0-51-23-51-51l0-216c0-21 12-39 30-46 7-3 14-5 21-5l13 0 0-97 96 97 171 0c28 0 51 23 51 51l0 216c0 6-1 13-3 18z m-77-62l-223 0c-9 0-16 7-16 16 0 8 7 16 16 16l223 0c9 0 16-8 16-16 0-9-7-16-16-16z m-63-132l-160 0c-9 0-16 7-16 16 0 9 7 16 16 16l160 0c9 0 16-7 16-16 0-9-7-16-16-16z"/>
<glyph unicode="&#53;" d="M506 259c0-140-113-253-253-253-140 0-253 113-253 253 0 140 113 253 253 253 140 0 253-113 253-253z m-123 82l-48 48c-4 5-12 5-16 0l-66-66-65 66c-5 5-12 5-17 0l-48-48c-5-5-5-12 0-17l66-65-66-66c-5-4-5-12 0-16l48-49c5-4 12-4 17 0l65 66 66-65c4-5 12-5 16 0l48 48c5 4 5 12 0 16l-65 66 65 65c5 5 5 12 0 17z"/>
<glyph unicode="&#48;" d="M495 0l-64 0c-9 0-16 7-16 16 0 9 7 16 16 16l64 0c9 0 16-7 16-16 0-9-7-16-16-16m-128 0l-350 0c-9 0-16 7-16 16 0 9 7 16 16 16l350 0c9 0 16-7 16-16 0-9-7-16-16-16m-232 318l77 0 0 121c0 4 4 8 8 8l74 0c5 0 8-4 8-8l0-121 77 0c5 0 6-3 3-6l-120-162c-3-3-7-3-9 0l-121 162c-2 3-1 6 3 6z m248-302l-255 0 0 112 255 0z m-95 48l64 0 0 32-64 0z"/>
<glyph unicode="&#122;" d="M440 440l-93 0c-22 0-52-13-68-28l-156-156c-15-15-15-41 0-56l116-117c16-15 41-15 57 0l156 156c15 16 28 47 28 68l0 93c0 22-18 40-40 40z m-53-133c-22 0-40 18-40 40 0 22 18 40 40 40 22 0 40-18 40-40 0-22-18-40-40-40z m-322-89l142-142c-15-7-35-5-47 7l-116 117c-16 15-16 40 0 56l156 156c15 15 46 28 68 28l-203-203c-5-5-5-13 0-19z"/>
<glyph unicode="&#55;" d="M445 278l-182-244c-4-5-10-5-14 0l-182 244c-4 5-2 10 4 10l117 0 0 182c0 6 6 12 12 12l112 0c6 0 12-6 12-12l0-182 117 0c6 0 8-5 4-10z"/>
<glyph unicode="&#52;" d="M278 67l-244 182c-5 4-5 10 0 14l244 182c5 4 10 2 10-4l0-117 182 0c6 0 12-6 12-12l0-112c0-6-6-12-12-12l-182 0 0-117c0-6-5-8-10-4z"/>
<glyph unicode="&#115;" d="M224 71l0 117-182 0c-6 0-12 6-12 12l0 112c0 6 6 12 12 12l182 0 0 117c0 6 5 8 10 4l244-182c5-4 5-10 0-14l-244-182c-5-4-10-2-10 4z"/>
<glyph unicode="&#56;" d="M441 224l-117 0 0-182c0-6-6-12-12-12l-112 0c-6 0-12 6-12 12l0 182-117 0c-6 0-8 5-4 10l182 244c4 5 10 5 14 0l182-244c4-5 2-10-4-10z"/>
<glyph unicode="&#103;" d="M495 0l-65 0c-8 0-15 7-15 16 0 9 7 16 15 16l65 0c9 0 15-7 15-16 0-9-6-16-15-16m-115 198l-147 148c-5 5-13 5-18 0l-145-148c-3-2-4-5-4-9l0-58 0 0 0-99-52 0c-6 0-12-7-12-16 0-9 6-16 15-16l4 0c1 0 1 0 1 0l312 0c8 0 19 5 25 12l14 15c6 6 10 17 10 26l0 136c0 4-1 7-3 9m-138-7l52 0 0-159-52 0z m-88 0l52 0 0-159-52 0z m267 36l-186 183c-6 6-16 6-22 0l-182-183c-3-3-4-7-4-12 0-4 1-8 4-11 3-3 7-4 12-4 4 0 8 1 11 4l170 172 174-172c6-6 17-6 23 0 3 3 4 7 4 11 0 5-1 9-4 12"/>
<glyph unicode="&#57;" d="M425 345l9 0 0-303c0-5-4-9-9-9l-330 0c-5 0-9 4-9 9l0 422c0 5 4 9 9 9l211 0 0-119c0-5 4-9 9-9z m3 24l-97 97-7 7 0-101c0-5 5-9 10-9l100 0z m-78-219l11 15 0 33-47 0-9 4 56 67 0 2-65 0-36-36-37 36-82 0 0-13 64-58-64-63 0-12 238 0 0 1z m-48-19c-1-1-2-1-3-1-1 0-2 0-3 1l-134 134c-2 1-2 4 0 6 2 2 4 2 6 0l134-134c2-2 2-4 0-6z"/>
<glyph unicode="&#65;" d="M420 350l9 0 0-299c0-5-4-9-9-9l-326 0c-5 0-9 4-9 9l0 417c0 5 4 9 9 9l208 0 0-118c0-5 4-9 9-9l109 0z m2 24l-95 96-7 7 0-100c0-5 4-9 9-9l100 0z m-57-70l-216 0c-5 0-9-3-9-8l0-178c0-4 4-8 9-8l216 0c5 0 8 4 8 8l0 178c0 5-3 8-8 8z m-11-112l-34 35c0 0-10 9-19 9-10 0-19-9-19-9 0 0-25-30-35-39 15-7 39-45 21-34-18 11-50 24-50 24l-59-39 0 146 195 0 0-93z m-177 54c0 12 10 21 21 21 12 0 22-9 22-21 0-12-10-21-22-21-11 0-21 9-21 21z"/>
<glyph unicode="&#66;" d="M423 351l9 0 0-300c0-5-4-9-9-9l-328 0c-5 0-9 4-9 9l0 419c0 5 4 9 9 9l210 0 0-118c0-5 4-10 9-10l109 0z m3 25l-103 103 0-100c0-5 4-9 9-9l100 0z m-132-101l6-31 23 0-18-60 0 0-18 91-43 0-19-91 0 0-19 91-47 0 42-164 47 0 17 110 0 0 17-110 47 0 43 164z"/>
<glyph unicode="&#120;" d="M421 351l9 0 0-300c0-5-4-9-9-9l-327 0c-5 0-9 4-9 9l0 418c0 5 4 9 9 9l209 0 0-118c0-5 4-9 9-9z m2 24l-96 97-6 6 0-100c0-5 4-9 9-9l100 0z m-217-62c0 0-4 35-26 31-23-3-8-31-3-41 3-5 14-27 30-51 3 39 0 57-1 61z m-84-191c10-14 27-5 39 13 5 7 12 14 18 24-37-13-65-26-57-37z m249 60c-18 2-53 2-89-1 51-23 87-27 100-24 14 3 21 22-11 25z m-164 70c0-6-1-13-2-20-3-34-15-57-26-73 10 3 20 7 30 10 21 6 47 10 73 12-1 1-1 1-2 1-28 13-54 43-73 70z"/>
<glyph unicode="&#105;" d="M319 448l0-129 129 0c9 0 16-7 16-16l0-94c0-9-7-16-16-16l-129 0 0-129c0-9-7-16-16-16l-94 0c-9 0-16 7-16 16l0 129-129 0c-9 0-16 7-16 16l0 94c0 9 7 16 16 16l129 0 0 129c0 9 7 16 16 16l94 0c9 0 16-7 16-16z"/>
<glyph unicode="&#106;" d="M495 0l-64 0c-9 0-16 7-16 16 0 9 7 16 16 16l64 0c9 0 16-7 16-16 0-9-7-16-16-16m-233 0c9 0 16 7 16 16 0 9-7 16-16 16l-245 0c-9 0-16-7-16-16 0-9 7-16 16-16m393 229c0 120-125 153-125 153 0 0 20-11 17-19-2-8 6-16 6-16 0 0 14-4 20-14 6-10-4-5-14-1-11 3 0-10 0-10 0 0 10-2 16-5 6-4 8-7 6-11-3-3-11-8-1-15 10-8 12 4 13 12 0 8 5 6 5 6 21-15 28 3 28 3l8-13c-7 5-15-12-15-12-5 7-15 7-15 7-20-6-22-34-22-34 0 0-4-37 2-47 6-11 21-21 35-7 13 15 16-4 16-22 1-39-13-49-13-49-1-11-5-22-5-22 43 42 38 116 38 116z m-166 145c4-1 6-8 6-8 0 0 2-11 3-14 1-2 12-7 11 0 0 8 6 10 6 10 0 0 8-4 8 9 0 13-21 18-21 18-5 2-7-4-13-4-6-1-4-10 0-11z m41-207c0 0-14-4-31 17-17 21-52 27-54 27-1 0-13-1-16-6-4-4-12 3-14 7-3 5-4 11-9 13-6 3 1 14 1 14 0 0-1 9-10 2-9-7-11 0-10 6 1 7 9 18 17 18 7 0 16-5 16-10 0-6-1-16 5-17 5-2 10 4 8 9-2 6-6 16-4 19 3 3 9 7 30 26 0 0 11 2 16 2 5 0 3 7-5 7-8 0-5 9 5 9 10 1 14 4 10 11-5 7-9 12-18 14-10 3-11-7-13-9-1-3-4-12-11-2-7 11-5 12 0 14 6 3 13 7 20 8 7 1 12 8 6 10-6 1-11-2-15-4-3-3-16 5-16 13 0 0-1 5-11 6-10 0-19-14-20-17-1-3-13-21-23-29-9-8-15-34-17-39-3-8-4-29-3-31 6-16 23-33 35-42 13-9 19-13 23-16 4-3 5-7 0-11-6-3-7-19-6-21 0-3 4-17 22-34 0 0 12-7 11-15-2-8-3-19 0-31 3-11 6-15 9-18 3-2 8 5 10 11 2 7 13 13 19 13 5 0 22 19 22 22 1 3 13 2 13 2 0 0 9 12 8 16-1 4 6 14 7 16 2 2 13 13-7 20z m-28-167c-9 0-16 7-16 16 0 9 7 16 16 16 48 0 95 18 131 52 39 37 60 86 60 140 0 106-86 192-191 192-106 0-192-86-192-192 0-9-7-16-16-16-9 0-16 7-16 16 0 123 100 224 224 224 123 0 223-101 223-224 0-62-25-121-70-163-42-39-96-61-153-61z"/>
<glyph unicode="&#107;" d="M495 0l-64 0c-9 0-16 7-16 16 0 9 7 16 16 16l64 0c9 0 16-7 16-16 0-9-7-16-16-16m-24 303l-14 13c-6 5-16 9-25 9l-48 0 0 136c0 9-7 16-16 16l-223 0c-9 0-17-7-17-16l0-136-26 0c-38 0-70-29-70-66l0-77c0-8 5-18 11-24l14-13c6-6 16-10 24-10l47 0 0-57c0-9 8-16 17-16l223 0c9 0 16 7 16 16l0 57 84 0c7 0 13 7 13 14l0 129c0 9-4 19-10 25m-119-209l-192 0 0 92 192 0 0-92z m0 231l-192 0 0 120 192 0 0-120z m66-80c-9 0-16 6-16 15 0 9 7 15 16 15 8 0 15-6 15-15 0-9-7-15-15-15m-51-245c9 0 16 7 16 16 0 9-7 16-16 16l-350 0c-9 0-16-7-16-16 0-9 7-16 16-16"/>
<glyph unicode="&#108;" d="M495 0l-64 0c-9 0-16 7-16 16 0 9 7 16 16 16l64 0c9 0 16-7 16-16 0-9-7-16-16-16m-128 0l-350 0c-9 0-16 7-16 16 0 9 7 16 16 16l350 0c9 0 16-7 16-16 0-9-7-16-16-16m-111 447c-64 0-116-52-116-116 0-17 8-40 8-40 1-4 4-11 6-15l99-209c1-4 4-4 6 0l99 209c2 4 5 11 6 15 0 0 8 23 8 40 0 64-52 116-116 116z m0-166c-28 0-50 22-50 50 0 28 22 50 50 50 28 0 50-22 50-50 0-28-22-50-50-50z"/>
<glyph unicode="&#109;" d="M495 0l-64 0c-9 0-16 7-16 16 0 9 7 16 16 16l64 0c9 0 16-7 16-16 0-9-7-16-16-16m-128 0l-350 0c-9 0-16 7-16 16 0 9 7 16 16 16l350 0c9 0 16-7 16-16 0-9-7-16-16-16m-93 228c0 0-9-8-18-8-9 0-21 10-21 10l-142 101 0-138c0-11 9-20 21-20l284 0c11 0 21 9 21 20l0 136z m-84 15l-70-56c-1-1-2-1-2-1-1 0-2 0-3 1-1 2-1 4 1 5l70 56c2 1 4 1 5 0 1-2 1-4-1-5z m207-56c-1-1-2-1-3-1-1 0-1 0-2 1l-71 56c-1 1-2 3 0 5 1 1 3 1 4 0l71-56c2-1 2-3 1-5z m-143 47c8 0 17 7 17 7l148 105 0 0c0 7-2 19-19 19l-282 0c-19 0-26-9-26-17l1-1 143-104c0 0 10-9 18-9z"/>
<glyph unicode="&#117;" d="M495 0l-64 0c-9 0-16 7-16 16 0 9 7 16 16 16l64 0c9 0 16-7 16-16 0-9-7-16-16-16m-128 0l-350 0c-9 0-16 7-16 16 0 9 7 16 16 16l350 0c9 0 16-7 16-16 0-9-7-16-16-16m-5 197c-13 0-25-5-34-13l-93 55c2 5 2 11 2 16 0 6-1 12-2 17l93 55c9-9 21-14 34-14 28 0 51 23 51 51 0 28-23 51-51 51-28 0-51-23-51-51 0-4 1-8 2-12l-91-54c-13 17-33 28-56 28-39 0-70-32-70-71 0-39 31-71 70-71 23 0 44 11 57 29l90-54c-1-4-2-8-2-13 0-28 23-50 51-50 28 0 51 22 51 50 0 28-23 51-51 51z"/>
<glyph unicode="&#116;" d="M495 0l-64 0c-9 0-16 7-16 16 0 9 7 16 16 16l64 0c9 0 16-7 16-16 0-9-7-16-16-16m-143 0c9 0 16 7 16 16 0 9-7 16-16 16l-335 0c-9 0-16-7-16-16 0-9 7-16 16-16m334 446l-192 0c-16 0-31-14-31-31l0-383c0-16 10-32 31-32l192 0c18 0 32 15 32 32l0 383c0 17-16 31-32 31z m-94-414c-19 0-33 14-33 33 0 18 14 33 33 33 18 0 33-15 33-33 0-19-15-33-33-33z m-97 96l0 287 191 0 0-287z"/>
<glyph unicode="&#114;" d="M474 429l0-346c0-25-20-45-45-45l-100 0 0 182 54 0 0 54-54 0 0 31c0 16 5 24 29 24l25 0 0 73c0 0-18 0-72 0-55 0-55-55-55-73 0-18 0-55 0-55l-36 0 0-54 36 0 0-182-173 0c-25 0-45 20-45 45l0 346c0 25 20 45 45 45l346 0c25 0 45-20 45-45z"/>
<glyph unicode="&#113;" d="M136 174c-3 2-7 5-7 11l0 19c0 0-2 0-4 0-19 0-77 4-87 64l0-134c31 27 85 30 107 30-1 6-6 8-9 10z m11 58c3 0 5 1 8 1 24 7 37 41 27 76-8 30-30 52-53 52-3 0-5 0-8-1-12-3-21-13-26-27-5-14-6-31-1-48 8-31 30-53 53-53z m282 242l-346 0c-25 0-45-20-45-45l0-123c13 76 109 77 110 77l108 0 0 0c0-12-17-15-32-16-3-1-8-2-11-2 25-15 28-38 28-70 0-37-22-55-37-68-10-8-18-14-18-22 0-8 11-17 23-27 21-17 50-40 50-80 0-25-7-45-22-60l192 0c25 0 45 20 45 45l0 346c0 25-20 45-45 45z m27-182l-73 0 0-72-18 0 0 72-73 0 0 19 73 0 0 72 18 0 0-72 73 0z m-311-152c-3 0-5 0-8 0-20-1-39-8-53-20-13-11-20-25-19-40 1-18 16-34 36-42l74 0c27 10 44 30 42 53-1 28-33 49-72 49z"/>
<glyph unicode="&#112;" d="M429 474l-346 0c-25 0-45-20-45-45l0-346c0-25 20-45 45-45l346 0c25 0 45 20 45 45l0 346c0 25-20 45-45 45z m-151-298c-14 0-29 6-38 14-6-17-14-41-15-46-6-22-23-45-30-54-2-2-4-3-6-3-4 0-7 3-8 6-3 25-3 47 1 64 3 12 24 84 28 97-2 4-5 13-5 26 0 26 16 47 36 47 17 0 28-12 28-30 0-10-4-23-8-36-3-7-5-15-7-22-1-6 0-12 4-17 3-5 10-7 16-7 26 0 46 34 46 80 0 35-24 56-62 56-48 0-74-37-74-72 0-11 3-20 10-28 4-4 5-7 3-14l-3-12c-1-6-5-9-11-9-1 0-3 0-4 1-23 9-37 34-37 66 0 53 45 107 121 107 67 0 107-50 107-98 0-67-39-116-92-116z"/>
<glyph unicode="&#111;" d="M429 474l-346 0c-25 0-45-20-45-45l0-346c0-25 20-45 45-45l346 0c25 0 45 20 45 45l0 346c0 25-20 45-45 45z m-45-231c-2-14-11-36-34-60-42-41-101-50-122-50-22 0-90 3-137 68 0 0 62-56 124 3-29-4-31 22-11 26-30 1-35 11-39 20-3 8 10 9 21 10-21 7-37 20-36 33 2 5 19 0 18 4-1 4-32 17-26 42 28-14 75-22 110-59 11 31 29 71 48 79 20 9 36 7 40-2 5-8-26-15-26-15 36 3 62-30 69-61 17-10 39-1 39-1 0 0-5-17-33-19-4-1 15-5 35-3-10-14-29-15-40-15z"/>
<glyph unicode="&#110;" d="M429 474l-346 0c-25 0-45-20-45-45l0-346c0-25 20-45 45-45l346 0c25 0 45 20 45 45l0 346c0 25-20 45-45 45z m-142-89l26 0 0-84c0-2 1-3 1-3 0 0 0 0 0 0 1 0 2 0 4 2 2 1 3 2 4 3l0 82 27 0 0-111-27 0 0 6c-1-2-3-3-5-4-5-3-9-4-13-4-6 0-10 2-13 6-3 4-4 9-4 16l0 91z m-18-6c6-6 8-13 8-22l0-54c0-10-2-18-8-23-6-6-14-9-23-9-10 0-17 3-23 9-6 6-9 14-9 23l0 54c0 9 3 17 9 22 6 5 14 8 24 8 9 0 16-3 22-8z m-98 41l12-44 11 44 35 0-28-100 0-46-36 0 0 46-28 100z m212-273c0-30-24-55-54-55l-146 0c-30 0-54 25-54 55l0 54c0 30 24 55 54 55l146 0c30 0 54-25 54-55z m-141 150c0 1-1 3-1 4l0 57c0 1 1 2 1 3 1 0 2 1 4 1 1 0 3 0 3-1 1-1 2-2 2-3l0-57c0-1-1-3-2-4 0 0-1-1-3-1-2 0-3 1-4 1z m-14-96l14 0 0-72-14 0 0 8c-3-3-5-5-8-7-3-1-6-2-8-2-4 0-6 1-8 3-1 2-2 6-2 10l0 60 14 0 0-54c0-2 0-4 1-4 0-1 1-2 3-2 1 0 2 1 4 2 1 1 3 3 4 4l0 54z m116-3c3-4 5-7 5-14l0-19-27 0 0-14c0-4 0-7 1-9 1-1 3-2 5-2 3 0 4 1 5 2 1 1 1 4 1 9l0 5 15 0 0-6c0-7-2-13-5-17-4-4-9-6-16-6-6 0-11 2-15 6-4 4-5 10-5 17l0 34c0 7 2 9 6 13 3 4 9 6 15 6 6 0 11-2 15-5z m-10-17c0 3 0 6-1 7-1 1-3 2-5 2-2 0-4-1-5-2 0-1-1 0-1-4l0-7 12 0z m-41 17c3-4 4-8 4-15l0-38c0-6-1-10-3-13-3-3-6-4-10-4-3 0-5 1-7 2-3 1-5 2-6 5l0-6-15 0 0 89 15 0 0-23c2 3 4 4 6 6 2 1 4 1 6 1 5 0 8-1 10-4z m-11-15c0 2 0 4-1 5-1 2-3 2-4 2-1 0-2 0-3 0-1-1-2-2-3-3l0-44c1-1 2-2 3-2 1-1 2-1 3-1 2 0 3 0 4 1 1 2 1 3 1 6l0 36z m-83 21l-16 0 0-75-16 0 0 75-16 0 0 14 48 0z"/>
<glyph unicode="&#97;" d="M495 0l-64 0c-9 0-16 7-16 16 0 9 7 16 16 16l64 0c9 0 16-7 16-16 0-9-7-16-16-16m-128 0c9 0 16 7 16 16 0 9-7 16-16 16l-350 0c-9 0-16-7-16-16 0-9 7-16 16-16m344 252l-51 0 0 51c0 8-6 14-14 14-8 0-14-6-14-14l0-51-51 0c-7 0-14-6-14-13 0-8 7-14 14-14l51 0 0-51c0-8 6-14 14-14 8 0 14 6 14 14l0 51 51 0c8 0 14 6 14 14 0 7-6 13-14 13m87-13c0 83-68 151-152 151-84 0-152-68-152-151 0-84 68-152 152-152 84 0 152 68 152 152m-28 0c0-69-56-124-124-124-68 0-124 55-124 124 0 68 56 123 124 123 68 0 124-55 124-123m-253-207l48 47c-17 8-32 19-46 33-13 14-24 29-32 45l-56-56c-19-19-21-48-7-69"/>
<glyph unicode="&#49;" d="M111 96c-5 5-5 14 0 19l131 131c6 6 6 14 0 20l-132 132c-5 5-5 14 0 19l61 60c5 6 14 6 19 0l105-105c5-5 14-14 19-19l88-87c5-6 5-14 0-19l-212-212c-5-6-14-6-19 0z"/>
<glyph unicode="&#50;" d="M341 35c-5-6-14-6-19 0l-212 212c-5 5-5 13 0 19l88 87c5 5 14 14 19 19l105 105c5 6 14 6 19 0l61-60c5-5 5-14 0-19l-133-132c-5-6-5-14 0-20l132-131c5-5 5-14 0-19z"/>
<glyph unicode="&#119;" d="M477 341c6-5 6-14 0-19l-212-212c-5-5-13-5-19 0l-87 88c-5 5-14 14-19 19l-105 105c-6 5-6 14 0 19l60 61c5 5 14 5 19 0l132-133c6-5 14-5 20 0l131 132c5 5 14 5 19 0z"/>
<glyph unicode="&#51;" d="M313 21l55 56-91 91c-3 3-3 8 0 11l53 54c3 3 8 3 11 0l92-91 55 55c3 3 6 2 7-2l25-199c1-4-2-7-6-6l-199 25c-4 0-5 3-2 6z m-111 470l-199 25c-4 1-7-2-6-6l25-199c1-4 4-5 6-2l56 55 91-91c3-3 8-3 11 0l54 54c3 3 3 8 0 11l-91 91 55 56c3 2 2 5-2 6z m-175-292l56-56 91 91c3 3 8 3 11 0l53-53c3-3 3-8 0-11l-91-91 56-56c3-3 2-6-3-6l-198-26c-4 0-7 3-7 7l25 199c1 4 4 5 7 2z m469 110l26 199c0 4-3 7-7 7l-199-26c-4 0-5-3-2-6l56-56-91-91c-3-3-3-8 0-11l53-54c3-2 8-3 11 0l91 92 56-56c3-3 6-2 6 2z"/>
<glyph unicode="&#102;" d="M494 32l-65 0c-9 0-16-7-16-16 0-9 7-16 16-16l65 0c8 0 15 7 15 16 0 9-7 16-15 16m-1 211l-72 0 82 58c7 5 9 15 4 22l-38 53-43 62c-24 34-66 47-102 35-12-3-28-15-28-15l0-1-43-29-37-26-75-53-78 0c-15 0-28-12-28-26l0-7-6 0c-15 0-27-11-27-26l0-264c0-14 12-26 27-26l350 0c8 0 15 4 20 10 1 0 1 1 2 1 0 1 1 1 1 2 0 0 0 0 1 1l0 1c1 1 1 2 2 4l93 215c3 5 1 9-5 9m-357 0c-6 0-12-4-14-9l-88-201 0 252 33 0 0 32 35 0c-1-4 0-9 3-13l43-61z m171-151l-9-58-43 27-61-27 28 58-29 41 61 8 42 53 10-53 56-8z m71 159l-11-8-181 0-47 67 95 66 37 27 47 33 1 1c24 17 63 9 81-17l43-62 30-41z"/>
<glyph unicode="&#54;" d="M495 0l-63 0c-9 0-16 8-16 16 0 9 7 16 16 16l63 0c9 0 16-7 16-16 0-8-7-16-16-16m-128 0c8 0 16 7 16 16 0 9-8 16-16 16l-350 0c-9 0-16-7-16-16 0-9 7-16 16-16m333 264l0 30c0 43-37 77-83 77l-2 0 0-92c28 0 60-4 85-15z m-95-4c-40-1-76-10-96-24l0-96c0-43 38-77 84-77l24 0c46 0 83 34 83 77l0 102c-22 12-57 19-95 18z m-10 111l-2 0c-46 0-84-34-84-77l0-35c22 11 52 18 86 20z m-169-39c-2 2-3 4-3 7 0 5 4 10 10 10 30 0 36 20 43 55 7 30 14 64 50 73 22 5 40 2 54-9 25-18 27-54 27-55 1-6-4-11-9-11-6 0-10 4-11 9 0 1-2 28-19 41-9 7-22 9-37 5-23-5-29-25-35-57-4-16-7-33-16-47-10-16-26-24-47-24-3 0-6 1-7 3z m402 82c0-2-2-4-4-4l-34 0 0-35c0-2-2-3-4-3l-23 0c-2 0-4 1-4 3l0 35-34 0c-2 0-4 2-4 4l0 23c0 2 2 4 4 4l34 0 0 34c0 2 2 4 4 4l23 0c2 0 4-2 4-4l0-34 34 0c2 0 4-2 4-4l0-23z"/>
<glyph unicode="&#67;" d="M416 111c-5-5-14-5-19 0l-131 132c-6 5-14 5-20 0l-132-133c-5-5-14-5-19 0l-60 61c-6 5-6 14 0 19l105 105c5 5 14 14 19 19l87 88c6 5 14 5 19 0l212-212c6-5 6-14 0-19z"/>
<glyph unicode="&#69;" d="M144 275l71 0 0 111c0 4 3 7 7 7l68 0c4 0 7-3 7-7l0-111 71 0c4 0 5-2 3-5l-111-149c-2-3-6-3-8 0l-111 149c-2 3-1 5 3 5z m-111-220c0-12 10-22 22-22l402 0c12 0 22 10 22 22l0 402c0 12-10 22-22 22l-402 0c-12 0-22-10-22-22z"/>
<glyph unicode="&#70;" d="M144 275l71 0 0 111c0 4 3 7 7 7l68 0c4 0 7-3 7-7l0-111 71 0c4 0 5-2 3-5l-111-149c-2-3-6-3-8 0l-111 149c-2 3-1 5 3 5z m-137 148c0-3 1-4 4-4l78 0c3 0 4 1 4 4l0 78c0 3-1 4-4 4l-78 0c-3 0-4-1-4-4z"/>
<glyph unicode="&#104;" d="M403 316c4-4 4-10 0-13l-142-143c-4-3-10-3-13 0l-59 59c-4 4-9 9-13 13l-71 71c-3 3-3 9 0 13l41 40c3 4 9 4 13 0l89-89c3-3 9-3 13 0l88 89c4 3 9 3 13 0z"/>
<glyph unicode="&#118;" d="M105 201c-3 4-3 9 0 13l143 142c3 4 9 4 13 0l58-58c4-4 10-10 13-13l71-71c4-4 4-9 0-13l-41-41c-3-3-9-3-12 0l-89 89c-4 4-10 4-13 0l-89-88c-3-4-9-4-13 0z"/>
<glyph unicode="&#68;" d="M235 145l0 71-112 0c-3 0-7 4-7 7l0 69c0 4 4 7 7 7l112 0 0 71c0 4 2 5 5 3l149-111c3-3 3-6 0-9l-149-111c-3-2-5-1-5 3z"/>
<glyph unicode="&#71;" d="M498 309l-148-107 56-174-149 107-148-108 0 1 57 173-151 108 186 0 57 175 1 0 56-175z"/>
<glyph unicode="&#72;" d="M410 353l-57 57c-6 5-14 5-19 0l-78-78-78 78c-5 5-14 5-19 0l-57-57c-5-5-5-14 0-19l78-78-78-78c-5-5-5-13 0-19l57-57c6-5 14-5 20 0l77 78 77-78c6-5 14-5 20 0l57 57c5 6 5 14 0 20l-78 77 78 77c5 6 5 14 0 20z"/>
<glyph unicode="&#73;" d="M429 474l-346 0c-25 0-45-20-45-45l0-346c0-25 20-45 45-45l346 0c25 0 45 20 45 45l0 346c0 25-20 45-45 45z m-279-363c-22 0-40 18-40 39 0 22 18 40 40 40 22 0 40-18 40-40 0-21-18-39-40-39z m100-1c0 38-15 73-41 100-26 26-61 41-99 41l0 57c106 0 197-92 197-198l-57 0z m101 0c0 134-110 242-241 242l0 57c163 0 298-134 298-299z"/>
<glyph unicode="&#74;" d="M256 464c115 0 208-93 208-208 0-115-93-208-208-208-115 0-208 93-208 208 0 115 93 208 208 208m0 18c-125 0-226-101-226-226 0-125 101-226 226-226 125 0 226 101 226 226 0 125-101 226-226 226z m103-161l-38 38c-4 4-9 4-13 0l-52-52-52 52c-4 4-9 4-13 0l-38-38c-4-4-4-9 0-13l52-52-52-52c-4-4-4-9 0-13l38-38c4-4 10-4 13 0l52 52 52-52c3-4 9-4 13 0l38 38c4 4 4 10 0 13l-52 52 52 52c4 3 4 9 0 13z"/>
<glyph unicode="&#75;" d="M429 459c17 0 30-13 30-30l0-346c0-17-13-30-30-30l-346 0c-17 0-30 13-30 30l0 346c0 17 13 30 30 30l346 0m0 15l-346 0c-25 0-45-20-45-45l0-346c0-25 20-45 45-45l346 0c25 0 45 20 45 45l0 346c0 25-20 45-45 45z m-142-89l26 0 0-84c0-2 1-3 1-3 0 0 0 0 0 0 1 0 2 0 4 2 2 1 3 2 4 3l0 82 27 0 0-111-27 0 0 6c-1-2-3-3-5-4-5-3-9-4-13-4-6 0-10 2-13 6-3 4-4 9-4 16l0 91z m-10-195c-1 0-2 0-3 0-1-1-2-2-3-3l0-44c1-1 2-2 3-2 1-1 2-1 3-1 2 0 3 0 4 1 1 2 1 3 1 6l0 36c0 2 0 4-1 5-1 2-3 2-4 2z m-106 230l12-44 11 44 35 0-28-100 0-46-36 0 0 46-28 100z m98-41c-6 5-13 8-22 8-10 0-18-3-24-8-6-5-9-13-9-22l0-54c0-9 3-17 9-23 6-6 13-9 23-9 9 0 17 3 23 9 6 5 8 13 8 23l0 54c0 9-2 16-8 22z m-18-78c0-1-1-3-2-4 0 0-1-1-3-1-2 0-3 1-4 1 0 1-1 3-1 4l0 57c0 1 1 2 1 3 1 0 2 1 4 1 1 0 3 0 3-1 1-1 2-2 2-3z m78-45l-146 0c-30 0-54-25-54-55l0-54c0-30 24-55 54-55l146 0c30 0 54 25 54 55l0 54c0 30-24 55-54 55z m-130-52l-16 0 0-75-16 0 0 75-16 0 0 14 48 0z m43-75l-14 0 0 8c-3-3-5-5-8-7-3-1-6-2-8-2-4 0-6 1-8 3-1 2-2 6-2 10l0 60 14 0 0-54c0-2 0-4 1-4 0-1 1-2 3-2 1 0 2 1 4 2 1 1 3 3 4 4l0 54 14 0 0-72z m55 16c0-6-1-10-3-13-3-3-6-4-10-4-3 0-5 1-7 2-3 1-5 2-6 5l0-6-15 0 0 89 15 0 0-23c2 3 4 4 6 6 2 1 4 1 6 1 5 0 8-1 10-4 3-4 4-8 4-15l0-38z m52 20l-27 0 0-14c0-4 0-7 1-9 1-1 3-2 5-2 3 0 4 1 5 2 1 1 1 4 1 9l0 5 15 0 0-6c0-7-2-13-5-17-4-4-9-6-16-6-6 0-11 2-15 6-4 4-5 10-5 17l0 34c0 7 2 9 6 13 3 4 9 6 15 6 6 0 11-2 15-5 3-4 5-7 5-14z m-21 25c-2 0-4-1-5-2 0-1-1 0-1-4l0-7 12 0 0 4c0 3 0 6-1 7-1 1-3 2-5 2z"/>
<glyph unicode="&#76;" d="M429 459c17 0 30-13 30-30l0-346c0-17-13-30-30-30l-346 0c-17 0-30 13-30 30l0 346c0 17 13 30 30 30l346 0m0 15l-346 0c-25 0-45-20-45-45l0-346c0-25 20-45 45-45l346 0c25 0 45 20 45 45l0 346c0 25-20 45-45 45z m-45-231c-2-14-11-36-34-60-42-41-101-50-122-50-22 0-90 3-137 68 0 0 62-56 124 3-29-4-31 22-11 26-30 1-35 11-39 20-3 8 10 9 21 10-21 7-37 20-36 33 2 5 19 0 18 4-1 4-32 17-26 42 28-14 75-22 110-59 11 31 29 71 48 79 20 9 36 7 40-2 5-8-26-15-26-15 36 3 62-30 69-61 17-10 39-1 39-1 0 0-5-17-33-19-4-1 15-5 35-3-10-14-29-15-40-15z"/>
<glyph unicode="&#77;" d="M329 38l0 182 54 0 0 54-54 0 0 31c0 16 5 24 29 24l25 0 0 73c0 0-18 0-72 0-55 0-55-55-55-73 0-18 0-55 0-55l-36 0 0-54 36 0 0-182z m100 421c17 0 30-13 30-30l0-346c0-17-13-30-30-30l-346 0c-17 0-30 13-30 30l0 346c0 17 13 30 30 30l346 0m0 15l-346 0c-25 0-45-20-45-45l0-346c0-25 20-45 45-45l346 0c25 0 45 20 45 45l0 346c0 25-20 45-45 45z"/>
<glyph unicode="&#78;" d="M429 459c17 0 30-13 30-30l0-346c0-17-13-30-30-30l-346 0c-17 0-30 13-30 30l0 346c0 17 13 30 30 30l346 0m0 15l-346 0c-25 0-45-20-45-45l0-346c0-25 20-45 45-45l346 0c25 0 45 20 45 45l0 346c0 25-20 45-45 45z m-151-298c-14 0-29 6-38 14-6-17-14-41-15-46-6-22-23-45-30-54-2-2-4-3-6-3-4 0-7 2-8 6-3 25-3 47 1 63 3 13 24 85 28 98-2 4-5 13-5 26 0 26 16 47 36 47 17 0 28-12 28-30 0-10-4-23-8-36-3-7-5-15-7-22-1-6 0-12 4-17 3-5 10-7 16-7 26 0 46 34 46 80 0 35-24 56-62 56-48 0-74-37-74-72 0-11 3-20 10-28 4-4 5-7 3-14l-3-12c-1-6-5-9-11-9-1 0-3 0-4 1-23 9-37 34-37 66 0 53 45 107 121 107 67 0 107-50 107-98 0-67-39-116-92-116z"/>
<glyph unicode="&#79;" d="M482 256c0-125-101-226-226-226-125 0-226 101-226 226 0 125 101 226 226 226 125 0 226-101 226-226z m-133 67c-3 3-8 3-11 0l-76-77c-3-3-8-3-12 0l-76 77c-3 3-8 3-11 0l-36-35c-3-3-3-8 0-11l62-61c3-3 8-8 11-11l50-51c4-3 8-3 12 0l123 123c3 3 3 8 0 11z"/>
<glyph unicode="&#80;" d="M256 30c-125 0-226 101-226 226 0 125 101 226 226 226 125 0 226-101 226-226 0-125-101-226-226-226z m129 194c3 3 3 8 0 11l-123 123c-4 3-8 3-12 0l-50-51c-3-3-8-8-11-11l-62-61c-3-3-3-8 0-11l36-35c3-3 8-3 11 0l76 77c4 3 9 3 12 0l76-77c3-3 8-3 11 0z"/>
<glyph unicode="&#81;" d="M256 446c105 0 190-85 190-190 0-105-85-190-190-190-105 0-190 85-190 190 0 105 85 190 190 190m0 36c-125 0-226-101-226-226 0-125 101-226 226-226 125 0 226 101 226 226 0 125-101 226-226 226z m-112-177l224 0c3 0 5-3 2-6l-110-142c-2-3-6-3-8 0l-110 142c-3 3-1 6 2 6z"/>
<glyph unicode="&#83;" d="M360 270l-66 0 0-104c0-3-3-6-7-6l-63 0c-4 0-7 3-7 6l0 104-66 0c-4 0-5 3-3 5l104 139c2 3 5 3 7 0l104-139c2-2 1-5-3-5z m75-205l-64 0c-9 0-16 7-16 15 0 9 7 16 16 16l64 0c8 0 16-7 16-16 0-8-8-15-16-15m-128 0c9 0 16 7 16 15 0 9-7 16-16 16l-229 0c-9 0-16-7-16-16 0-8 7-15 16-15"/>
<glyph unicode="&#84;" d="M360 270l-66 0 0-104c0-3-3-6-7-6l-63 0c-4 0-7 3-7 6l0 104-66 0c-4 0-5 3-3 5l104 139c2 3 5 3 7 0l104-139c2-2 1-5-3-5z m75-205l-64 0c-9 0-16 7-16 15 0 9 7 16 16 16l64 0c8 0 16-7 16-16 0-8-8-15-16-15m-128 0c9 0 16 7 16 15 0 9-7 16-16 16l-229 0c-9 0-16-7-16-16 0-8 7-15 16-15m380 431c21 0 38-17 38-38l0-404c0-21-17-38-38-38l-404 0c-21 0-38 17-38 38l0 404c0 21 17 38 38 38l404 0m0 16l-404 0c-30 0-54-24-54-54l0-404c0-30 24-54 54-54l404 0c30 0 54 24 54 54l0 404c0 30-24 54-54 54z"/>
<glyph unicode="&#85;" d="M256 446c105 0 190-85 190-190 0-105-85-190-190-190-105 0-190 85-190 190 0 105 85 190 190 190m0 36c-125 0-226-101-226-226 0-125 101-226 226-226 125 0 226 101 226 226 0 125-101 226-226 226z m100-233l-179-93c-2-2-5-1-5 2l0 190c0 3 3 4 5 2l180-94c2-2 2-5-1-7z"/>
<glyph unicode="&#82;" d="M293 119c0-5-4-9-9-9l-55 0c-5 0-10 4-10 9l0 55c0 5 5 9 10 9l55 0c5 0 9-4 9-9z m-37 361c-124 0-224-100-224-224 0-124 100-224 224-224 124 0 224 100 224 224 0 124-100 224-224 224z m52-221c-18-11-23-21-23-44 0-3-2-5-5-5l-47 0c-1 0-4 4-4 5l0 18c0 20 10 37 32 53 2 1 3 2 5 3 10 7 13 9 13 24 0 12-9 20-22 20-19 0-30-9-31-27 0-2-2-4-4-4l-49 0c-2 0-3 0-4 1-1 1-1 2-1 4 2 49 35 78 89 78 40 0 84-22 84-71 0-33-7-39-33-55z"/>
<glyph unicode="&#86;" d="M354 142c0-15 0-35 0-35 0-2-2-5-4-5l-314 0c-2 0-4 3-4 5 0 0 0 20 0 35 0 14 3 21 14 27 9 5 69 40 98 52l0 53c-9 6-14 16-14 31 0 35 0 42 0 42 0 35 21 63 63 63 42 0 63-28 63-63l0-42c0-15-5-25-14-31l0-53c30-12 89-47 98-52 11-6 14-13 14-27z m125-16c-1 8-5 13-13 17-9 5-41 33-70 45 0 0 0 21 0 28 27 2 47 16 55 25 8 9-7 17-19 31-12 14-14 25-14 53 0 27-22 56-57 56-35 0-56-29-56-56 0-28 0-39-12-53-12-14-30-25-22-34 8-9 41-20 55-22 0-3 0-17 0-17l24-13c20-12 18-23 18-42 0 0 0-40 0-42l105 0c4 0 7 3 7 7l0 14c0 1 0 2-1 3z"/>
<glyph unicode="&#121;" d="M95 325l-15 0 0-245c0-8 7-15 15-15l322 0c8 0 15 7 15 15l0 245z m62-230l-46 0 0 46 46 0z m0 62l-46 0 0 45 46 0z m0 61l-46 0 0 46 46 0z m61-123l-46 0 0 46 46 0z m0 62l-46 0 0 45 46 0z m0 61l-46 0 0 46 46 0z m61-123l-46 0 0 46 46 0z m0 62l-46 0 0 45 46 0z m0 61l-46 0 0 46 46 0z m61-123l-46 0 0 46 46 0z m0 62l-46 0 0 45 46 0z m0 61l-46 0 0 46 46 0z m61-123l-46 0 0 46 46 0z m0 62l-46 0 0 45 46 0z m0 61l-46 0 0 46 46 0z m31 183l0-61-352 0 0 61c0 9 7 16 15 16l31 0 0 15c0 8 7 15 15 15l16 0c8 0 15-7 15-15l0-15 168 0 0 15c0 8 7 15 15 15l16 0c8 0 15-7 15-15l0-15 31 0c8 0 15-7 15-16z"/>
<glyph unicode="&#90;" d="M50 256l0 256 261 0 0-151 141 0 0-361-402 0z m382-80l0 155-151 0 0 161-211 0 0-472 362 0z m-322 0l0 115 271 0 0-231-271 0z m65-56l29 19 28-14c39-20 44-18 26 9l-16 24 28 27 27 26 24-25c13-14 28-25 32-25l8 0 0 110-230 0 0-171 7 0c4 0 21 9 37 20z m156 322l0 60 8 0c10 0 113-103 113-113l0-8-121 0z"/>
<glyph unicode="&#87;" d="M50 256l0 256 261 0 0-151 141 0 0-361-402 0z m382-80l0 155-151 0 0 161-211 0 0-472 362 0z m-270-11c-12 47-21 88-21 91 0 3 11 5 24 5l25 0 6-28c4-15 9-34 12-42l6-15 10 42 10 43 47 0 1-13 1-12 5 12 5 13 87 0-13-48c-8-26-19-67-25-90l-11-43-60 0-1 33c0 18-4 42-8 53l-8 20-15-106-56 0z m159 53l0 13-30 0 0-14c0-8 3-23 7-32l7-18 7 19c4 11 8 25 9 32z m10 224l0 60 8 0c10 0 113-103 113-113l0-8-121 0z"/>
<glyph unicode="&#88;" d="M50 256l0 256 261 0 0-151 141 0 0-361-402 0z m382-80l0 155-151 0 0 161-211 0 0-472 362 0z m-312-58c0 3 17 23 36 43l36 37-74 61 8 22 85-85 85-86-176 0z m113 72c-40 43-72 80-72 84l0 7 44 0 46-44 46 44 32 0c18 0 32-2 32-6 0-3-11-20-25-38-13-18-25-36-25-40l0-6 63 0-7-26-6-26 11-14 12-15-39 2-39 1z m98 252l0 60 8 0c10 0 113-103 113-113l0-8-121 0z"/>
<glyph unicode="&#89;" d="M50 256l0 256 261 0 0-151 141 0 0-361-402 0z m382-80l0 155-151 0 0 161-211 0 0-472 362 0z m-322-97l0 11 33 17 32 16-32-48-16-3-17-3z m71 46c0 0 6 22 13 48l13 48 74-76-50-11c-28-5-50-10-50-9z m140 8l-25 12 34 3c19 2 45 1 58-2l24-6 0-20-66 2z m-145 138c-8 16-15 36-15 45l0 15 14 0c18 0 22-6 31-52l7-38-22 0z m155 171l0 60 8 0c10 0 113-103 113-113l0-8-121 0z"/>
<glyph unicode="&#33;" d="M429 474l-346 0c-25 0-45-20-45-45l0-346c0-25 20-45 45-45l346 0c25 0 45 20 45 45l0 346c0 25-20 45-45 45z m-256-363c-18 0-36 0-55 0-1 0-1 0-2 0 0 2 0 2 0 3 0 63 0 125 0 188 0 3 0 3 3 3 18 0 36 0 54 0 3 0 3 0 3-3 0-63 0-125 0-188 0-2 0-3-3-3z m-27 220c-20 0-35 15-35 35 0 19 16 35 35 35 19 0 35-16 35-35 0-20-15-35-35-35z m255-220c-1 0-2 0-2 0-19 0-38 0-56 0-3 0-3 0-3 3 0 35 0 69 0 104 0 8-1 15-4 23-4 9-12 14-22 15-6 1-12 0-17-1-10-3-16-10-20-19-2-7-3-13-3-20 0-34 0-68-1-102 0-3 0-3-2-3-19 0-37 0-55 0-3 0-3 0-3 3 0 63 0 125 0 188 0 3 0 3 3 3 17 0 35 0 52 0 3 0 3 0 3-3 0-7 0-14 0-22 0 0 0-1 0-2 0 0 0 0 1 0 0 1 0 2 1 2 5 9 13 16 22 21 10 5 20 8 31 8 12 1 23-1 34-4 13-5 22-13 29-24 5-9 8-19 10-29 1-6 2-13 2-19 0-30 0-60 0-90 0-9 0-19 0-29 0-1 0-2 0-3z"/>
<glyph unicode="&#41;" d="M295 255c0-22-18-40-40-40-21 0-39 18-39 40 0 22 18 39 39 39 22 0 40-17 40-39z m65 117l-31 0c-5 0-8-4-8-8l0-31c0-5 3-9 8-9l31 0c4 0 8 4 8 9l0 31c0 4-4 8-8 8z m69 102l-346 0c-25 0-45-20-45-45l0-346c0-25 20-45 45-45l346 0c25 0 45 20 45 45l0 346c0 25-20 45-45 45z m-35-303c0-30-24-54-53-54l-170 0c-29 0-53 24-53 54l0 125 80 0c-8-12-13-26-13-41 0-39 32-71 70-71 39 0 71 32 71 71 0 15-5 29-13 41l81 0 0-125z m-194 84c0 30 25 55 55 55 31 0 56-25 56-55 0-31-25-55-56-55-30 0-55 24-55 55z m194 49l-89 0c-12 13-30 21-50 21-19 0-37-8-50-21l-87 0 0 37c0 18 9 35 23 44l0-59 10 0 0 65c3 1 6 2 9 2l0-67 10 0 0 69c1 0 1 0 1 0l8 0 0-69 10 0 0 69 152 0c29 0 53-24 53-54z"/>
<glyph unicode="&#35;" d="M429 474l-346 0c-25 0-45-20-45-45l0-346c0-25 20-45 45-45l346 0c25 0 45 20 45 45l0 346c0 25-20 45-45 45z m-265-293c-37 0-68 30-68 68 0 38 31 68 68 68 38 0 68-30 68-68 0-38-30-68-68-68z m184 0c-38 0-68 30-68 68 0 38 30 68 68 68 37 0 68-30 68-68 0-38-31-68-68-68z"/>
<glyph unicode="&#63;" d="M237 227c8 3 17 4 27 4 9 0 18-1 27-4l0 127 45 0-68 76-77-76 46 0z m114 119l33-32-87-89c17-7 31-20 41-35l84 86 33-32 4 102z m-120-121l-87 89 33 32-109 0 4-102 33 32 84-86c10 15 25 28 42 35z m94-82c0-34-28-61-61-61-34 0-61 27-61 61 0 34 27 61 61 61 33 0 61-27 61-61z"/>
<glyph unicode="&#37;" d="M413 322l-157 157-157-157c-12-12-12-31 0-43 12-12 32-12 44 0l83 82 0-213c0-13 12-22 28-22l4 0c16 0 29 9 29 22l0 213 82-82c12-12 32-12 44 0 6 6 9 14 9 21 0 8-3 16-9 22z m-64-243l-186 0c-8 0-15-9-15-19l0-10c0-10 7-17 15-17l186 0c8 0 15 7 15 17l0 10c0 10-7 19-15 19z"/>
<glyph unicode="&#47;" d="M429 474l-346 0c-25 0-45-20-45-45l0-346c0-25 20-45 45-45l346 0c25 0 45 20 45 45l0 346c0 25-20 45-45 45z m-196-133l-41 0 67 67 61-67-41 0 1-111c-8 3-16 4-24 4-8 0-16-1-23-4z m194-6l-4-89-29 28-73-76c-9 14-21 24-36 30l76 79-29 28z m-236-137l-73 76-29-28-4 89 95 0-29-28 76-79c-15-6-27-16-36-30z m65 12c29 0 53-24 53-53 0-29-24-53-53-53-29 0-53 24-53 53 0 29 24 53 53 53z"/>
<glyph unicode="&#36;" d="M99 281l157-157 157 157c12 12 12 32 0 44-12 12-32 12-44 0l-83-83 0 214c0 12-12 22-28 22l-4 0c-16 0-29-10-29-22l0-213-82 82c-12 12-32 12-44 0-6-6-9-14-9-22 0-8 3-16 9-22z m64-247l187 0c8 0 14 10 14 20l0 10c0 10-6 17-14 17l-187 0c-8 0-15-7-15-17l0-10c0-10 7-20 15-20z"/>
<glyph unicode="&#38;" d="M395 172c1 0 2-1 2-1 1 0 2 1 3 2 1 1 1 3-1 4l-72 58c-1 1-4 1-5-1-1-1-1-3 1-4z m-210 63l-72-58c-2-1-2-3-1-4 1-1 2-2 3-2 0 0 1 1 2 1l72 58c2 1 2 3 1 4-1 2-4 2-5 1z m244 239l-346 0c-25 0-45-20-45-45l0-346c0-25 20-45 45-45l346 0c25 0 45 20 45 45l0 346c0 25-20 45-45 45z m-6-295c0-12-10-21-22-21l-290 0c-12 0-22 9-22 21l0 141 146-104c0 0 12-10 21-10 9 0 19 8 19 8l148 104 0-139z m0 156l-152-108c0 0-8-7-16-7-9 0-19 9-19 9l-147 107 0 1c0 8 6 17 26 17l288 0c18 0 20-11 20-19z"/>
<glyph unicode="&#40;" d="M495 32l-64 0c-8 0-16-7-16-16 0-9 8-16 16-16l64 0c9 0 16 7 16 16 0 9-7 16-16 16m-128 0l-350 0c-9 0-16-7-16-16 0-9 7-16 16-16l350 0c9 0 16 7 16 16 0 9-7 16-16 16m8 151l-27 0 0 75 0 0c0 52-43 95-96 95-53 0-96-43-97-95l0 0 0-75-26 0c-6 0-11-5-11-11l0-150c0-6 5-11 11-11l246 0c6 0 10 5 10 11l0 150c0 6-4 11-10 11z m-182 75c0-1 0-1 0-1 0 32 27 59 59 59 32 0 58-27 58-59 0 0 1 0 1 1l0-75-118 0z m79-188l-40 0 12 38c-8 3-14 10-14 20 0 11 10 21 22 21 11 0 21-10 21-21 0-10-6-17-14-20z"/>
<glyph unicode="&#95;" d="M293 470c0-20-17-35-36-35-20 0-36 15-36 35 0 21 17 36 36 36 19 0 36-17 36-36z m0-391c0-21-17-36-36-36-20 0-36 15-36 36 0 20 17 35 36 35 19 0 36-15 36-35z m195 195c0-20-16-36-36-36-19 0-35 16-35 36 0 20 16 36 35 36 20 0 36-16 36-36z m-390 0c0-20-17-36-36-36-20 0-36 16-36 36 0 20 17 36 36 36 19 1 36-16 36-36z m264-105l-8 30-8-7-34 34c11 12 17 28 18 44l50 0 0-9 27 14-27 14 0-9-50 0c-1 16-9 31-18 43l36 35 7-7 8 30-30-8 8-7-36-36c-12 9-26 16-43 16l0 51 9 0-14 27-14-27 9 0 0-52c-16-1-31-7-42-16l-36 35 7 7-30 9 9-30 7 7 35-36c-10-11-16-26-17-42l-50 0 0 9-28-14 28-14 0 9 50 0c1-17 7-32 17-44l-34-34-7 7-9-30 30 8-7 7 35 35c11-11 27-18 44-18l0-49-10 0 14-27 15 27-10 0 0 49c17 1 32 8 44 18l35-35-7-7z m69 244c0-20-17-36-36-36-20 0-35 17-35 36 0 20 16 36 35 36 21 0 36-17 36-36z m-276-277c0-21-17-36-36-36-20 0-36 17-36 36 0 20 16 35 36 35 19 0 36-15 36-35z m276 0c0-21-17-36-36-36-20 0-35 17-35 36 0 20 16 35 35 35 21 0 36-15 36-35z m-276 277c0-20-17-36-36-36-20 0-36 16-36 36 0 20 17 36 36 36 19 0 36-17 36-36z"/>
<glyph unicode="&#45;" d="M310 86c-9 6-9 14-9 14l-3 19-97 0-3-19c0 0-2-8-9-14-8-6-14-11-8-12 6-1 63 0 68 0 5 0 62-1 68 0 7 1 0 6-7 12z m-168 153c26 0 28 6 37 32 15 41 84-10 41-28-43-18-105-4-78-4z m262 268c-12 10-34 5-47-10l-131-187c-13-17-13-14 0-23 12-10 10-11 23 6l155 168c12 14 13 36 0 46z m-34-22c0 0-2 2-8 7 9 15 29 13 29 13-18-11-21-20-21-20z m92-41l-58 0-25-27 73 0 0-223-407 0 0 222 237 0 19 27-264 0c-11 1-19-7-19-18l0-269c0-11 8-19 19-19l426 0c11 0 19 8 19 19l0 269c-1 11-9 19-20 19z"/>
<glyph unicode="&#42;" d="M498 4l0 50-458 0c-10 0-21-10-21-23-1-16 8-27 20-27m229 308l74-13 138 137 0 45c0 17-14 31-31 31l-60 0-131-131z m-110 110c0 0 38 8 74-10 17 17 54 54 99 99l-82 0z m169-168c-21 13-97 19-97 19 0 0-7 79-14 94-6 18-39 24-98 13-1-3-43-153-43-153 0 0 33-4 70-41 37-37 43-69 43-69 0 0 151 45 151 46 7 58 4 79-12 91z m-181-153c0 0-2 28-29 55-29 27-55 29-55 29l-26-110z m334 198l0 82c-50-50-89-89-107-107 16-36 8-73 8-73z"/>
<glyph unicode="&#43;" d="M87 443l156 0 0-343-156 0z m187 0l156 0 0-38-156 0z m0-61l156 0 0-39-156 0z m0-61l156 0 0-38-156 0z m0-60l156 0 0-38-156 0z m0-61l156 0 0-39-156 0z m0-61l156 0 0-38-156 0z m-256 373l0-480 480 0 0 480z m452-452l-425 0 0 425 425 0z"/>
</font>
</defs>
</svg>
