<?xml version="1.0" standalone="no"?>
<!DOCTYPE svg PUBLIC "-//W3C//DTD SVG 1.1//EN" "http://www.w3.org/Graphics/SVG/1.1/DTD/svg11.dtd" >
<svg xmlns="http://www.w3.org/2000/svg">
<metadata></metadata>
<defs>
<font id="repsolbold_italic" horiz-adv-x="860" >
<font-face units-per-em="2048" ascent="1536" descent="-512" />
<missing-glyph horiz-adv-x="487" />
<glyph unicode="&#xfb01;" horiz-adv-x="1312" d="M119 768l43 246h149l8 45q17 98 40 155.5t61 98.5q52 55 121.5 78.5t187.5 23.5h238l-43 -250h-201q-52 0 -82 -20q-26 -20 -35 -74l-10 -57h737l-178 -1014h-285l136 768h-453l-135 -768h-285l135 768h-149zM1069 1268q0 78 53.5 134t139.5 56q69 0 108 -40t39 -101 q0 -78 -53 -134.5t-139 -56.5q-69 0 -108.5 40.5t-39.5 101.5z" />
<glyph unicode="&#xfb02;" horiz-adv-x="1474" d="M119 768l43 246h147l8 45q17 98 40 155.5t61 98.5q52 55 121.5 78.5t187.5 23.5h682l-184 -1048q-6 -30 -6 -52q0 -39 20 -59q27 -31 123 -31h39l-41 -237h-49q-246 0 -324 88q-59 64 -59 172q0 51 12 119l139 798h-358q-52 0 -82 -20q-26 -20 -35 -74l-8 -57h270 l-43 -246h-270l-135 -768h-285l135 768h-149z" />
<glyph unicode="&#xfb03;" horiz-adv-x="2050" d="M119 768l43 246h149l8 45q17 98 40 155.5t61 98.5q52 55 121.5 78.5t187.5 23.5h238l-43 -250h-201q-52 0 -82 -20q-26 -20 -35 -74l-10 -57h451l8 45q18 98 40 155.5t60 98.5q52 55 121.5 78.5t187.5 23.5h238l-43 -250h-201q-52 0 -82 -20q-26 -20 -35 -74l-10 -57h740 l-179 -1014h-284l135 768h-453l-135 -768h-285l136 768h-453l-135 -768h-285l135 768h-149zM1806 1268q0 78 53.5 134t139.5 56q69 0 108 -40t39 -101q0 -78 -53 -134.5t-139 -56.5q-69 0 -108.5 40.5t-39.5 101.5z" />
<glyph unicode="&#xfb04;" horiz-adv-x="2211" d="M119 768l43 246h149l8 45q17 98 40 155.5t61 98.5q52 55 121.5 78.5t187.5 23.5h238l-43 -250h-201q-52 0 -82 -20q-26 -20 -35 -74l-10 -57h451l8 45q18 98 40 155.5t60 98.5q52 55 121.5 78.5t187.5 23.5h682l-184 -1048q-6 -30 -6 -52q0 -39 20 -59q27 -31 123 -31h39 l-41 -237h-49q-246 0 -324 88q-59 64 -59 172q0 51 12 119l140 798h-359q-52 0 -82 -20q-26 -20 -35 -74l-8 -57h271l-43 -246h-271l-135 -768h-285l136 768h-453l-135 -768h-285l135 768h-149z" />
<glyph horiz-adv-x="0" />
<glyph horiz-adv-x="0" />
<glyph horiz-adv-x="682" />
<glyph unicode="&#xd;" horiz-adv-x="487" />
<glyph unicode=" "  horiz-adv-x="487" />
<glyph unicode="&#x09;" horiz-adv-x="487" />
<glyph unicode="&#xa0;" horiz-adv-x="487" />
<glyph unicode="!" horiz-adv-x="604" d="M121 127q0 77 51.5 131.5t136.5 54.5q68 0 106 -39t38 -100q0 -77 -52 -131.5t-137 -54.5q-68 0 -105.5 39t-37.5 100zM207 481l110 789h256q64 0 52 -64l-148 -725q-8 -49 -57 -49h-172q-26 0 -35 11t-6 38z" />
<glyph unicode="&#x22;" horiz-adv-x="901" d="M205 803l63 467h244q55 0 55 -37q0 -13 -4 -29l-88 -401q-11 -58 -67 -58h-154q-58 0 -49 58zM616 803l64 467h244q55 0 55 -37q0 -13 -4 -29l-88 -401q-11 -58 -68 -58h-153q-59 0 -50 58z" />
<glyph unicode="#" horiz-adv-x="1228" d="M76 274l43 244h203l40 232h-202l43 243h203l49 277h243l-49 -277h193l49 277h244l-50 -277h203l-43 -243h-203l-41 -232h203l-43 -244h-203l-47 -274h-245l49 274h-193l-47 -274h-246l50 274h-203zM565 518h193l41 232h-193z" />
<glyph unicode="$" horiz-adv-x="1228" d="M51 127l172 219q56 -43 125.5 -65.5t175.5 -22.5l41 231q-74 11 -135.5 34.5t-111.5 63t-78.5 100t-28.5 136.5q0 211 121 326q131 125 373 133l36 205h172l-34 -205q257 -13 383 -129l-162 -215q-50 35 -112 49.5t-159 16.5l-41 -232l54 -8q311 -49 311 -322 q0 -216 -134 -333.5t-370 -120.5l-35 -205h-174l37 205q-272 6 -426 139zM524 879q0 -72 94 -88l37 210q-59 -11 -95 -41.5t-36 -80.5zM698 262q61 8 98.5 40.5t37.5 84.5q0 68 -99 84z" />
<glyph unicode="%" horiz-adv-x="1925" d="M186 764q0 17 7 61l38 226q19 113 78 172q36 35 84 47t127 12h146q127 0 186 -65q39 -45 39 -117q0 -24 -6 -62l-39 -225q-19 -113 -78 -172q-36 -35 -84 -47t-127 -12h-145q-128 0 -187 65q-39 45 -39 117zM422 838q-6 -32 4 -45q12 -15 41 -15h86q29 0 47 15 q17 14 23 45l32 188q6 32 -4 45q-11 14 -41 14h-86q-30 0 -47 -14q-16 -13 -22 -45zM449 0l845 1270h308l-846 -1270h-307zM1161 170q0 24 6 61l39 226q19 113 78 172q36 35 84 47t127 12h145q128 0 187 -65q39 -45 39 -117q0 -24 -6 -62l-39 -225q-19 -113 -78 -172 q-36 -35 -84 -47t-127 -12h-146q-127 0 -186 65q-39 45 -39 117zM1397 244q-6 -32 4 -45q12 -15 41 -15h86q29 0 47 15q16 13 22 45l33 188q6 32 -4 45q-12 15 -41 15h-86q-29 0 -47 -15q-16 -13 -22 -45z" />
<glyph unicode="&#x26;" horiz-adv-x="1368" d="M68 354l10 58q19 103 56 153t136 109l101 59q-60 99 -39 232q14 88 45.5 143.5t83.5 95.5q105 78 309 78h119q122 0 207 -33t153 -98l-159 -203q-103 70 -250 70h-101q-94 0 -110 -72q-14 -59 49 -133l235 -278l84 81q26 26 36 47t18 62l8 43h272l-14 -82 q-14 -83 -36.5 -130t-80.5 -105l-119 -117l19 -21q25 -28 46 -38.5t56 -10.5h101l-50 -276h-96q-98 0 -152 26.5t-120 104.5l-11 10l-12 -12q-80 -80 -150.5 -104.5t-179.5 -24.5h-114q-210 0 -303 112q-75 90 -47 254zM373 375q-12 -61 6 -88q20 -23 92 -23h90q45 0 70.5 9 t52.5 36l21 21l-179 211l-71 -43q-36 -22 -52 -40.5t-22 -45.5z" />
<glyph unicode="'" horiz-adv-x="491" d="M205 803l63 467h244q55 0 55 -37q0 -13 -4 -29l-88 -401q-11 -58 -67 -58h-154q-58 0 -49 58z" />
<glyph unicode="(" horiz-adv-x="716" d="M68 -35q0 65 14 144l192 1085q19 103 47 167t82 107q52 43 125 60.5t193 17.5h166l-47 -266h-119q-75 0 -109 -27q-28 -26 -41 -100l-190 -1077q-10 -55 -10 -76q0 -26 12 -43q23 -29 88 -29h129l-47 -266h-107q-115 0 -189 25.5t-128 85.5q-61 69 -61 192z" />
<glyph unicode=")" horiz-adv-x="716" d="M-43 -338l47 266h119q73 0 108 27q28 26 41 100l191 1078q10 55 10 75q0 26 -12 43q-23 29 -84 29h-133l47 266h106q115 0 190 -25.5t128 -84.5q61 -69 61 -193q0 -64 -14 -143l-193 -1086q-19 -103 -47 -167t-82 -107q-52 -43 -124.5 -60.5t-192.5 -17.5h-166z" />
<glyph unicode="*" horiz-adv-x="970" d="M152 696q-21 43 26 58l271 104l-222 90q-15 6 -17.5 22.5t9.5 35.5l82 112q27 37 59 8l177 -161l24 262q3 43 45 43h142q21 0 28.5 -12.5t-0.5 -32.5l-96 -269l223 172q21 14 38 9.5t26 -25.5l57 -117q20 -42 -27 -57l-270 -104l221 -91q15 -6 17.5 -22t-9.5 -35 l-82 -113q-27 -37 -59 -8l-176 162l-25 -262q-3 -45 -45 -45h-141q-21 0 -29 13.5t0 33.5l97 268l-224 -172q-21 -14 -37.5 -9t-25.5 26z" />
<glyph unicode="+" d="M100 514l45 256h242l45 254h264l-45 -254h242l-45 -256h-242l-45 -254h-264l45 254h-242z" />
<glyph unicode="," horiz-adv-x="532" d="M43 -215q0 8 6 20l51 107q31 61 31 102q0 31 -18.5 77.5t-18.5 74.5q0 62 46.5 104.5t123.5 42.5q66 0 107 -37t41 -100q0 -52 -27 -112t-88 -152l-113 -170q-14 -23 -30 -23q-11 0 -29 9l-55 26q-27 14 -27 31z" />
<glyph unicode="-" horiz-adv-x="790" d="M113 367l45 262h590l-46 -262h-589z" />
<glyph unicode="." horiz-adv-x="528" d="M86 125q0 78 50 133t132 55q67 0 105.5 -39.5t38.5 -99.5q0 -78 -50.5 -133t-132.5 -55q-67 0 -105 39t-38 100z" />
<glyph unicode="/" horiz-adv-x="784" d="M-25 0l656 1270h307l-655 -1270h-308z" />
<glyph unicode="0" horiz-adv-x="1204" d="M133 297q0 51 12 129l86 485q20 118 47 180.5t76 104.5q59 50 133 68t205 18h137q102 0 173 -24t124 -80q68 -71 68 -205q0 -51 -12 -129l-86 -486q-20 -118 -47 -179.5t-76 -104.5q-59 -50 -133 -68t-205 -18h-137q-102 0 -173 24t-124 80q-68 71 -68 205zM426 336 q0 -29 12 -47q20 -29 90 -29h134q72 0 104 29q28 25 39 86l92 520q4 24 4 39q0 29 -12 47q-20 29 -90 29h-133q-73 0 -105 -29q-28 -25 -39 -86l-92 -520q-4 -24 -4 -39z" />
<glyph unicode="1" horiz-adv-x="917" d="M70 0l45 258h243l134 754h-224l45 258h443q37 0 52 -11.5t15 -37.5q0 -19 -12 -93l-154 -870h199l-45 -258h-741z" />
<glyph unicode="2" horiz-adv-x="1097" d="M90 78q0 22 8 72l31 182q23 131 86 207t205 125l289 100q49 17 67 37t29 65q10 42 10 74t-14 49q-22 27 -92 27h-37q-110 0 -183 -25.5t-133 -77.5l-100 217q81 84 177 118t251 34h72q209 0 293 -108q33 -44 47 -90t14 -113q0 -42 -10 -111q-16 -94 -44 -154t-85.5 -107 t-153.5 -79l-305 -104q-44 -15 -59 -32t-21 -56l-12 -70h571l-45 -258h-772q-84 0 -84 78z" />
<glyph unicode="3" horiz-adv-x="1146" d="M49 139l166 203q53 -43 118.5 -65.5t172.5 -22.5h88q32 0 50.5 5t37.5 22l39 30q22 17 30.5 30t12.5 38l6 39q6 30 6 59q0 26 -10 41q-22 31 -100 31h-154q-22 0 -31.5 7t-9.5 24q0 8 4 28l8 43q5 24 12.5 38.5t28.5 35.5l174 182q74 80 86 105h-493l45 258h768 q34 0 46.5 -14t6.5 -46l-8 -45q-22 -99 -52.5 -157t-113.5 -146l-117 -121q117 -9 174 -77q43 -53 43 -144q0 -36 -10 -94l-29 -160q-9 -52 -23 -77t-50 -52l-125 -92q-46 -35 -80 -46t-100 -11h-222q-275 0 -395 151z" />
<glyph unicode="4" horiz-adv-x="1204" d="M84 375q0 47 61 147l447 748h323l-473 -793h285l53 303h295l-53 -303h154l-43 -241h-154l-41 -236h-295l41 236h-532q-27 0 -39 11t-17 38l-8 49q-4 32 -4 41z" />
<glyph unicode="5" horiz-adv-x="1122" d="M45 139l166 203q53 -43 118.5 -65.5t172.5 -22.5h88q79 0 117 33q30 26 43 106q8 46 8 68q0 80 -113 80h-346q-76 0 -76 69q0 21 8 62l93 514q8 47 29 65.5t75 18.5h688l-45 -258h-491l-37 -205h166q193 0 282 -92q70 -73 70 -217q0 -46 -12 -117l-5 -23 q-19 -104 -45.5 -171.5t-72.5 -108.5q-58 -51 -139.5 -70.5t-202.5 -19.5h-144q-275 0 -395 151z" />
<glyph unicode="6" horiz-adv-x="1179" d="M139 299q0 57 15 141l84 471q35 207 124 285q55 50 131 68t195 18h129q127 0 211 -32t152 -93l-146 -209q-69 41 -125.5 56.5t-140.5 15.5h-96q-73 0 -105 -29q-27 -24 -39 -86l-24 -137l51 20q61 25 115 25h90q180 0 272 -98q72 -78 72 -209q0 -35 -12 -113l-7 -35 q-18 -105 -41 -165t-67 -105q-54 -57 -135 -78.5t-217 -21.5h-131q-192 0 -281 94q-74 76 -74 217zM428 324q0 -28 10 -43q18 -33 105 -33h104q83 0 113 33q27 27 39 98l8 45q6 35 6 55q0 28 -10 43q-18 33 -96 33h-109q-26 0 -53 -8l-45 -17q-25 -9 -33.5 -19.5 t-13.5 -35.5l-19 -96q-6 -34 -6 -55z" />
<glyph unicode="7" horiz-adv-x="1021" d="M164 1012l45 258h846q29 0 43 -7.5t14 -27.5q0 -13 -6 -49l-6 -37q-14 -84 -36.5 -141t-76.5 -136l-430 -641q-34 -53 -51 -125l-23 -106h-293l19 98q12 71 28.5 115t51.5 98l422 627q29 46 41 74h-588z" />
<glyph unicode="8" horiz-adv-x="1204" d="M119 272q0 39 8 86l16 93q10 61 29.5 92.5t77.5 83.5l51 45l-20 22q-45 45 -45 111q0 25 4 49l10 57q20 118 47 180.5t76 104.5q59 50 133 68t205 18h120q104 0 177 -24t125 -80q69 -74 69 -181q0 -39 -8 -86l-8 -45q-14 -80 -34 -119t-71 -81l-28 -25l34 -37 q52 -55 52 -127q0 -23 -6 -61l-11 -58q-20 -118 -47 -179.5t-76 -104.5q-59 -50 -132.5 -68t-204.5 -18h-173q-104 0 -176.5 23.5t-124.5 80.5q-69 74 -69 180zM420 328q0 -29 12 -47q20 -29 90 -29h164q73 0 105 29q27 24 38 88l15 82q2 17 -6 28l-15 19q-7 10 -22 10h-299 q-14 0 -27 -10l-22 -19q-13 -13 -15 -26l-14 -82q-4 -28 -4 -43zM528 817q-3 -22 4 -31l15 -18q10 -10 26 -10h240q21 0 31 10l22 18q14 11 17 33l14 80q4 28 4 43q0 29 -12 47q-20 29 -90 29h-113q-72 0 -104 -29q-28 -25 -39 -88z" />
<glyph unicode="9" horiz-adv-x="1179" d="M115 113l145 209q69 -41 125.5 -56.5t140.5 -15.5h97q72 0 104 29q27 24 39 86l25 137l-52 -21q-59 -24 -114 -24h-90q-181 0 -273 98q-72 78 -72 209q0 28 13 113l6 34q18 105 41 165.5t67 105.5q54 57 135.5 78.5t217.5 21.5h131q191 0 280 -94q74 -76 74 -217 q0 -63 -14 -142l-84 -471q-34 -205 -125 -284q-55 -50 -131 -68t-195 -18h-129q-127 0 -210.5 32t-151.5 93zM481 791q0 -27 11 -43q18 -33 96 -33h108q27 0 54 8l45 16q24 9 33 20t14 36l18 96q6 35 6 55q0 28 -10 43q-18 33 -104 33h-105q-82 0 -112 -33q-27 -27 -39 -98 l-9 -45q-6 -34 -6 -55z" />
<glyph unicode=":" horiz-adv-x="528" d="M84 127q0 78 50 132t132 54q67 0 105.5 -38.5t38.5 -98.5q0 -78 -50.5 -133t-132.5 -55q-67 0 -105 39t-38 100zM180 674q0 78 50 133t132 55q67 0 105.5 -39.5t38.5 -99.5q0 -78 -50 -132t-132 -54q-67 0 -105.5 38.5t-38.5 98.5z" />
<glyph unicode=";" horiz-adv-x="532" d="M39 -233q0 9 8 28l55 117q31 63 31 104q0 31 -18.5 71.5t-18.5 68.5q0 67 46.5 112t123.5 45q66 0 107 -37t41 -100q0 -94 -105 -250l-116 -176q-22 -31 -46 -31q-2 0 -22 5l-62 16q-24 7 -24 27zM182 674q0 78 50.5 133t132.5 55q67 0 105 -39t38 -100q0 -78 -50 -132 t-132 -54q-67 0 -105.5 38.5t-38.5 98.5z" />
<glyph unicode="&#x3c;" d="M102 590l19 102q6 32 19 48t44 28l764 299l-51 -291l-424 -147l373 -148l-47 -266l-660 299q-26 12 -34.5 28.5t-2.5 47.5z" />
<glyph unicode="=" d="M59 311l45 256h748l-45 -256h-748zM129 715l45 256h748l-45 -256h-748z" />
<glyph unicode="&#x3e;" d="M55 215l51 291l424 147l-372 148l47 266l659 -299q26 -12 34.5 -28.5t2.5 -47.5l-18 -102q-6 -32 -19.5 -48t-44.5 -28z" />
<glyph unicode="?" horiz-adv-x="1058" d="M215 1155q70 63 154 95t211 32h149q103 0 170 -23.5t109 -78.5q77 -98 47 -258l-6 -35q-25 -149 -91 -217q-57 -57 -161 -86l-90 -27q-33 -10 -45 -24.5t-21 -51.5l-12 -49h-267l19 125q10 76 46.5 124.5t119.5 74.5l110 35q46 14 68 36.5t29 65.5l2 12q6 37 6 58 q0 35 -21 44t-67 9h-99q-152 0 -274 -84zM295 127q0 77 51.5 131.5t136.5 54.5q68 0 106 -39t38 -100q0 -77 -52 -131.5t-137 -54.5q-68 0 -105.5 39t-37.5 100z" />
<glyph unicode="@" horiz-adv-x="1462" d="M121 332l108 618q18 101 41.5 156.5t69.5 95.5q51 43 119.5 61.5t175.5 18.5h561q180 0 248 -88q66 -85 39 -244l-70 -395q-24 -140 -104 -199q-82 -57 -213 -57q-113 0 -166 53l-47 -26q-49 -27 -113 -27h-76q-130 0 -182 61q-49 58 -31 160q17 102 80 152q61 49 197 49 h47q44 0 76 -19l12 -8l12 70q4 30 -10.5 43.5t-48.5 13.5h-51q-89 0 -179 -41l-53 133q88 68 215 68h94q136 0 183 -47q33 -33 42 -80.5t-3 -116.5l-41 -231q-8 -57 55 -57q32 0 50 13t24 44l78 440q13 76 -7 105q-22 28 -94 28h-528q-85 0 -125 -32q-36 -33 -49 -105 l-107 -606q-14 -83 6 -105q19 -28 95 -28h847l-34 -203h-856q-180 0 -248 88q-66 85 -39 244zM672 508q-6 -28 4.5 -38.5t40.5 -10.5h96q17 0 29 6q11 7 14 24l10 58q1 7 -2 9.5t-12 2.5h-117q-31 0 -45 -11t-18 -40z" />
<glyph unicode="A" horiz-adv-x="1351" d="M0 0l590 1202q26 47 60.5 63.5t103.5 16.5h211q71 0 100.5 -17t36.5 -63l170 -1202h-307l-33 258h-488l-122 -258h-322zM567 516h334l-57 479q-3 19 -17 19h-10q-9 0 -12.5 -3t-9.5 -16z" />
<glyph unicode="B" horiz-adv-x="1187" d="M82 82l194 1106q12 82 105 82h453q220 0 311 -119q55 -70 55 -178q0 -41 -8 -90l-6 -35q-15 -94 -86 -152l-45 -37l51 -61q49 -57 49 -121q0 -23 -8 -69l-6 -35q-21 -114 -47.5 -177t-75.5 -110q-58 -53 -136.5 -69.5t-201.5 -16.5h-528q-40 0 -58 22q-13 16 -14 40 q0 9 2 20zM416 258h278q68 0 103 27q30 24 43 100l10 59q3 20 -10 35l-19 21q-10 10 -33 10h-327zM504 756h289q27 0 47 14l22 18q18 15 21 37l12 70q4 24 4 41q0 30 -12 45q-20 29 -90 29h-248z" />
<glyph unicode="C" horiz-adv-x="1148" d="M115 291q0 64 14 143l88 498q19 102 47 165.5t82 106.5q53 43 122.5 60.5t195.5 17.5h155q142 0 235.5 -40t162.5 -109l-168 -215q-54 42 -118 62.5t-163 20.5h-106q-76 0 -109 -26q-29 -26 -41 -94l-84 -475q-8 -47 -8 -64q0 -28 12 -45q23 -29 84 -29h139 q104 0 174.5 20.5t135.5 63.5l104 -241q-61 -50 -176.5 -86.5t-251.5 -36.5h-147q-115 0 -190 25.5t-128 84.5q-61 69 -61 193z" />
<glyph unicode="D" horiz-adv-x="1257" d="M82 82l194 1106q12 82 105 82h534q111 0 184.5 -25.5t125.5 -83.5q59 -67 59 -186q0 -64 -14 -139l-88 -498q-19 -100 -46 -160t-79 -102t-118 -59t-187 -17h-600q-40 0 -58 22q-13 16 -14 40q0 9 2 20zM418 268h319q75 0 109 27q29 26 41 94l84 475q8 47 8 64 q0 28 -12 45q-22 28 -84 28h-336z" />
<glyph unicode="E" horiz-adv-x="1083" d="M82 82l194 1106q12 82 105 82h778l-47 -266h-565l-41 -234h461l-47 -266h-461l-41 -238h577l-47 -266h-796q-40 0 -58 22q-13 16 -14 40q0 9 2 20z" />
<glyph unicode="F" horiz-adv-x="1056" d="M78 0l209 1188q13 82 108 82h774l-47 -266h-565l-41 -234h461l-47 -266h-461l-88 -504h-303z" />
<glyph unicode="G" horiz-adv-x="1234" d="M115 291q0 64 14 143l88 498q19 102 47 165.5t82 106.5q53 43 122.5 60.5t195.5 17.5h215q132 0 227.5 -36.5t171.5 -112.5l-168 -215q-55 43 -120 63t-173 20h-155q-76 0 -109 -26q-29 -26 -41 -94l-84 -473q-8 -47 -8 -66q0 -30 12 -47q23 -29 84 -29h246q23 0 49 13 l33 16q13 7 17 13t7 20l31 172h-192l45 250h401q44 0 61.5 -17.5t10.5 -56.5l-78 -443q-12 -65 -32.5 -95t-67.5 -52l-132 -61q-48 -23 -91 -30t-113 -7h-217q-115 0 -190 25.5t-128 84.5q-61 69 -61 193z" />
<glyph unicode="H" horiz-adv-x="1275" d="M78 0l223 1270h303l-88 -498h432l88 498h303l-223 -1270h-303l88 500h-432l-88 -500h-303z" />
<glyph unicode="I" horiz-adv-x="565" d="M90 0l223 1270h303l-223 -1270h-303z" />
<glyph unicode="J" horiz-adv-x="1048" d="M41 154l166 198q51 -46 106.5 -65t141.5 -19h49q73 0 110 29q27 24 41 98l154 875h303l-164 -932q-18 -101 -47 -164.5t-82 -107.5q-53 -43 -124.5 -60.5t-192.5 -17.5h-84q-237 0 -377 166z" />
<glyph unicode="K" horiz-adv-x="1273" d="M78 0l223 1270h303l-90 -512h57q36 0 56 9.5t39 33.5l368 469h355l-492 -619q-21 -26 -6 -55l315 -596h-342l-221 446q-13 26 -28.5 34.5t-47.5 8.5h-100l-86 -489h-303z" />
<glyph unicode="L" horiz-adv-x="1015" d="M82 82l209 1188h303l-176 -1004h545l-48 -266h-761q-41 0 -60 21q-14 15 -14 41q0 9 2 20z" />
<glyph unicode="M" horiz-adv-x="1497" d="M78 0l213 1210q6 33 25.5 46.5t54.5 13.5h118q46 0 69 -13t40 -49l121 -260q58 -121 104 -258q65 106 187 258l207 260q28 35 59.5 48.5t79.5 13.5h149q55 0 55 -46q0 -7 -1 -14l-213 -1210h-291l104 594q25 149 49 242q-73 -135 -164 -246l-112 -133q-27 -32 -48 -45 t-48 -13h-99q-28 0 -46 10.5t-32 39.5l-63 126q-63 127 -90 263q-7 -105 -33 -248l-104 -590h-291z" />
<glyph unicode="N" horiz-adv-x="1314" d="M78 0l213 1212q6 33 24.5 45.5t55.5 12.5h88q44 0 66 -12.5t42 -49.5l258 -454q88 -157 136 -297l143 813h274l-213 -1211q-4 -28 -26 -43.5t-56 -15.5h-90q-44 0 -66 12t-42 49l-258 455q-76 129 -133 289l-142 -805h-274z" />
<glyph unicode="O" horiz-adv-x="1261" d="M115 291q0 64 14 143l88 498q19 102 47 165.5t82 106.5q53 43 122.5 60.5t195.5 17.5h245q115 0 189.5 -26t128.5 -85q61 -69 61 -192q0 -64 -14 -143l-88 -498q-19 -102 -47 -165.5t-82 -106.5q-53 -43 -122.5 -60.5t-195.5 -17.5h-245q-115 0 -190 25.5t-128 84.5 q-61 69 -61 193zM420 342q0 -28 12 -45q23 -29 84 -29h225q75 0 109 27q29 26 41 94l84 475q8 47 8 64q0 28 -12 45q-22 28 -84 28h-225q-76 0 -109 -26q-29 -26 -41 -94l-84 -475q-8 -47 -8 -64z" />
<glyph unicode="P" horiz-adv-x="1208" d="M78 0l209 1188q8 46 28 63q22 19 74 19h475q114 0 188 -26t124 -87q38 -47 53 -125q8 -39 7.5 -80.5t-7.5 -85.5l-31 -174q-12 -73 -31 -108.5t-71 -79.5l-86 -72q-51 -43 -87 -55t-108 -12h-371l-63 -365h-303zM492 631h296q30 0 46 14l45 39q16 14 22 43l29 162 q4 23 4 40q0 30 -12 46q-23 29 -95 29h-270z" />
<glyph unicode="Q" horiz-adv-x="1265" d="M122 231q-6 37 -6 74q0 47 9 94l94 533q19 102 47 165.5t82 106.5q53 43 122.5 60.5t195.5 17.5h254q112 0 184.5 -25.5t124.5 -85.5q43 -51 56 -133q6 -37 6 -74q0 -47 -9 -94l-94 -532q-19 -102 -47 -165.5t-82 -106.5q-46 -39 -104.5 -56t-157.5 -20l8 -23 q15 -45 37 -61q28 -21 82 -21h112l-43 -233h-157q-124 0 -193 41t-98 131l-53 164h-5q-113 0 -185.5 25t-123.5 85q-43 51 -56 133zM426 383q-4 -23 -4 -40q0 -31 12 -46q23 -29 94 -29h215q75 0 109 27q29 26 41 94l88 498q4 23 4 40q0 31 -12 46q-22 28 -94 28h-215 q-76 0 -109 -26q-29 -26 -41 -94z" />
<glyph unicode="R" horiz-adv-x="1228" d="M78 0l209 1188q8 46 28 63q22 19 74 19h483q114 0 188 -26t124 -87q38 -47 53 -125q8 -39 7.5 -80.5t-7.5 -85.5l-27 -151q-12 -73 -31 -109.5t-71 -79.5l-80 -67q-42 -34 -94 -45l96 -414h-307l-76 387h-198l-68 -387h-303zM496 653h290q33 0 56 17l45 35q21 16 26 45 l25 139q4 23 4 40q0 30 -12 46q-23 29 -94 29h-279z" />
<glyph unicode="S" horiz-adv-x="1144" d="M33 127l172 219q108 -84 295 -84h90q95 0 141.5 30t46.5 95q0 74 -110 90l-121 17q-168 23 -261 101t-93 228q0 217 135 338t391 121h63q272 0 412 -129l-162 -215q-55 39 -113.5 54.5t-166.5 15.5h-56q-88 0 -135 -35.5t-47 -104.5q0 -32 20.5 -50t75.5 -27l191 -27 q146 -21 226.5 -102t80.5 -220q0 -219 -137 -336.5t-379 -117.5h-117q-279 0 -442 139z" />
<glyph unicode="T" horiz-adv-x="1114" d="M188 1004l48 266h1003l-47 -266h-352l-176 -1004h-304l177 1004h-349z" />
<glyph unicode="U" horiz-adv-x="1273" d="M139 299q0 41 11 109l151 862h303l-155 -887q-5 -30 -5 -39q0 -28 13 -47q23 -29 94 -29h178q37 0 72 15l39 18q17 8 23 18t9 31l162 920h303l-182 -1037q-12 -66 -34 -96t-70 -53l-127 -59q-75 -37 -191 -37h-223q-113 0 -185.5 25t-123.5 85q-62 71 -62 201z" />
<glyph unicode="V" horiz-adv-x="1261" d="M203 1270h317l84 -996q1 -7 2.5 -11t4 -5.5t7.5 -1.5h15q14 0 22 18l424 996h348l-544 -1178q-27 -59 -68.5 -81.5t-116.5 -22.5h-227q-75 0 -108 22.5t-39 81.5z" />
<glyph unicode="W" horiz-adv-x="1880" d="M231 1270h297l7 -985q0 -18 5 -23.5t19 -5.5h6q27 0 37 29l311 915q14 41 40 55.5t73 14.5h168q47 0 67.5 -14.5t20.5 -55.5l-6 -915q0 -17 5 -23t19 -6h7q15 0 22.5 5.5t13.5 23.5l349 985h309l-430 -1159q-29 -72 -76.5 -97.5t-146.5 -25.5h-150q-100 0 -137.5 23.5 t-38.5 99.5v292q0 223 25 482q-60 -244 -142 -482l-102 -292q-28 -76 -74 -99.5t-147 -23.5h-150q-99 0 -138 26t-40 99z" />
<glyph unicode="X" horiz-adv-x="1253" d="M-20 0l512 602q20 23 22.5 40t-10.5 46l-283 582h324l188 -391l328 391h338l-508 -600q-20 -25 -23 -37t9 -43l286 -590h-323l-193 395l-332 -395h-335z" />
<glyph unicode="Y" horiz-adv-x="1183" d="M174 1270h320l168 -561l346 561h356l-573 -819q-24 -34 -29 -66l-68 -385h-303l68 385q2 13 2 24q0 22 -6 42z" />
<glyph unicode="Z" horiz-adv-x="1114" d="M63 68l11 51q11 59 27.5 91.5t54.5 80.5l376 473q96 121 209 244h-530l47 262h856q35 0 47 -16q8 -11 8 -31q0 -10 -2 -21l-10 -51q-11 -59 -27.5 -91.5t-54.5 -80.5l-377 -473q-91 -116 -209 -244h531l-47 -262h-856q-56 0 -56 49q0 9 2 19z" />
<glyph unicode="[" horiz-adv-x="704" d="M31 -272q0 19 6 49l299 1687q8 44 31 63t75 19h424l-47 -266h-209l-239 -1352h209l-48 -266h-428q-73 0 -73 66z" />
<glyph unicode="\" horiz-adv-x="784" d="M209 1270h283l210 -1270h-282z" />
<glyph unicode="]" horiz-adv-x="704" d="M-39 -338l47 266h209l240 1352h-209l47 266h428q74 0 74 -65q0 -19 -6 -49l-299 -1688q-8 -44 -31 -63t-76 -19h-424z" />
<glyph unicode="^" horiz-adv-x="1105" d="M84 596l457 629q21 26 40.5 35.5t49.5 9.5h141q36 0 52 -9t28 -36l252 -629h-297l-133 379l-264 -379h-326z" />
<glyph unicode="_" horiz-adv-x="1054" d="M-68 -266l45 254h1024l-45 -254h-1024z" />
<glyph unicode="`" horiz-adv-x="942" d="M272 1358l101 158q26 43 63 43q35 0 68 -31l309 -268q25 -22 25 -41q0 -21 -19 -43l-28 -35q-23 -29 -46 -29q-14 0 -59 25z" />
<glyph unicode="a" horiz-adv-x="1054" d="M74 252q0 30 6 67l6 37q23 135 109 199q57 41 129.5 57.5t185.5 16.5h35q72 0 153 -15l35 -8l12 70q7 44 7 51q0 28 -19 40.5t-63 12.5h-95q-153 0 -276 -69l-90 207q143 108 414 108h88q102 0 163 -19t101 -67q61 -70 61 -180q0 -51 -10 -113l-78 -438q-9 -51 -26.5 -76 t-67.5 -59l-57 -39q-47 -30 -82.5 -38.5t-100.5 -8.5h-196q-185 0 -275 90q-69 69 -69 174zM362 287q0 -56 80 -56h174q13 0 27 7l16 8q12 8 15 20l20 119q3 18 -16 18h-195q-51 0 -78 -15.5t-36 -53.5q-7 -28 -7 -47z" />
<glyph unicode="b" horiz-adv-x="1091" d="M94 176q0 15 4 39l209 1188h285l-74 -422l49 20q61 25 119 25h68q97 0 159.5 -21.5t106.5 -70.5q61 -67 61 -182q0 -47 -10 -105l-55 -315q-28 -163 -101 -242q-52 -55 -121.5 -78.5t-187.5 -23.5h-239q-66 0 -98.5 10.5t-69.5 42.5l-52 45q-53 45 -53 90zM395 285 q-2 -11 11 -21l8 -6q11 -8 28 -8h172q59 0 82 20q27 23 35 68l60 338q4 28 4 37q0 17 -11 32q-16 19 -75 19h-123q-19 0 -31 -4l-63 -19q-16 -5 -19 -16z" />
<glyph unicode="c" horiz-adv-x="1017" d="M98 262q0 41 11 105l55 315q28 164 100 242q52 55 121.5 78.5t187.5 23.5h117q127 0 198.5 -27t166.5 -106l-152 -193q-100 64 -254 64h-84q-58 0 -82 -21q-26 -23 -34 -67l-60 -338q-4 -20 -4 -33q0 -24 10 -37q15 -18 76 -18h111q148 0 270 67l98 -221 q-147 -108 -422 -108h-102q-97 0 -159.5 21.5t-106.5 70.5q-34 37 -48 78.5t-14 103.5z" />
<glyph unicode="d" horiz-adv-x="1093" d="M98 262q0 41 11 105l55 315q28 164 100 242q52 55 121.5 78.5t187.5 23.5h82q80 0 144 -31l30 -14l74 422h285l-209 -1194q-9 -51 -26.5 -75t-65.5 -56l-62 -41q-44 -30 -82 -39.5t-102 -9.5h-215q-97 0 -159.5 21.5t-106.5 70.5q-62 68 -62 182zM385 305q0 -24 10 -37 q15 -18 76 -18h174q25 0 37 8l6 4q19 12 21 29l75 430q2 13 -14 20l-53 17q-18 6 -47 6h-105q-58 0 -82 -21q-26 -23 -34 -67l-60 -338q-4 -20 -4 -33z" />
<glyph unicode="e" horiz-adv-x="1060" d="M98 262q0 41 11 105l55 315q28 164 100 242q52 55 121.5 78.5t187.5 23.5h150q97 0 159.5 -21.5t106.5 -70.5q62 -68 62 -182q0 -41 -11 -105l-26 -155q-9 -52 -37 -74.5t-84 -22.5h-494l-12 -69q-4 -20 -4 -37q0 -24 10 -37q16 -19 76 -19h117q151 0 276 70l90 -207 q-143 -108 -413 -108h-113q-97 0 -159.5 21.5t-106.5 70.5q-62 68 -62 182zM438 616h316l10 60q4 20 4 33q0 23 -10 36q-16 19 -76 19h-117q-58 0 -82 -21q-26 -23 -34 -67z" />
<glyph unicode="f" horiz-adv-x="776" d="M119 768l43 246h149l8 45q17 98 40 155.5t61 98.5q52 55 121.5 78.5t187.5 23.5h238l-43 -250h-201q-52 0 -82 -20q-26 -20 -35 -74l-10 -57h270l-43 -246h-270l-135 -768h-285l135 768h-149z" />
<glyph unicode="g" horiz-adv-x="1099" d="M45 -274l143 180q48 -37 105.5 -51.5t150.5 -14.5h76q61 0 94 23q31 24 41 84l15 84l-39 -17q-60 -26 -131 -26h-74q-97 0 -159.5 21.5t-106.5 70.5q-62 68 -62 182q0 41 11 105l55 315q28 164 100 242q52 55 121.5 78.5t187.5 23.5h248q66 0 98.5 -10.5t69.5 -42.5 l51 -45q54 -46 54 -90q0 -15 -4 -39l-150 -856q-33 -183 -119 -260q-55 -46 -119 -65t-170 -19h-129q-128 0 -210 30t-148 97zM385 305q0 -24 10 -37q15 -18 76 -18h135q15 0 27 4l69 20q10 3 13 15l78 440q2 11 -11 21l-8 6q-11 8 -29 8h-180q-58 0 -82 -21 q-26 -23 -34 -67l-60 -338q-4 -20 -4 -33z" />
<glyph unicode="h" horiz-adv-x="1103" d="M61 0l248 1403h285l-76 -418l27 10q78 31 141 31h64q97 0 159.5 -21.5t106.5 -70.5q61 -67 61 -182q0 -47 -10 -105l-115 -647h-284l118 672q5 30 5 39q0 19 -11 34q-16 19 -75 19h-125q-13 0 -25 -4l-70 -21q-9 -2 -12 -14l-127 -725h-285z" />
<glyph unicode="i" horiz-adv-x="509" d="M68 0l178 1014h284l-178 -1014h-284zM266 1268q0 78 53.5 134t139.5 56q69 0 108 -40t39 -101q0 -78 -53 -134.5t-139 -56.5q-69 0 -108.5 40.5t-39.5 101.5z" />
<glyph unicode="j" horiz-adv-x="571" d="M-176 -164h92q117 0 164 35q22 15 33.5 44t23.5 97l178 1002h285l-184 -1037q-23 -128 -49.5 -192.5t-79.5 -106.5q-57 -44 -137.5 -61.5t-221.5 -17.5h-63zM336 1268q0 78 53 134t139 56q70 0 109 -40t39 -101q0 -78 -53.5 -134.5t-139.5 -56.5q-69 0 -108 40.5 t-39 101.5z" />
<glyph unicode="k" horiz-adv-x="1087" d="M61 0l246 1403h285l-131 -750h63q23 0 34 5t24 22l270 334h324l-367 -449q-13 -19 -15.5 -31.5t5.5 -29.5l200 -504h-303l-137 373q-7 17 -15.5 21.5t-29.5 4.5h-98l-70 -399h-285z" />
<glyph unicode="l" horiz-adv-x="661" d="M115 248q0 51 12 119l182 1036h285l-182 -1036q-6 -30 -6 -52q0 -39 20 -59q27 -31 123 -31h39l-41 -237h-49q-246 0 -324 88q-59 64 -59 172z" />
<glyph unicode="m" horiz-adv-x="1669" d="M61 0l142 805q9 51 26.5 75t65.5 56l61 41q44 30 82.5 39.5t102.5 9.5h188q160 0 232 -61l18 12q44 30 82 39.5t102 9.5h152q97 0 159.5 -21.5t106.5 -70.5q61 -67 61 -182q0 -47 -10 -105l-114 -647h-285l119 672q4 24 4 39q0 21 -10 34q-16 19 -76 19h-148 q-25 0 -37 -8l-12 -8q-13 -9 -16.5 -15.5t-3.5 -21.5q0 -23 -6 -64l-115 -647h-285l119 672q4 24 4 39q0 21 -10 34q-16 19 -76 19h-147q-25 0 -37 -8l-6 -4q-16 -11 -21 -33l-127 -719h-285z" />
<glyph unicode="n" horiz-adv-x="1103" d="M61 0l142 805q9 51 26.5 75t65.5 56l61 41q44 30 82.5 39.5t102.5 9.5h209q97 0 159.5 -21.5t106.5 -70.5q61 -67 61 -182q0 -47 -10 -105l-115 -647h-284l118 672q5 30 5 39q0 19 -11 34q-16 19 -75 19h-168q-25 0 -37 -8l-6 -4q-16 -11 -21 -33l-127 -719h-285z" />
<glyph unicode="o" horiz-adv-x="1085" d="M98 262q0 41 11 105l55 315q28 164 100 242q52 55 121.5 78.5t187.5 23.5h175q97 0 159.5 -21.5t106.5 -70.5q61 -67 61 -182q0 -47 -10 -105l-55 -315q-28 -163 -101 -242q-52 -55 -121.5 -78.5t-187.5 -23.5h-174q-97 0 -159.5 21.5t-106.5 70.5q-62 68 -62 182z M385 305q0 -24 10 -37q15 -18 76 -18h137q59 0 82 20q27 23 35 68l59 338q4 20 4 33q0 23 -10 36q-16 19 -76 19h-137q-58 0 -82 -21q-26 -23 -34 -67l-60 -338q-4 -20 -4 -33z" />
<glyph unicode="p" horiz-adv-x="1095" d="M-6 -389l211 1194q9 51 26.5 75t65.5 56l61 41q44 30 82.5 39.5t102.5 9.5h215q97 0 159.5 -21.5t106.5 -70.5q61 -67 61 -182q0 -47 -10 -105l-55 -315q-28 -164 -100 -242q-52 -55 -122 -78.5t-188 -23.5h-82q-81 0 -143 30l-31 15l-75 -422h-285zM399 293 q-2 -14 15 -21l53 -16q18 -6 47 -6h104q59 0 82 20q27 23 35 68l60 338q4 20 4 33q0 21 -11 36q-16 19 -75 19h-174q-25 0 -37 -8l-6 -4q-19 -12 -21 -29z" />
<glyph unicode="q" horiz-adv-x="1091" d="M98 262q0 41 11 105l55 315q28 164 100 242q52 55 121.5 78.5t187.5 23.5h240q66 0 98.5 -10.5t69.5 -42.5l51 -45q53 -45 53 -90q0 -15 -4 -39l-211 -1188h-284l76 422l-50 -21q-58 -24 -118 -24h-68q-97 0 -159.5 21.5t-106.5 70.5q-62 68 -62 182zM385 301 q0 -20 10 -33q15 -18 76 -18h123q19 0 31 4l63 18q16 5 19 17l77 440q2 12 -10 21l-8 6q-11 8 -29 8h-172q-58 0 -82 -21q-26 -23 -34 -67l-60 -338q-4 -28 -4 -37z" />
<glyph unicode="r" horiz-adv-x="727" d="M61 0l121 682q28 163 101 242q52 55 121.5 78.5t187.5 23.5h211l-47 -262h-172q-58 0 -82 -21q-28 -24 -35 -67l-121 -676h-285z" />
<glyph unicode="s" horiz-adv-x="1015" d="M39 109l149 194q87 -70 222 -70h108q82 0 113 21q22 15 22 47q0 55 -98 74l-72 14q-175 36 -250 117q-27 28 -42 74.5t-15 95.5q0 193 119 278q57 40 130 56t193 16h93q186 0 303 -117l-150 -186q-40 31 -86.5 44t-128.5 13h-49q-86 0 -113 -20q-22 -16 -22 -47t24 -47.5 t74 -26.5l101 -18q89 -17 140.5 -42t84.5 -65q53 -64 53 -168q0 -190 -117 -280q-106 -78 -325 -78h-105q-105 0 -198 32.5t-158 88.5z" />
<glyph unicode="t" horiz-adv-x="829" d="M119 768l43 246h151l45 256h285l-45 -256h270l-43 -246h-270l-76 -430q-4 -20 -4 -33q0 -24 10 -37q15 -18 76 -18h170l-47 -262h-186q-165 0 -239.5 64t-74.5 192q0 36 13 112l73 412h-151z" />
<glyph unicode="u" horiz-adv-x="1097" d="M117 262q0 47 10 105l113 647h284l-116 -676q-5 -25 -5 -33q0 -22 11 -37q15 -18 75 -18h173q19 0 30 8l8 6q12 9 15 31l127 719h284l-143 -811q-12 -78 -70 -115l-82 -53q-42 -27 -81.5 -37t-100.5 -10h-205q-97 0 -159.5 21.5t-106.5 70.5q-61 67 -61 182z" />
<glyph unicode="v" horiz-adv-x="1058" d="M135 1014h293l41 -348q27 -247 37 -439q49 142 162 387l184 400h309l-469 -944q-24 -46 -54.5 -64t-76.5 -18h-186q-46 0 -71 18t-32 64z" />
<glyph unicode="w" horiz-adv-x="1642" d="M154 1014h282l23 -291q18 -250 18 -442v-37q63 260 154 479l96 231q15 34 37.5 47t62.5 13h224q40 0 58 -13t21 -47l15 -231q6 -108 6 -225q0 -119 -6 -254q77 270 164 481l116 289h297l-417 -967q-14 -34 -37.5 -46.5t-63.5 -12.5h-196q-42 0 -60.5 12.5t-19.5 46.5 l-13 332q-6 152 -6 278q0 99 2 138q-67 -204 -151 -416l-131 -332q-13 -34 -36 -46.5t-65 -12.5h-217q-40 0 -58.5 12.5t-21.5 46.5z" />
<glyph unicode="x" horiz-adv-x="1067" d="M-45 0l448 502q22 25 11 49l-238 463h309l131 -271l240 271h324l-428 -467q-19 -21 -7 -45l256 -502h-309l-147 301l-266 -301h-324z" />
<glyph unicode="y" horiz-adv-x="1081" d="M10 -164h66q88 0 139 25q62 33 100 104l25 45l-199 1004h312l32 -215q50 -333 52 -531q69 224 204 480l140 266h319l-602 -1114q-53 -97 -101 -154t-108 -92q-91 -55 -262 -55h-78z" />
<glyph unicode="z" horiz-adv-x="917" d="M25 51l8 49q7 37 19 63.5t44 65.5l443 535h-383l45 250h723q25 0 34 -11q6 -8 6 -24q0 -7 -1 -16l-9 -50q-12 -65 -63 -129l-445 -534h408l-43 -250h-748q-25 0 -33 11q-6 7 -6 23q0 8 1 17z" />
<glyph unicode="{" horiz-adv-x="765" d="M113 604q0 57 73 121l82 70q29 23 35 61l57 332q20 111 47.5 173.5t81.5 106.5q53 43 122.5 60.5t195.5 17.5h158l-47 -266h-107q-75 0 -109 -27q-27 -24 -40 -100l-60 -342q-10 -63 -27.5 -91t-66.5 -67l-62 -49l52 -69q34 -45 34 -101q0 -20 -10 -78l-51 -282 q-8 -47 -8 -72q0 -28 12 -45q23 -29 84 -29h119l-47 -266h-99q-115 0 -189 25.5t-128 85.5q-61 69 -61 192q0 59 16 144l43 233q10 52 10 66q0 24 -16 43l-41 49q-31 37 -42 57.5t-11 46.5z" />
<glyph unicode="|" horiz-adv-x="548" d="M49 -236l299 1692h287l-299 -1692h-287z" />
<glyph unicode="}" horiz-adv-x="765" d="M-61 -338l47 266h106q74 0 109 27q28 26 41 100l59 342q10 63 27.5 91t66.5 67l62 49l-51 70q-35 46 -35 100q0 20 10 78l51 283q8 47 8 71q0 28 -12 45q-23 29 -84 29h-119l47 266h99q115 0 189.5 -25.5t127.5 -84.5q62 -70 62 -193q0 -53 -17 -143l-43 -234 q-10 -52 -10 -65q0 -24 16 -43l41 -49q31 -38 42.5 -58.5t11.5 -46.5q0 -56 -74 -121l-82 -69q-29 -22 -35 -62l-57 -332q-20 -111 -47.5 -173.5t-81.5 -106.5q-53 -43 -122.5 -60.5t-195.5 -17.5h-157z" />
<glyph unicode="~" horiz-adv-x="1126" d="M78 557l139 119q140 119 275 119q56 0 104.5 -23t77 -50t61 -50t58.5 -23q40 0 100 45l127 99l154 -199l-144 -121q-137 -117 -274 -117q-56 0 -104.5 23t-76.5 50t-59.5 50t-56.5 23q-49 0 -105 -45l-123 -99z" />
<glyph unicode="&#xa1;" horiz-adv-x="604" d="M63 -213l148 725q8 49 57 49h172q26 0 35 -11t6 -38l-110 -788h-256q-64 0 -52 63zM236 819q0 77 51.5 132t136.5 55q68 0 105.5 -39.5t37.5 -100.5q0 -77 -51.5 -131.5t-136.5 -54.5q-68 0 -105.5 39t-37.5 100z" />
<glyph unicode="&#xa2;" horiz-adv-x="1228" d="M184 260q0 43 11 107l51 295q28 163 100 241q52 55 121.5 79t187.5 24h62l37 204h176l-37 -206q92 -14 157.5 -47t123.5 -85l-152 -192q-80 49 -176 59l-86 -487q120 12 215 65l98 -221q-131 -95 -358 -106l-37 -207h-176l37 205h-27q-97 0 -159.5 21.5t-106.5 70.5 q-62 68 -62 180zM471 305q0 -24 10 -37q15 -18 76 -18h27l88 493h-25q-59 0 -82 -20q-27 -23 -35 -68l-55 -317q-4 -20 -4 -33z" />
<glyph unicode="&#xa3;" horiz-adv-x="1228" d="M121 0l45 258h137l41 234h-133l43 241h108l-8 58q-16 109 -16 161q0 147 86 230q61 56 148.5 78t226.5 22h41q270 0 424 -158l-148 -196q-65 47 -128 66.5t-163 19.5h-18q-98 0 -135 -23t-37 -94q0 -35 12 -109l8 -55h418l-43 -241h-391l-41 -234h494l-45 -258h-926z" />
<glyph unicode="&#xa4;" horiz-adv-x="1228" d="M102 166l213 213q-27 58 -12 149l41 238q13 83 41 127l-119 211h269l40 -111h273l94 111h291l-215 -215q26 -64 12 -148l-41 -237q-11 -72 -41 -127l121 -211h-268l-43 108h-273l-92 -108h-291zM520 492q6 -13 31 -13h176q22 0 32.5 9t14.5 34l39 215q5 32 0 41 q-7 13 -31 13h-176q-22 0 -32.5 -9t-14.5 -34l-39 -216q-5 -31 0 -40z" />
<glyph unicode="&#xa5;" horiz-adv-x="1228" d="M197 135l30 174h232l10 62h-231l30 174h168l-235 725h291l174 -598l366 598h324l-490 -725h164l-31 -174h-227l-10 -62h227l-31 -174h-227l-24 -135h-304l25 135h-231z" />
<glyph unicode="&#xa6;" horiz-adv-x="548" d="M49 -236l133 758h287l-133 -758h-287zM215 700l133 756h287l-133 -756h-287z" />
<glyph unicode="&#xa7;" horiz-adv-x="1167" d="M35 -315l151 192q103 -65 256 -65h115q32 0 43.5 0.5t27 5.5t27.5 16q15 13 22 29t13 47q14 72 -10 96q-17 17 -86 23l-137 8q-92 6 -145 28t-93 66q-82 93 -55 254l6 35q10 61 31 96.5t67 71.5l68 53q-112 98 -74 297q33 185 123 264q53 48 120 64t185 16h148 q229 0 360 -119l-151 -192q-103 65 -256 65h-115q-32 0 -43.5 -0.5t-27 -5.5t-27.5 -16q-15 -13 -22 -29t-13 -47q-14 -72 10 -96q17 -17 86 -23l137 -8q92 -6 145 -28t93 -66q82 -93 55 -254l-6 -35q-10 -61 -31 -96.5t-67 -71.5l-68 -53q112 -98 74 -297 q-33 -185 -123 -264q-53 -48 -120 -64t-185 -16h-148q-229 0 -360 119zM444 383q-13 -54 11 -78q19 -19 90 -22l86 -4l106 96q25 22 34.5 38t16.5 52q11 57 -10 78q-19 19 -90 22l-86 4l-108 -96q-34 -31 -45 -74z" />
<glyph unicode="&#xa8;" horiz-adv-x="942" d="M211 1296q0 76 50 128.5t134 52.5q67 0 106.5 -40.5t39.5 -99.5q0 -76 -51 -128t-134 -52q-68 0 -106.5 39.5t-38.5 99.5zM627 1296q0 76 50 128.5t134 52.5q67 0 106 -40.5t39 -99.5q0 -76 -50.5 -128t-133.5 -52q-68 0 -106.5 39.5t-38.5 99.5z" />
<glyph unicode="&#xa9;" horiz-adv-x="1550" d="M137 244q0 49 17 139l100 563q19 108 45.5 165t75.5 97q91 74 291 74h532q122 0 197.5 -25t117.5 -83q41 -54 41 -154q0 -54 -14 -133l-100 -563q-19 -108 -45.5 -165.5t-75.5 -97.5q-90 -73 -291 -73h-532q-122 0 -198 25t-118 83q-43 57 -43 148zM393 285q0 -24 10 -37 q16 -19 76 -19h598q94 0 109 88l110 635q4 24 4 33q0 24 -10 37q-15 18 -76 18h-598q-93 0 -108 -88l-111 -635q-4 -24 -4 -32zM606 547l33 182q19 102 66 143q49 43 141 43h69q61 0 116.5 -19t84.5 -50l-86 -117q-51 33 -133 33h-27q-50 0 -59 -47l-29 -158q-4 -28 6 -37.5 t39 -9.5h33q90 0 146 33l49 -133q-66 -54 -207 -54h-60q-111 0 -155 52q-43 49 -27 139z" />
<glyph unicode="&#xaa;" d="M197 750q0 30 6 67q9 55 24 86.5t45 57.5q31 27 72.5 37t110.5 10h102q60 0 107 -21l18 -8l10 57q6 38 -7.5 56t-51.5 18h-107q-109 0 -184 -41l-59 135q51 46 102 62t145 16h125q76 0 119.5 -17t73.5 -51q52 -59 26 -213l-53 -301q-10 -53 -41 -67l-78 -37 q-46 -21 -100 -21h-194q-128 0 -177 62q-34 43 -34 113zM381 774q-5 -25 4 -37q8 -8 33 -8h153q29 0 45 8l15 6q9 4 12 17l10 57q3 10 0.5 15.5t-14.5 9.5l-18 6q-18 6 -48 6h-133q-26 0 -37 -8q-11 -11 -16 -37z" />
<glyph unicode="&#xab;" horiz-adv-x="1425" d="M133 473q0 16 10 70q6 32 17 47.5t39 36.5l471 336l139 -203l-369 -258l250 -238l-176 -186l-352 336q-29 29 -29 59zM764 473q0 16 10 70q6 32 16.5 47.5t38.5 36.5l471 336l140 -203l-369 -258l250 -238l-176 -186l-352 336q-29 29 -29 59z" />
<glyph unicode="&#xac;" d="M123 715l45 256h747l-114 -660h-279l70 404h-469z" />
<glyph unicode="&#xad;" horiz-adv-x="788" d="M106 367l46 262h589l-45 -262h-590z" />
<glyph unicode="&#xae;" horiz-adv-x="1550" d="M137 244q0 49 17 139l100 563q19 108 45.5 165t75.5 97q91 74 291 74h532q122 0 197.5 -25t117.5 -83q41 -54 41 -154q0 -54 -14 -133l-100 -563q-19 -108 -45.5 -165.5t-75.5 -97.5q-90 -73 -291 -73h-532q-122 0 -198 25t-118 83q-43 57 -43 148zM393 285q0 -24 10 -37 q16 -19 76 -19h598q94 0 109 88l110 635q4 24 4 33q0 24 -10 37q-15 18 -76 18h-598q-93 0 -108 -88l-111 -635q-4 -24 -4 -32zM565 360l92 519q6 30 41 30h232q170 0 170 -127q0 -15 -4 -39l-11 -63q-6 -36 -16 -55t-37 -41l-16 -15q-21 -17 -35 -22l47 -187h-164l-30 156 h-78l-29 -156h-162zM780 664h109q13 0 24 8t13 20l8 45q4 25 -25 25h-110z" />
<glyph unicode="&#xaf;" horiz-adv-x="942" d="M233 1214l43 244h668l-43 -244h-668z" />
<glyph unicode="&#xb0;" horiz-adv-x="901" d="M203 799q0 32 12 102l23 131q25 142 98 195q42 30 95 42.5t140 12.5h91q159 0 227 -78q49 -55 49 -129q0 -31 -12 -102l-23 -131q-25 -142 -98 -195q-42 -30 -95.5 -42.5t-140.5 -12.5h-90q-159 0 -227 78q-49 55 -49 129zM442 858q0 -18 11 -29q16 -16 67 -16h51 q54 0 78 18q23 20 31 64l12 72q6 38 6 49q0 18 -10 28q-17 17 -67 17h-52q-52 0 -77 -19q-24 -20 -31 -63l-12 -72q-7 -44 -7 -49z" />
<glyph unicode="&#xb1;" d="M10 0l45 256h748l-45 -256h-748zM125 655l45 256h242l45 254h264l-45 -254h242l-46 -256h-241l-45 -254h-264l45 254h-242z" />
<glyph unicode="&#xb2;" horiz-adv-x="868" d="M193 514q0 16 6 51l24 144q15 87 51.5 129t126.5 69l195 60q24 5 29 26l6 35q5 21 -6 35q-12 12 -41 12h-21q-129 0 -203 -47l-73 170q67 46 126.5 65t151.5 19h47q152 0 209 -70q39 -48 39 -131q0 -32 -10 -88q-19 -102 -55.5 -145.5t-126.5 -69.5l-189 -55 q-18 -6 -25 -13.5t-10 -23.5l-4 -24h348l-34 -203h-494q-67 0 -67 55z" />
<glyph unicode="&#xb3;" horiz-adv-x="868" d="M147 555l101 143q70 -45 162 -45h79q26 0 48 17l18 14q17 13 27 37q4 10 4 29q0 26 -31 26h-135q-21 0 -28 9.5t-3 33.5l6 35q4 26 27 49l131 133q20 20 27 39h-258l34 195h459q39 0 39 -31q0 -7 -8 -57l-15 -82q-6 -30 -14 -45.5t-29 -36.5l-94 -92q64 -13 97 -60 q24 -33 24 -86q0 -17 -4 -49l-6 -35q-10 -55 -24 -79.5t-56 -59.5l-53 -45q-35 -31 -66 -42t-90 -11h-106q-77 0 -127 12t-76 30t-60 54z" />
<glyph unicode="&#xb4;" horiz-adv-x="942" d="M260 1237q0 22 27 41l366 250q47 31 74 31q35 0 57 -43l90 -181l-485 -213q-22 -10 -39 -10q-25 0 -39 25l-39 65q-12 18 -12 35z" />
<glyph unicode="&#xb6;" horiz-adv-x="1290" d="M199 727q0 16 8 66l84 477h1075l-41 -232h-166l-258 -1460h-237l258 1460h-91l-258 -1460h-237l190 1075h-221q-56 0 -81 17.5t-25 56.5z" />
<glyph unicode="&#xb7;" horiz-adv-x="528" d="M168 596q0 78 50 133t132 55q67 0 105.5 -39.5t38.5 -99.5q0 -78 -50.5 -133t-132.5 -55q-67 0 -105 39t-38 100z" />
<glyph unicode="&#xb8;" horiz-adv-x="942" d="M227 -309l172 106l-57 21q-39 13 -51.5 26.5t-9.5 34.5q2 15 22 51l57 107h148l-14 -74q-3 -16 8 -20l102 -47q54 -23 43 -82q-7 -42 -22.5 -63.5t-53.5 -45.5l-252 -154z" />
<glyph unicode="&#xb9;" horiz-adv-x="868" d="M223 459l35 205h148l71 403h-143l37 203h303q34 0 47.5 -10t13.5 -35q0 -13 -6 -51l-90 -510h121l-35 -205h-502z" />
<glyph unicode="&#xba;" d="M207 766q0 30 6 65l41 228q17 110 82 168q63 55 184 55h166q115 0 174 -57q47 -44 47 -133q0 -32 -6 -66l-41 -227q-17 -110 -82 -168q-65 -56 -184 -56h-166q-114 0 -174 58q-47 44 -47 133zM395 805q-5 -29 4 -41q12 -12 41 -12h162q32 0 49 14q19 16 25 47l43 240 q5 29 -4 41q-12 12 -41 12h-162q-32 0 -49 -14q-18 -15 -25 -48z" />
<glyph unicode="&#xbb;" horiz-adv-x="1425" d="M80 281l369 258l-250 237l176 187l352 -336q29 -29 29 -60q0 -10 -11 -69q-6 -32 -16.5 -47.5t-38.5 -36.5l-471 -336zM711 281l368 258l-250 237l177 187l352 -336q28 -28 28 -60q0 -15 -10 -69q-6 -32 -16.5 -47.5t-38.5 -36.5l-471 -336z" />
<glyph unicode="&#xbc;" horiz-adv-x="2007" d="M117 459l35 205h147l72 403h-144l37 203h303q34 0 48 -10t14 -35q0 -13 -6 -51l-91 -510h121l-35 -205h-501zM412 2l845 1270h308l-846 -1270h-307zM1159 236q0 36 25 77l329 498h267l-301 -475h141l31 174h227l-31 -174h92l-34 -205h-95l-22 -131h-227l22 131h-371 q-29 0 -37.5 8.5t-11.5 36.5l-2 19q-2 25 -2 41z" />
<glyph unicode="&#xbd;" horiz-adv-x="2007" d="M172 459l35 205h147l72 403h-143l36 203h304q34 0 47.5 -10t13.5 -35q0 -13 -6 -51l-90 -510h121l-35 -205h-502zM451 0l845 1270h308l-846 -1270h-307zM1235 55q0 17 6 51l25 144q15 88 52 130t126 69l194 59q24 5 29 27l6 34q5 21 -6 35q-12 12 -41 12h-20 q-129 0 -203 -47l-74 170q67 45 127 64.5t152 19.5h47q153 0 209 -69q39 -48 39 -131q0 -26 -11 -88q-19 -102 -55.5 -146t-126.5 -70l-188 -55q-18 -6 -25 -13.5t-10 -23.5l-4 -24h348l-35 -203h-493q-68 0 -68 55z" />
<glyph unicode="&#xbe;" horiz-adv-x="2007" d="M68 555l100 143q70 -45 162 -45h80q25 0 47 17l18 14q17 13 27 37q4 10 4 29q0 26 -31 26h-135q-21 0 -28 9.5t-3 33.5l6 35q4 26 27 49l131 133q20 20 27 39h-258l34 195h459q39 0 39 -31q0 -7 -8 -57l-14 -82q-6 -30 -14 -45.5t-29 -36.5l-95 -92q64 -13 97 -60 q24 -33 24 -86q0 -17 -4 -49l-6 -35q-10 -55 -24 -79.5t-56 -59.5l-53 -45q-35 -31 -66 -42t-90 -11h-106q-77 0 -127 12t-75.5 30t-59.5 54zM444 0l846 1270h307l-845 -1270h-308zM1182 236q0 38 24 77l330 498h266l-301 -475h141l31 174h228l-31 -174h92l-35 -205h-94 l-23 -131h-227l23 131h-371q-29 0 -37.5 8.5t-11.5 36.5l-2 19q-2 25 -2 41z" />
<glyph unicode="&#xbf;" horiz-adv-x="1058" d="M100 72l6 34q26 150 91 218q57 57 161 86l91 26q32 10 44 24.5t21 51.5l12 49h267l-15 -125q-9 -80 -46.5 -125.5t-123.5 -72.5l-110 -35q-46 -13 -67.5 -36.5t-29.5 -66.5l-2 -12q-6 -38 -6 -57q0 -35 21 -44.5t67 -9.5h99q165 0 280 68l88 -225q-139 -109 -373 -109 h-149q-103 0 -170 24t-109 79q-77 98 -47 258zM528 819q0 77 52 132t137 55q68 0 105.5 -39.5t37.5 -100.5q0 -77 -51.5 -131.5t-136.5 -54.5q-68 0 -106 39t-38 100z" />
<glyph unicode="&#xc0;" horiz-adv-x="1351" d="M37 0l590 1202q26 47 60.5 63.5t103.5 16.5h210q71 0 101 -17t37 -63l170 -1202h-308l-32 258h-488l-123 -258h-321zM500 1624l100 158q26 43 64 43q34 0 67 -31l309 -268q25 -22 25 -41q0 -22 -18 -43l-29 -35q-23 -29 -45 -29q-15 0 -60 25zM604 516h334l-57 479 q-3 19 -17 19h-10q-14 0 -23 -19z" />
<glyph unicode="&#xc1;" horiz-adv-x="1351" d="M37 0l590 1202q26 47 60.5 63.5t103.5 16.5h210q71 0 101 -17t37 -63l170 -1202h-308l-32 258h-488l-123 -258h-321zM604 516h334l-57 479q-3 19 -17 19h-10q-14 0 -23 -19zM672 1503q0 23 26 41l367 250q47 31 74 31q35 0 57 -43l90 -180l-485 -213q-25 -11 -39 -11 q-25 0 -39 25l-39 65q-12 18 -12 35z" />
<glyph unicode="&#xc2;" horiz-adv-x="1351" d="M37 0l590 1202q26 47 60.5 63.5t103.5 16.5h210q71 0 101 -17t37 -63l170 -1202h-308l-32 258h-488l-123 -258h-321zM494 1403l331 369q25 28 47.5 37.5t57.5 9.5h78q36 0 53.5 -9t34.5 -38l204 -369h-247l-103 205l-168 -205h-288zM604 516h334l-57 479q-3 19 -17 19 h-10q-14 0 -23 -19z" />
<glyph unicode="&#xc3;" horiz-adv-x="1351" d="M37 0l590 1202q26 47 60.5 63.5t103.5 16.5h210q71 0 101 -17t37 -63l170 -1202h-308l-32 258h-488l-123 -258h-321zM516 1640l70 58q73 60 123.5 82t103.5 22q46 0 119 -44t102 -44q52 0 117 47l61 43l119 -182l-69 -57q-73 -60 -124.5 -82.5t-103.5 -22.5 q-46 0 -119 44t-102 44q-52 0 -117 -47l-61 -43zM604 516h334l-57 479q-3 19 -17 19h-10q-14 0 -23 -19z" />
<glyph unicode="&#xc4;" horiz-adv-x="1351" d="M37 0l590 1202q26 47 60.5 63.5t103.5 16.5h210q71 0 101 -17t37 -63l170 -1202h-308l-32 258h-488l-123 -258h-321zM539 1563q0 76 50 128t134 52q67 0 106 -40t39 -99q0 -76 -51 -128.5t-133 -52.5q-68 0 -106.5 40t-38.5 100zM604 516h334l-57 479q-3 19 -17 19h-10 q-14 0 -23 -19zM954 1563q0 76 50.5 128t134.5 52q67 0 106 -40t39 -99q0 -76 -51 -128.5t-133 -52.5q-68 0 -107 40t-39 100z" />
<glyph unicode="&#xc5;" horiz-adv-x="1351" d="M37 0l590 1202q26 47 60.5 63.5t103.5 16.5h210q71 0 101 -17t37 -63l170 -1202h-308l-32 258h-488l-123 -258h-321zM604 516h334l-57 479q-3 19 -17 19h-10q-14 0 -23 -19zM651 1567q0 29 6 63l15 82q16 99 63 141q59 50 168 50h109q116 0 166 -60q34 -41 34 -117 q0 -28 -6 -65l-14 -82q-16 -98 -64 -141q-58 -49 -167 -49h-109q-117 0 -166 59q-35 42 -35 119zM852 1604q-6 -31 22 -31h89q27 0 30 22l17 93q6 30 -23 30h-88q-28 0 -31 -22z" />
<glyph unicode="&#xc6;" horiz-adv-x="1931" d="M-27 0l809 1178q35 53 78.5 72.5t124.5 19.5h1022l-47 -266h-565l-41 -234h461l-48 -266h-460l-41 -238h577l-47 -266h-797q-40 0 -58 21.5t-11 60.5l39 223h-445l-205 -305h-346zM700 567h314l78 437h-64q-22 0 -32 -6t-21 -23z" />
<glyph unicode="&#xc7;" horiz-adv-x="1148" d="M115 291q0 64 14 143l88 498q19 102 47 165.5t82 106.5q53 43 122.5 60.5t195.5 17.5h155q142 0 235.5 -40t162.5 -109l-168 -215q-54 42 -118 62.5t-163 20.5h-106q-76 0 -109 -26q-29 -26 -41 -94l-84 -475q-8 -47 -8 -64q0 -28 12 -45q23 -29 84 -29h139 q104 0 174.5 20.5t135.5 63.5l104 -241q-61 -50 -176.5 -86.5t-251.5 -36.5h-20l-5 -25q-3 -15 9 -20l102 -47q54 -23 43 -82q-7 -42 -22.5 -63.5t-53.5 -45.5l-252 -154l-92 140l172 106l-57 21q-39 13 -52 26.5t-10 34.5q2 12 23 51l31 58q-100 5 -166 30t-115 80 q-61 69 -61 193z" />
<glyph unicode="&#xc8;" horiz-adv-x="1083" d="M82 82l194 1106q12 82 105 82h778l-47 -266h-565l-41 -234h461l-47 -266h-461l-41 -238h577l-47 -266h-796q-40 0 -58.5 21.5t-11.5 60.5zM387 1624l100 158q26 43 64 43q34 0 67 -31l310 -268q24 -21 24 -41q0 -22 -18 -43l-29 -35q-23 -29 -45 -29q-14 0 -59 25z" />
<glyph unicode="&#xc9;" horiz-adv-x="1083" d="M82 82l194 1106q12 82 105 82h778l-47 -266h-565l-41 -234h461l-47 -266h-461l-41 -238h577l-47 -266h-796q-40 0 -58.5 21.5t-11.5 60.5zM508 1503q0 22 27 41l366 250q47 31 74 31q35 0 57 -43l90 -180l-485 -213q-25 -11 -39 -11q-25 0 -39 25l-39 65q-12 18 -12 35z " />
<glyph unicode="&#xca;" horiz-adv-x="1083" d="M82 82l194 1106q12 82 105 82h778l-47 -266h-565l-41 -234h461l-47 -266h-461l-41 -238h577l-47 -266h-796q-40 0 -58.5 21.5t-11.5 60.5zM360 1403l332 369q25 28 47.5 37.5t57.5 9.5h77q36 0 54.5 -9t34.5 -38l204 -369h-247l-103 205l-168 -205h-289z" />
<glyph unicode="&#xcb;" horiz-adv-x="1083" d="M82 82l194 1106q12 82 105 82h778l-47 -266h-565l-41 -234h461l-47 -266h-461l-41 -238h577l-47 -266h-796q-40 0 -58.5 21.5t-11.5 60.5zM424 1563q0 76 50 128t134 52q67 0 106.5 -40t39.5 -99q0 -76 -51 -128.5t-134 -52.5q-68 0 -106.5 40t-38.5 100zM840 1563 q0 76 50 128t134 52q67 0 106 -40t39 -99q0 -76 -51 -128.5t-133 -52.5q-68 0 -106.5 40t-38.5 100z" />
<glyph unicode="&#xcc;" horiz-adv-x="565" d="M90 0l223 1270h303l-223 -1270h-303zM119 1624l100 158q26 43 64 43q34 0 67 -31l309 -268q25 -22 25 -41q0 -22 -18 -43l-29 -35q-23 -29 -45 -29q-15 0 -60 25z" />
<glyph unicode="&#xcd;" horiz-adv-x="565" d="M90 0l223 1270h303l-223 -1270h-303zM315 1503q0 22 27 41l367 250q47 31 73 31q36 0 58 -43l90 -180l-486 -213q-25 -11 -38 -11q-25 0 -39 25l-39 65q-13 19 -13 35z" />
<glyph unicode="&#xce;" horiz-adv-x="565" d="M61 1403l332 369q25 28 47.5 37.5t57.5 9.5h77q36 0 54.5 -9t34.5 -38l204 -369h-247l-103 205l-168 -205h-289zM90 0l223 1270h303l-223 -1270h-303z" />
<glyph unicode="&#xcf;" horiz-adv-x="565" d="M90 0l223 1270h303l-223 -1270h-303zM147 1563q0 76 50.5 128t134.5 52q67 0 106 -40t39 -99q0 -76 -51 -128.5t-133 -52.5q-68 0 -107 40t-39 100zM563 1563q0 76 50.5 128t134.5 52q67 0 106 -40t39 -99q0 -76 -51 -128.5t-133 -52.5q-68 0 -107 40t-39 100z" />
<glyph unicode="&#xd0;" horiz-adv-x="1294" d="M57 502l47 268h136l73 418q12 82 105 82h534q111 0 184.5 -25.5t125.5 -83.5q59 -67 59 -186q0 -62 -14 -139l-88 -498q-19 -100 -46 -160t-79 -102t-118.5 -59t-187.5 -17h-600q-40 0 -58 21.5t-11 60.5l74 420h-136zM455 268h319q74 0 109 27q29 26 41 94l84 475 q8 49 8 64q0 28 -12 45q-22 28 -84 28h-336l-41 -231h207l-48 -268h-206z" />
<glyph unicode="&#xd1;" horiz-adv-x="1314" d="M78 0l213 1212q6 33 24.5 45.5t55.5 12.5h88q44 0 66 -12.5t42 -49.5l258 -454q88 -157 136 -297l143 813h274l-213 -1211q-4 -28 -26 -43.5t-56 -15.5h-90q-44 0 -66 12t-42 49l-258 455q-76 129 -133 289l-142 -805h-274zM471 1640l70 58q73 60 123.5 82t103.5 22 q46 0 119 -44t102 -44q52 0 117 47l61 43l119 -182l-69 -57q-73 -60 -124 -82.5t-104 -22.5q-46 0 -119 44t-102 44q-52 0 -117 -47l-61 -43z" />
<glyph unicode="&#xd2;" horiz-adv-x="1261" d="M115 291q0 64 14 143l88 498q19 102 47 165.5t82 106.5q53 43 122.5 60.5t195.5 17.5h245q115 0 189.5 -26t128.5 -85q61 -69 61 -192q0 -64 -14 -143l-88 -498q-19 -102 -47 -165.5t-82 -106.5q-53 -43 -122.5 -60.5t-195.5 -17.5h-245q-115 0 -190 25.5t-128 84.5 q-61 69 -61 193zM420 342q0 -28 12 -45q23 -29 84 -29h225q75 0 109 27q29 26 41 94l84 475q8 47 8 64q0 28 -12 45q-22 28 -84 28h-225q-76 0 -109 -26q-29 -26 -41 -94l-84 -475q-8 -47 -8 -64zM465 1624l100 158q26 43 64 43q34 0 67 -31l310 -268q24 -21 24 -41 q0 -22 -18 -43l-29 -35q-23 -29 -45 -29q-14 0 -59 25z" />
<glyph unicode="&#xd3;" horiz-adv-x="1261" d="M115 291q0 64 14 143l88 498q19 102 47 165.5t82 106.5q53 43 122.5 60.5t195.5 17.5h245q115 0 189.5 -26t128.5 -85q61 -69 61 -192q0 -64 -14 -143l-88 -498q-19 -102 -47 -165.5t-82 -106.5q-53 -43 -122.5 -60.5t-195.5 -17.5h-245q-115 0 -190 25.5t-128 84.5 q-61 69 -61 193zM420 342q0 -28 12 -45q23 -29 84 -29h225q75 0 109 27q29 26 41 94l84 475q8 47 8 64q0 28 -12 45q-22 28 -84 28h-225q-76 0 -109 -26q-29 -26 -41 -94l-84 -475q-8 -47 -8 -64zM602 1503q0 22 27 41l366 250q47 31 74 31q35 0 57 -43l91 -180l-486 -213 q-25 -11 -39 -11q-25 0 -39 25l-39 65q-12 18 -12 35z" />
<glyph unicode="&#xd4;" horiz-adv-x="1261" d="M115 291q0 64 14 143l88 498q19 102 47 165.5t82 106.5q53 43 122.5 60.5t195.5 17.5h245q115 0 189.5 -26t128.5 -85q61 -69 61 -192q0 -64 -14 -143l-88 -498q-19 -102 -47 -165.5t-82 -106.5q-53 -43 -122.5 -60.5t-195.5 -17.5h-245q-115 0 -190 25.5t-128 84.5 q-61 69 -61 193zM420 342q0 -28 12 -45q23 -29 84 -29h225q75 0 109 27q29 26 41 94l84 475q8 47 8 64q0 28 -12 45q-22 28 -84 28h-225q-76 0 -109 -26q-29 -26 -41 -94l-84 -475q-8 -47 -8 -64zM426 1403l332 369q25 28 47 37.5t57 9.5h78q36 0 53.5 -9t34.5 -38l205 -369 h-248l-102 205l-168 -205h-289z" />
<glyph unicode="&#xd5;" horiz-adv-x="1261" d="M115 291q0 64 14 143l88 498q19 102 47 165.5t82 106.5q53 43 122.5 60.5t195.5 17.5h245q115 0 189.5 -26t128.5 -85q61 -69 61 -192q0 -64 -14 -143l-88 -498q-19 -102 -47 -165.5t-82 -106.5q-53 -43 -122.5 -60.5t-195.5 -17.5h-245q-115 0 -190 25.5t-128 84.5 q-61 69 -61 193zM420 342q0 -28 12 -45q23 -29 84 -29h225q75 0 109 27q29 26 41 94l84 475q8 47 8 64q0 28 -12 45q-22 28 -84 28h-225q-76 0 -109 -26q-29 -26 -41 -94l-84 -475q-8 -47 -8 -64zM457 1640l69 58q73 60 124 82t104 22q46 0 119 -44t102 -44q52 0 117 47 l61 43l119 -182l-70 -57q-73 -60 -124 -82.5t-103 -22.5q-46 0 -119 44t-102 44q-52 0 -117 -47l-62 -43z" />
<glyph unicode="&#xd6;" horiz-adv-x="1261" d="M115 291q0 64 14 143l88 498q19 102 47 165.5t82 106.5q53 43 122.5 60.5t195.5 17.5h245q115 0 189.5 -26t128.5 -85q61 -69 61 -192q0 -64 -14 -143l-88 -498q-19 -102 -47 -165.5t-82 -106.5q-53 -43 -122.5 -60.5t-195.5 -17.5h-245q-115 0 -190 25.5t-128 84.5 q-61 69 -61 193zM420 342q0 -28 12 -45q23 -29 84 -29h225q75 0 109 27q29 26 41 94l84 475q8 47 8 64q0 28 -12 45q-22 28 -84 28h-225q-76 0 -109 -26q-29 -26 -41 -94l-84 -475q-8 -47 -8 -64zM496 1563q0 76 50 128t134 52q67 0 106 -40t39 -99q0 -76 -51 -128.5 t-133 -52.5q-68 0 -106.5 40t-38.5 100zM911 1563q0 76 50.5 128t134.5 52q67 0 106 -40t39 -99q0 -76 -51 -128.5t-133 -52.5q-68 0 -107 40t-39 100z" />
<glyph unicode="&#xd7;" d="M104 471l213 180l-157 189l202 161l152 -182l215 182l162 -190l-217 -184l153 -185l-202 -161l-148 178l-211 -178z" />
<glyph unicode="&#xd8;" horiz-adv-x="1261" d="M115 291q0 64 14 143l88 498q19 102 47 165.5t82 106.5q53 43 122.5 60.5t195.5 17.5h208l86 182h265l-103 -217q56 -22 107 -76q61 -69 61 -192q0 -64 -14 -143l-88 -498q-19 -102 -47 -165.5t-82 -106.5q-53 -43 -122.5 -60.5t-195.5 -17.5h-209l-84 -183h-264l101 215 q-62 27 -107 78q-61 69 -61 193zM420 340q0 -15 2 -23l319 684h-79q-76 0 -109 -26q-29 -26 -41 -94l-84 -475q-8 -49 -8 -66zM662 268h79q75 0 109 27q29 26 41 94l84 475q8 47 8 64q0 14 -2 20z" />
<glyph unicode="&#xd9;" horiz-adv-x="1282" d="M143 299q0 41 11 109l151 862h303l-155 -887q-4 -24 -4 -39q0 -29 12 -47q23 -29 94 -29h178q37 0 72 15l39 18q18 8 24 18t9 31l161 920h303l-182 -1037q-12 -66 -34 -96t-70 -53l-127 -59q-75 -37 -191 -37h-223q-113 0 -185.5 25t-123.5 85q-62 71 -62 201zM473 1624 l100 158q26 43 64 43q35 0 68 -31l309 -268q24 -21 24 -41q0 -22 -18 -43l-29 -35q-23 -29 -45 -29q-14 0 -59 25z" />
<glyph unicode="&#xda;" horiz-adv-x="1282" d="M143 299q0 41 11 109l151 862h303l-155 -887q-4 -24 -4 -39q0 -29 12 -47q23 -29 94 -29h178q37 0 72 15l39 18q18 8 24 18t9 31l161 920h303l-182 -1037q-12 -66 -34 -96t-70 -53l-127 -59q-75 -37 -191 -37h-223q-113 0 -185.5 25t-123.5 85q-62 71 -62 201zM649 1503 q0 22 27 41l366 250q47 31 74 31q36 0 58 -43l90 -180l-486 -213q-25 -11 -39 -11q-25 0 -39 25l-38 65q-13 19 -13 35z" />
<glyph unicode="&#xdb;" horiz-adv-x="1282" d="M143 299q0 41 11 109l151 862h303l-155 -887q-4 -24 -4 -39q0 -29 12 -47q23 -29 94 -29h178q37 0 72 15l39 18q18 8 24 18t9 31l161 920h303l-182 -1037q-12 -66 -34 -96t-70 -53l-127 -59q-75 -37 -191 -37h-223q-113 0 -185.5 25t-123.5 85q-62 71 -62 201zM436 1403 l332 369q25 28 47 37.5t57 9.5h78q36 0 53.5 -9t34.5 -38l205 -369h-248l-102 205l-168 -205h-289z" />
<glyph unicode="&#xdc;" horiz-adv-x="1282" d="M143 299q0 41 11 109l151 862h303l-155 -887q-4 -24 -4 -39q0 -29 12 -47q23 -29 94 -29h178q37 0 72 15l39 18q18 8 24 18t9 31l161 920h303l-182 -1037q-12 -66 -34 -96t-70 -53l-127 -59q-75 -37 -191 -37h-223q-113 0 -185.5 25t-123.5 85q-62 71 -62 201zM508 1563 q0 76 50 128t134 52q67 0 106.5 -40t39.5 -99q0 -76 -51 -128.5t-134 -52.5q-68 0 -106.5 40t-38.5 100zM924 1563q0 76 50 128t134 52q67 0 106 -40t39 -99q0 -76 -51 -128.5t-133 -52.5q-68 0 -106.5 40t-38.5 100z" />
<glyph unicode="&#xdd;" horiz-adv-x="1183" d="M174 1270h320l168 -561l346 561h356l-573 -819q-24 -34 -29 -66l-68 -385h-303l68 385q5 35 -4 66zM553 1503q0 22 27 41l366 250q47 31 74 31q35 0 57 -43l90 -180l-485 -213q-25 -11 -39 -11q-25 0 -39 25l-39 65q-12 18 -12 35z" />
<glyph unicode="&#xde;" horiz-adv-x="1247" d="M78 0l223 1270h303l-29 -172h349q211 0 293 -107q65 -90 36 -264l-32 -180q-14 -79 -33.5 -115.5t-77.5 -85.5l-94 -80q-51 -43 -93.5 -58t-119.5 -15h-387l-35 -193h-303zM463 459h354q19 0 31 10l55 47q13 13 15 27l30 174q9 64 -8 86q-22 28 -94 28h-318z" />
<glyph unicode="&#xdf;" horiz-adv-x="1249" d="M-6 -381l256 1444q30 174 100 250q52 55 121.5 78.5t187.5 23.5h271q97 0 159.5 -21.5t106.5 -70.5q61 -67 61 -182q0 -47 -10 -105l-20 -121q-8 -48 -21.5 -71.5t-42.5 -52.5l-51 -48l62 -73q40 -46 40 -101q0 -13 -4 -41l-32 -184q-28 -163 -101 -242 q-52 -55 -121.5 -78.5t-187.5 -23.5h-336l47 262h297q58 0 82 21q28 24 35 67l35 185q2 13 -6 24l-23 29q-8 10 -31 10h-256l45 262h207q18 0 31 10l33 29q15 15 18 37l21 129q4 20 4 33q0 24 -10 37q-15 18 -76 18h-234q-59 0 -82 -20q-25 -21 -34 -68l-256 -1446h-285z " />
<glyph unicode="&#xe0;" horiz-adv-x="1054" d="M74 252q0 30 6 67l6 37q23 135 109 199q57 41 129.5 57.5t185.5 16.5h35q72 0 153 -15l35 -8l12 70q7 44 7 51q0 28 -19 40.5t-63 12.5h-95q-153 0 -276 -69l-90 207q143 108 414 108h88q102 0 163 -19t101 -67q61 -70 61 -180q0 -51 -10 -113l-78 -438q-9 -51 -26.5 -76 t-67.5 -59l-57 -39q-47 -30 -82.5 -38.5t-100.5 -8.5h-196q-185 0 -275 90q-69 69 -69 174zM322 1358l100 158q26 43 63 43q35 0 68 -31l309 -268q25 -22 25 -41q0 -21 -19 -43l-28 -35q-23 -29 -45 -29q-15 0 -60 25zM362 287q0 -56 80 -56h174q13 0 27 7l16 8q12 8 15 20 l20 119q3 18 -16 18h-195q-51 0 -78 -15.5t-36 -53.5q-7 -28 -7 -47z" />
<glyph unicode="&#xe1;" horiz-adv-x="1054" d="M74 252q0 30 6 67l6 37q23 135 109 199q57 41 129.5 57.5t185.5 16.5h35q72 0 153 -15l35 -8l12 70q7 44 7 51q0 28 -19 40.5t-63 12.5h-95q-153 0 -276 -69l-90 207q143 108 414 108h88q102 0 163 -19t101 -67q61 -70 61 -180q0 -51 -10 -113l-78 -438q-9 -51 -26.5 -76 t-67.5 -59l-57 -39q-47 -30 -82.5 -38.5t-100.5 -8.5h-196q-185 0 -275 90q-69 69 -69 174zM362 287q0 -56 80 -56h174q13 0 27 7l16 8q12 8 15 20l20 119q3 18 -16 18h-195q-51 0 -78 -15.5t-36 -53.5q-7 -28 -7 -47zM414 1237q0 23 26 41l367 250q47 31 74 31q35 0 57 -43 l90 -181l-485 -213q-23 -10 -39 -10q-25 0 -39 25l-39 65q-12 18 -12 35z" />
<glyph unicode="&#xe2;" horiz-adv-x="1054" d="M74 252q0 30 6 67l6 37q23 135 109 199q57 41 129.5 57.5t185.5 16.5h35q72 0 153 -15l35 -8l12 70q7 44 7 51q0 28 -19 40.5t-63 12.5h-95q-153 0 -276 -69l-90 207q143 108 414 108h88q102 0 163 -19t101 -67q61 -70 61 -180q0 -51 -10 -113l-78 -438q-9 -51 -26.5 -76 t-67.5 -59l-57 -39q-47 -30 -82.5 -38.5t-100.5 -8.5h-196q-185 0 -275 90q-69 69 -69 174zM289 1137l332 368q25 28 47 37.5t57 9.5h78q36 0 53.5 -9t34.5 -38l205 -368h-248l-103 204l-167 -204h-289zM362 287q0 -56 80 -56h174q13 0 27 7l16 8q12 8 15 20l20 119 q3 18 -16 18h-195q-51 0 -78 -15.5t-36 -53.5q-7 -28 -7 -47z" />
<glyph unicode="&#xe3;" horiz-adv-x="1054" d="M74 252q0 30 6 67l6 37q23 135 109 199q57 41 129.5 57.5t185.5 16.5h35q72 0 153 -15l35 -8l12 70q7 44 7 51q0 28 -19 40.5t-63 12.5h-95q-153 0 -276 -69l-90 207q143 108 414 108h88q102 0 163 -19t101 -67q61 -70 61 -180q0 -51 -10 -113l-78 -438q-9 -51 -26.5 -76 t-67.5 -59l-57 -39q-47 -30 -82.5 -38.5t-100.5 -8.5h-196q-185 0 -275 90q-69 69 -69 174zM293 1333l69 58q73 60 124 82t104 22q46 0 119 -44t102 -44q52 0 117 47l61 43l119 -182l-70 -58q-73 -60 -123.5 -82t-103.5 -22q-46 0 -119 44t-102 44q-52 0 -117 -47l-61 -43z M362 287q0 -56 80 -56h174q13 0 27 7l16 8q12 8 15 20l20 119q3 18 -16 18h-195q-51 0 -78 -15.5t-36 -53.5q-7 -28 -7 -47z" />
<glyph unicode="&#xe4;" horiz-adv-x="1054" d="M74 252q0 30 6 67l6 37q23 135 109 199q57 41 129.5 57.5t185.5 16.5h35q72 0 153 -15l35 -8l12 70q7 44 7 51q0 28 -19 40.5t-63 12.5h-95q-153 0 -276 -69l-90 207q143 108 414 108h88q102 0 163 -19t101 -67q61 -70 61 -180q0 -51 -10 -113l-78 -438q-9 -51 -26.5 -76 t-67.5 -59l-57 -39q-47 -30 -82.5 -38.5t-100.5 -8.5h-196q-185 0 -275 90q-69 69 -69 174zM360 1296q0 76 50.5 128.5t134.5 52.5q67 0 106 -40.5t39 -99.5q0 -76 -50.5 -128t-133.5 -52q-68 0 -107 40t-39 99zM362 287q0 -56 80 -56h174q13 0 27 7l16 8q12 8 15 20l20 119 q3 18 -16 18h-195q-51 0 -78 -15.5t-36 -53.5q-7 -28 -7 -47zM776 1296q0 76 50.5 128.5t134.5 52.5q67 0 106 -40.5t39 -99.5q0 -76 -50.5 -128t-133.5 -52q-68 0 -107 40t-39 99z" />
<glyph unicode="&#xe5;" horiz-adv-x="1054" d="M74 252q0 30 6 67l6 37q23 135 109 199q57 41 129.5 57.5t185.5 16.5h35q72 0 153 -15l35 -8l12 70q7 44 7 51q0 28 -19 40.5t-63 12.5h-95q-153 0 -276 -69l-90 207q143 108 414 108h88q102 0 163 -19t101 -67q61 -70 61 -180q0 -51 -10 -113l-78 -438q-9 -51 -26.5 -76 t-67.5 -59l-57 -39q-47 -30 -82.5 -38.5t-100.5 -8.5h-196q-185 0 -275 90q-69 69 -69 174zM362 287q0 -56 80 -56h174q13 0 27 7l16 8q12 8 15 20l20 119q3 18 -16 18h-195q-51 0 -78 -15.5t-36 -53.5q-7 -28 -7 -47zM442 1300q0 24 7 64l14 82q16 99 63 141q58 49 168 49 h109q117 0 166 -59q35 -42 35 -117q0 -21 -7 -65l-14 -82q-16 -100 -63 -142q-58 -49 -168 -49h-109q-116 0 -166 60q-35 42 -35 118zM643 1337q-6 -30 23 -30h88q27 0 30 22l17 92q6 31 -23 31h-88q-28 0 -31 -22z" />
<glyph unicode="&#xe6;" horiz-adv-x="1644" d="M74 252q0 30 6 67l6 37q23 135 109 199q57 41 129.5 57.5t185.5 16.5h35q72 0 153 -15l35 -8l12 70q7 44 7 51q0 28 -19 40.5t-63 12.5h-95q-153 0 -276 -69l-90 207q143 108 414 108h73q91 0 148 -14.5t96 -50.5q88 65 268 65h99q97 0 159.5 -21.5t106.5 -70.5 q61 -67 61 -182q0 -47 -10 -105l-27 -155q-9 -52 -36.5 -74.5t-83.5 -22.5h-494l-12 -69q-4 -20 -4 -37q0 -24 10 -37q16 -19 76 -19h116q152 0 277 70l90 -207q-143 -108 -414 -108h-53q-97 0 -159.5 21.5t-106.5 70.5l-68 -45q-47 -31 -82 -39t-100 -8h-135 q-185 0 -275 90q-69 69 -69 174zM362 287q0 -56 80 -56h174q13 0 27 7l16 8q12 8 15 20l20 119q3 18 -16 18h-195q-51 0 -78 -15.5t-36 -53.5q-7 -28 -7 -47zM1022 616h315l11 60q4 20 4 33q0 21 -11 36q-16 19 -75 19h-117q-58 0 -82 -21q-28 -24 -35 -67z" />
<glyph unicode="&#xe7;" horiz-adv-x="1017" d="M98 262q0 41 11 105l55 315q28 164 100 242q52 55 121.5 78.5t187.5 23.5h117q127 0 198.5 -27t166.5 -106l-152 -193q-100 64 -254 64h-84q-58 0 -82 -21q-26 -23 -34 -67l-60 -338q-4 -20 -4 -33q0 -24 10 -37q15 -18 76 -18h111q148 0 270 67l98 -221 q-139 -100 -385 -108l-4 -25q-3 -16 8 -20l103 -47q54 -23 43 -82q-7 -42 -22.5 -63.5t-53.5 -45.5l-252 -154l-92 140l172 106l-57 21q-39 13 -52 26.5t-10 34.5q2 12 23 51l30 58q-86 3 -143 24.5t-98 67.5q-34 37 -48 78.5t-14 103.5z" />
<glyph unicode="&#xe8;" horiz-adv-x="1060" d="M98 262q0 41 11 105l55 315q28 164 100 242q52 55 121.5 78.5t187.5 23.5h150q97 0 159.5 -21.5t106.5 -70.5q62 -68 62 -182q0 -41 -11 -105l-26 -155q-9 -52 -37 -74.5t-84 -22.5h-494l-12 -69q-4 -20 -4 -37q0 -24 10 -37q16 -19 76 -19h117q151 0 276 70l90 -207 q-143 -108 -413 -108h-113q-97 0 -159.5 21.5t-106.5 70.5q-62 68 -62 182zM317 1358l101 158q26 43 63 43q35 0 68 -31l309 -268q25 -22 25 -41q0 -21 -19 -43l-28 -35q-23 -29 -45 -29q-15 0 -60 25zM438 616h316l10 60q4 20 4 33q0 23 -10 36q-16 19 -76 19h-117 q-58 0 -82 -21q-26 -23 -34 -67z" />
<glyph unicode="&#xe9;" horiz-adv-x="1060" d="M98 262q0 41 11 105l55 315q28 164 100 242q52 55 121.5 78.5t187.5 23.5h150q97 0 159.5 -21.5t106.5 -70.5q62 -68 62 -182q0 -41 -11 -105l-26 -155q-9 -52 -37 -74.5t-84 -22.5h-494l-12 -69q-4 -20 -4 -37q0 -24 10 -37q16 -19 76 -19h117q151 0 276 70l90 -207 q-143 -108 -413 -108h-113q-97 0 -159.5 21.5t-106.5 70.5q-62 68 -62 182zM438 616h316l10 60q4 20 4 33q0 23 -10 36q-16 19 -76 19h-117q-58 0 -82 -21q-26 -23 -34 -67zM442 1237q0 22 27 41l367 250q47 31 73 31q36 0 58 -43l90 -181l-486 -213q-22 -10 -39 -10 q-24 0 -38 25l-39 65q-13 20 -13 35z" />
<glyph unicode="&#xea;" horiz-adv-x="1060" d="M98 262q0 41 11 105l55 315q28 164 100 242q52 55 121.5 78.5t187.5 23.5h150q97 0 159.5 -21.5t106.5 -70.5q62 -68 62 -182q0 -41 -11 -105l-26 -155q-9 -52 -37 -74.5t-84 -22.5h-494l-12 -69q-4 -20 -4 -37q0 -24 10 -37q16 -19 76 -19h117q151 0 276 70l90 -207 q-143 -108 -413 -108h-113q-97 0 -159.5 21.5t-106.5 70.5q-62 68 -62 182zM264 1137l332 368q25 28 47 37.5t57 9.5h78q36 0 53.5 -9t34.5 -38l205 -368h-248l-102 204l-168 -204h-289zM438 616h316l10 60q4 20 4 33q0 23 -10 36q-16 19 -76 19h-117q-58 0 -82 -21 q-26 -23 -34 -67z" />
<glyph unicode="&#xeb;" horiz-adv-x="1060" d="M98 262q0 41 11 105l55 315q28 164 100 242q52 55 121.5 78.5t187.5 23.5h150q97 0 159.5 -21.5t106.5 -70.5q62 -68 62 -182q0 -41 -11 -105l-26 -155q-9 -52 -37 -74.5t-84 -22.5h-494l-12 -69q-4 -20 -4 -37q0 -24 10 -37q16 -19 76 -19h117q151 0 276 70l90 -207 q-143 -108 -413 -108h-113q-97 0 -159.5 21.5t-106.5 70.5q-62 68 -62 182zM354 1296q0 76 50.5 128.5t134.5 52.5q67 0 106 -40.5t39 -99.5q0 -76 -50.5 -128t-133.5 -52q-68 0 -107 40t-39 99zM438 616h316l10 60q4 20 4 33q0 23 -10 36q-16 19 -76 19h-117q-58 0 -82 -21 q-26 -23 -34 -67zM770 1296q0 76 50 128.5t134 52.5q67 0 106.5 -40.5t39.5 -99.5q0 -76 -51 -128t-134 -52q-68 0 -106.5 39.5t-38.5 99.5z" />
<glyph unicode="&#xec;" horiz-adv-x="505" d="M49 1358l101 158q26 43 63 43q35 0 68 -31l309 -268q24 -21 24 -41q0 -22 -18 -43l-29 -35q-23 -29 -45 -29q-14 0 -59 25zM66 0l178 1014h284l-178 -1014h-284z" />
<glyph unicode="&#xed;" horiz-adv-x="505" d="M66 0l178 1014h284l-178 -1014h-284zM186 1237q0 22 27 41l367 250q47 31 73 31q36 0 58 -43l90 -181l-486 -213q-23 -10 -39 -10q-24 0 -38 25l-39 65q-13 20 -13 35z" />
<glyph unicode="&#xee;" horiz-adv-x="505" d="M-10 1137l332 368q25 28 47 37.5t57 9.5h78q36 0 53.5 -9t34.5 -38l205 -368h-248l-103 204l-167 -204h-289zM66 0l178 1014h284l-178 -1014h-284z" />
<glyph unicode="&#xef;" horiz-adv-x="505" d="M66 0l178 1014h284l-178 -1014h-284zM68 1296q0 76 50 128.5t134 52.5q67 0 106 -40.5t39 -99.5q0 -76 -50.5 -128t-133.5 -52q-68 0 -106.5 39.5t-38.5 99.5zM483 1296q0 76 50.5 128.5t134.5 52.5q67 0 106 -40.5t39 -99.5q0 -76 -50.5 -128t-133.5 -52q-68 0 -107 40 t-39 99z" />
<glyph unicode="&#xf0;" horiz-adv-x="1112" d="M98 262q0 41 11 105l34 192q28 163 101 242q52 55 121.5 78.5t187.5 23.5h98q74 0 148 -31l28 -12l31 184l-88 -73l-96 106l112 94h-65q-173 0 -291 -88l-90 209q147 123 391 123h57q137 0 222 -55l159 135l97 -106l-160 -136q39 -68 39 -155q0 -44 -12 -115l-138 -774 q-9 -51 -26.5 -75t-65.5 -56l-61 -41q-44 -30 -82.5 -39.5t-102.5 -9.5h-231q-97 0 -159.5 21.5t-106.5 70.5q-62 68 -62 182zM385 305q0 -24 10 -37q15 -18 76 -18h191q24 0 36 8l7 4q18 12 20 29l55 307q2 14 -14 20l-53 17q-18 6 -47 6h-121q-59 0 -82 -20 q-27 -23 -35 -68l-39 -215q-4 -20 -4 -33z" />
<glyph unicode="&#xf1;" horiz-adv-x="1103" d="M61 0l142 805q9 51 26.5 75t65.5 56l61 41q44 30 82.5 39.5t102.5 9.5h209q97 0 159.5 -21.5t106.5 -70.5q61 -67 61 -182q0 -47 -10 -105l-115 -647h-284l118 672q5 30 5 39q0 19 -11 34q-16 19 -75 19h-168q-25 0 -37 -8l-6 -4q-16 -11 -21 -33l-127 -719h-285z M303 1333l70 58q73 60 123.5 82t103.5 22q46 0 119 -44t102 -44q52 0 117 47l61 43l119 -182l-69 -58q-73 -60 -124 -82t-104 -22q-46 0 -119 44t-102 44q-52 0 -117 -47l-61 -43z" />
<glyph unicode="&#xf2;" horiz-adv-x="1085" d="M98 262q0 41 11 105l55 315q28 164 100 242q52 55 121.5 78.5t187.5 23.5h175q97 0 159.5 -21.5t106.5 -70.5q61 -67 61 -182q0 -47 -10 -105l-55 -315q-28 -163 -101 -242q-52 -55 -121.5 -78.5t-187.5 -23.5h-174q-97 0 -159.5 21.5t-106.5 70.5q-62 68 -62 182z M313 1358l101 158q26 43 63 43q35 0 68 -31l309 -268q25 -22 25 -41q0 -21 -19 -43l-29 -35q-23 -29 -45 -29q-14 0 -59 25zM385 305q0 -24 10 -37q15 -18 76 -18h137q59 0 82 20q27 23 35 68l59 338q4 20 4 33q0 23 -10 36q-16 19 -76 19h-137q-58 0 -82 -21 q-26 -23 -34 -67l-60 -338q-4 -20 -4 -33z" />
<glyph unicode="&#xf3;" horiz-adv-x="1085" d="M98 262q0 41 11 105l55 315q28 164 100 242q52 55 121.5 78.5t187.5 23.5h175q97 0 159.5 -21.5t106.5 -70.5q61 -67 61 -182q0 -47 -10 -105l-55 -315q-28 -163 -101 -242q-52 -55 -121.5 -78.5t-187.5 -23.5h-174q-97 0 -159.5 21.5t-106.5 70.5q-62 68 -62 182z M385 305q0 -24 10 -37q15 -18 76 -18h137q59 0 82 20q27 23 35 68l59 338q4 20 4 33q0 23 -10 36q-16 19 -76 19h-137q-58 0 -82 -21q-26 -23 -34 -67l-60 -338q-4 -20 -4 -33zM451 1237q0 23 26 41l367 250q47 31 74 31q35 0 57 -43l90 -181l-485 -213q-22 -10 -39 -10 q-25 0 -39 25l-39 65q-12 18 -12 35z" />
<glyph unicode="&#xf4;" horiz-adv-x="1085" d="M98 262q0 41 11 105l55 315q28 164 100 242q52 55 121.5 78.5t187.5 23.5h175q97 0 159.5 -21.5t106.5 -70.5q61 -67 61 -182q0 -47 -10 -105l-55 -315q-28 -163 -101 -242q-52 -55 -121.5 -78.5t-187.5 -23.5h-174q-97 0 -159.5 21.5t-106.5 70.5q-62 68 -62 182z M287 1137l331 368q25 28 47.5 37.5t57.5 9.5h78q36 0 53.5 -9t34.5 -38l205 -368h-248l-103 204l-168 -204h-288zM385 305q0 -24 10 -37q15 -18 76 -18h137q59 0 82 20q27 23 35 68l59 338q4 20 4 33q0 23 -10 36q-16 19 -76 19h-137q-58 0 -82 -21q-26 -23 -34 -67 l-60 -338q-4 -20 -4 -33z" />
<glyph unicode="&#xf5;" horiz-adv-x="1085" d="M98 262q0 41 11 105l55 315q28 164 100 242q52 55 121.5 78.5t187.5 23.5h175q97 0 159.5 -21.5t106.5 -70.5q61 -67 61 -182q0 -47 -10 -105l-55 -315q-28 -163 -101 -242q-52 -55 -121.5 -78.5t-187.5 -23.5h-174q-97 0 -159.5 21.5t-106.5 70.5q-62 68 -62 182z M303 1333l70 58q73 60 123.5 82t103.5 22q46 0 119 -44t102 -44q52 0 117 47l61 43l119 -182l-69 -58q-73 -60 -124 -82t-104 -22q-46 0 -119 44t-102 44q-52 0 -117 -47l-61 -43zM385 305q0 -24 10 -37q15 -18 76 -18h137q59 0 82 20q27 23 35 68l59 338q4 20 4 33 q0 23 -10 36q-16 19 -76 19h-137q-58 0 -82 -21q-26 -23 -34 -67l-60 -338q-4 -20 -4 -33z" />
<glyph unicode="&#xf6;" horiz-adv-x="1085" d="M98 262q0 41 11 105l55 315q28 164 100 242q52 55 121.5 78.5t187.5 23.5h175q97 0 159.5 -21.5t106.5 -70.5q61 -67 61 -182q0 -47 -10 -105l-55 -315q-28 -163 -101 -242q-52 -55 -121.5 -78.5t-187.5 -23.5h-174q-97 0 -159.5 21.5t-106.5 70.5q-62 68 -62 182z M358 1296q0 76 50.5 128.5t134.5 52.5q67 0 106 -40.5t39 -99.5q0 -76 -50.5 -128t-133.5 -52q-68 0 -107 40t-39 99zM385 305q0 -24 10 -37q15 -18 76 -18h137q59 0 82 20q27 23 35 68l59 338q4 20 4 33q0 23 -10 36q-16 19 -76 19h-137q-58 0 -82 -21q-26 -23 -34 -67 l-60 -338q-4 -20 -4 -33zM774 1296q0 76 50 128.5t134 52.5q67 0 106.5 -40.5t39.5 -99.5q0 -76 -50.5 -128t-133.5 -52q-68 0 -107 40t-39 99z" />
<glyph unicode="&#xf7;" d="M113 514l45 256h747l-45 -256h-747zM311 246q0 65 41.5 110t110.5 45q55 0 86 -32.5t31 -81.5q0 -64 -41.5 -110t-108.5 -46q-55 0 -87 33t-32 82zM444 997q0 65 42 110.5t110 45.5q55 0 86 -33t31 -82q0 -64 -41.5 -109.5t-108.5 -45.5q-55 0 -87 32.5t-32 81.5z" />
<glyph unicode="&#xf8;" horiz-adv-x="1085" d="M98 262q0 41 11 105l55 315q28 164 100 242q52 55 121.5 78.5t187.5 23.5h191l74 137h225l-102 -184q33 -22 53 -45q61 -67 61 -182q0 -47 -10 -105l-55 -315q-28 -163 -101 -242q-52 -55 -121.5 -78.5t-187.5 -23.5h-188l-74 -138h-225l100 185q-32 21 -53 45 q-62 68 -62 182zM391 352l223 412h-49q-58 0 -82 -21q-26 -23 -34 -67zM559 250h49q59 0 82 20q27 23 35 68l55 315z" />
<glyph unicode="&#xf9;" horiz-adv-x="1097" d="M117 262q0 47 10 105l113 647h284l-116 -676q-5 -25 -5 -33q0 -22 11 -37q15 -18 75 -18h173q19 0 30 8l8 6q12 9 15 31l127 719h284l-143 -811q-12 -78 -70 -115l-82 -53q-42 -27 -81.5 -37t-100.5 -10h-205q-97 0 -159.5 21.5t-106.5 70.5q-61 67 -61 182zM344 1358 l100 158q26 43 64 43q34 0 67 -31l310 -268q24 -21 24 -41q0 -22 -18 -43l-29 -35q-23 -29 -45 -29q-14 0 -59 25z" />
<glyph unicode="&#xfa;" horiz-adv-x="1097" d="M117 262q0 47 10 105l113 647h284l-116 -676q-5 -25 -5 -33q0 -22 11 -37q15 -18 75 -18h173q19 0 30 8l8 6q12 9 15 31l127 719h284l-143 -811q-12 -78 -70 -115l-82 -53q-42 -27 -81.5 -37t-100.5 -10h-205q-97 0 -159.5 21.5t-106.5 70.5q-61 67 -61 182zM442 1237 q0 22 27 41l367 250q47 31 73 31q36 0 58 -43l90 -181l-486 -213q-22 -10 -39 -10q-24 0 -38 25l-39 65q-13 20 -13 35z" />
<glyph unicode="&#xfb;" horiz-adv-x="1097" d="M117 262q0 47 10 105l113 647h284l-116 -676q-5 -25 -5 -33q0 -22 11 -37q15 -18 75 -18h173q19 0 30 8l8 6q12 9 15 31l127 719h284l-143 -811q-12 -78 -70 -115l-82 -53q-42 -27 -81.5 -37t-100.5 -10h-205q-97 0 -159.5 21.5t-106.5 70.5q-61 67 -61 182zM305 1137 l332 368q25 28 47 37.5t57 9.5h78q36 0 53.5 -9t34.5 -38l205 -368h-248l-102 204l-168 -204h-289z" />
<glyph unicode="&#xfc;" horiz-adv-x="1097" d="M117 262q0 47 10 105l113 647h284l-116 -676q-5 -25 -5 -33q0 -22 11 -37q15 -18 75 -18h173q19 0 30 8l8 6q12 9 15 31l127 719h284l-143 -811q-12 -78 -70 -115l-82 -53q-42 -27 -81.5 -37t-100.5 -10h-205q-97 0 -159.5 21.5t-106.5 70.5q-61 67 -61 182zM362 1296 q0 76 50.5 128.5t134.5 52.5q67 0 106 -40.5t39 -99.5q0 -76 -50.5 -128t-133.5 -52q-68 0 -107 40t-39 99zM778 1296q0 76 50.5 128.5t134.5 52.5q67 0 106 -40.5t39 -99.5q0 -76 -50.5 -128t-133.5 -52q-68 0 -107 40t-39 99z" />
<glyph unicode="&#xfd;" horiz-adv-x="1081" d="M10 -164h66q88 0 139 25q62 33 100 104l25 45l-199 1004h312l32 -215q50 -333 52 -531q69 224 204 480l140 266h319l-602 -1114q-53 -97 -101 -154t-108 -92q-91 -55 -262 -55h-78zM453 1237q0 23 26 41l367 250q47 31 74 31q35 0 57 -43l90 -181l-485 -213 q-22 -10 -39 -10q-25 0 -39 25l-39 65q-12 18 -12 35z" />
<glyph unicode="&#xfe;" horiz-adv-x="1093" d="M-4 -389l315 1792h285l-76 -422l49 20q61 25 119 25h64q100 0 163 -21.5t107 -70.5q61 -67 61 -182q0 -47 -10 -105l-55 -315q-28 -164 -100 -242q-52 -55 -122 -78.5t-188 -23.5h-104q-66 0 -113 24l-37 19l-73 -420h-285zM397 279q-2 -14 11 -19l12 -4q18 -6 39 -6h157 q59 0 82 20q28 22 35 62l60 338q4 28 4 43q0 17 -11 32q-16 19 -75 19h-170q-17 0 -33 -8l-19 -11q-11 -7 -14 -22z" />
<glyph unicode="&#xff;" horiz-adv-x="1081" d="M10 -164h66q88 0 139 25q62 33 100 104l25 45l-199 1004h312l32 -215q50 -333 52 -531q69 224 204 480l140 266h319l-602 -1114q-53 -97 -101 -154t-108 -92q-91 -55 -262 -55h-78zM346 1296q0 76 50 128.5t134 52.5q67 0 106.5 -40.5t39.5 -99.5q0 -76 -50.5 -128 t-133.5 -52q-68 0 -107 40t-39 99zM762 1296q0 76 50 128.5t134 52.5q67 0 106.5 -40.5t39.5 -99.5q0 -76 -51 -128t-134 -52q-68 0 -106.5 39.5t-38.5 99.5z" />
<glyph unicode="&#x152;" horiz-adv-x="1869" d="M115 291q0 64 14 143l88 498q19 102 47 165.5t82 106.5q53 43 122.5 60.5t195.5 17.5h196q122 0 192 -21t122 -67q42 41 108.5 58.5t187.5 17.5h476l-48 -266h-466q-74 0 -109 -27q-29 -26 -41 -94l-20 -113h491l-47 -266h-492l-18 -101q-8 -47 -8 -63q0 -28 12 -45 q23 -29 84 -29h498l-47 -266h-506q-174 0 -242 74q-50 -43 -125 -64.5t-209 -21.5h-159q-115 0 -190 25.5t-128 84.5q-61 69 -61 193zM420 342q0 -28 12 -45q23 -29 84 -29h225q75 0 109 27q29 26 41 94l84 475q8 47 8 64q0 28 -12 45q-22 28 -84 28h-225q-76 0 -109 -26 q-29 -26 -41 -94l-84 -475q-8 -47 -8 -64z" />
<glyph unicode="&#x153;" horiz-adv-x="1683" d="M98 262q0 41 11 105l55 315q28 164 100 242q52 55 121.5 78.5t187.5 23.5h132q95 0 157.5 -21.5t106.5 -68.5q51 47 118.5 68.5t178.5 21.5h80q97 0 159.5 -21.5t106.5 -70.5q61 -67 61 -182q0 -47 -10 -105l-27 -155q-9 -52 -36.5 -74.5t-83.5 -22.5h-494l-12 -69 q-4 -20 -4 -37q0 -24 10 -37q16 -19 76 -19h116q152 0 277 70l90 -207q-143 -108 -414 -108h-63q-109 0 -169 20t-100 70q-47 -47 -115.5 -68.5t-178.5 -21.5h-109q-97 0 -159.5 21.5t-106.5 70.5q-62 68 -62 182zM385 305q0 -24 10 -37q15 -18 76 -18h137q59 0 82 20 q27 23 35 68l59 338q4 20 4 33q0 23 -10 36q-16 19 -76 19h-137q-58 0 -82 -21q-26 -23 -34 -67l-60 -338q-4 -20 -4 -33zM1061 616h315l10 60q5 25 5 33q0 21 -11 36q-16 19 -75 19h-117q-58 0 -82 -21q-28 -24 -35 -67z" />
<glyph unicode="&#x178;" horiz-adv-x="1183" d="M174 1270h320l168 -561l346 561h356l-573 -819q-24 -34 -29 -66l-68 -385h-303l68 385q5 35 -4 66zM434 1563q0 76 50 128t134 52q67 0 106.5 -40t39.5 -99q0 -76 -51 -128.5t-133 -52.5q-68 0 -107 40t-39 100zM850 1563q0 76 50 128t134 52q67 0 106.5 -40t39.5 -99 q0 -76 -51 -128.5t-134 -52.5q-68 0 -106.5 40t-38.5 100z" />
<glyph unicode="&#x2c6;" horiz-adv-x="942" d="M150 1137l331 368q25 28 47.5 37.5t57.5 9.5h78q36 0 53.5 -9t34.5 -38l204 -368h-247l-103 204l-168 -204h-288z" />
<glyph unicode="&#x2dc;" horiz-adv-x="942" d="M166 1333l70 58q73 60 123.5 82t103.5 22q46 0 119 -44t102 -44q52 0 117 47l61 43l119 -182l-70 -58q-73 -60 -123.5 -82t-103.5 -22q-46 0 -119 44t-102 44q-52 0 -117 -47l-61 -43z" />
<glyph unicode="&#x2000;" horiz-adv-x="951" />
<glyph unicode="&#x2001;" horiz-adv-x="1903" />
<glyph unicode="&#x2002;" horiz-adv-x="951" />
<glyph unicode="&#x2003;" horiz-adv-x="1903" />
<glyph unicode="&#x2004;" horiz-adv-x="634" />
<glyph unicode="&#x2005;" horiz-adv-x="475" />
<glyph unicode="&#x2006;" horiz-adv-x="317" />
<glyph unicode="&#x2007;" horiz-adv-x="317" />
<glyph unicode="&#x2008;" horiz-adv-x="237" />
<glyph unicode="&#x2009;" horiz-adv-x="380" />
<glyph unicode="&#x200a;" horiz-adv-x="105" />
<glyph unicode="&#x2010;" horiz-adv-x="790" d="M113 367l45 262h590l-46 -262h-589z" />
<glyph unicode="&#x2011;" horiz-adv-x="790" d="M113 367l45 262h590l-46 -262h-589z" />
<glyph unicode="&#x2012;" horiz-adv-x="790" d="M113 367l45 262h590l-46 -262h-589z" />
<glyph unicode="&#x2013;" horiz-adv-x="1024" d="M33 375l45 254h1003l-45 -254h-1003z" />
<glyph unicode="&#x2014;" horiz-adv-x="2048" d="M39 375l45 254h2027l-45 -254h-2027z" />
<glyph unicode="&#x2018;" horiz-adv-x="503" d="M199 825q0 53 27 113.5t87 151.5l113 170q14 22 31 22q12 0 28 -8l56 -27q26 -13 26 -30q0 -9 -6 -21l-51 -106q-31 -61 -31 -103q0 -31 18.5 -77t18.5 -74q0 -62 -46.5 -105t-123.5 -43q-66 0 -106.5 37t-40.5 100z" />
<glyph unicode="&#x2019;" horiz-adv-x="503" d="M211 754q0 8 6 20l51 107q31 61 31 102q0 31 -18.5 77.5t-18.5 74.5q0 62 46.5 104.5t123.5 42.5q66 0 107 -37t41 -100q0 -52 -27 -112t-88 -152l-113 -170q-14 -23 -30 -23q-13 0 -29 8l-55 27q-27 13 -27 31z" />
<glyph unicode="&#x201a;" horiz-adv-x="503" d="M35 -336q0 9 6 21l51 106q31 61 31 103q0 31 -18.5 77t-18.5 74q0 62 46.5 105t123.5 43q66 0 106.5 -37.5t40.5 -100.5q0 -52 -26.5 -112.5t-87.5 -151.5l-113 -170q-14 -22 -31 -22q-12 0 -28 8l-56 26q-26 13 -26 31z" />
<glyph unicode="&#x201c;" horiz-adv-x="927" d="M203 825q0 53 27 113.5t87 151.5l113 170q14 22 31 22q12 0 28 -8l56 -27q26 -13 26 -30q0 -9 -6 -21l-51 -106q-31 -61 -31 -103q0 -31 18.5 -77t18.5 -74q0 -62 -46.5 -105t-123.5 -43q-66 0 -106.5 37t-40.5 100zM639 825q0 52 27 113t88 152l112 170q14 22 31 22 q13 0 29 -8l55 -27q27 -13 27 -30q0 -7 -7 -21l-51 -106q-30 -59 -30 -103q0 -31 18 -77t18 -74q0 -62 -46.5 -105t-123.5 -43q-66 0 -106.5 37t-40.5 100z" />
<glyph unicode="&#x201d;" horiz-adv-x="927" d="M207 754q0 8 6 20l51 107q31 61 31 102q0 31 -18.5 77.5t-18.5 74.5q0 62 46.5 104.5t123.5 42.5q66 0 106.5 -37t40.5 -100q0 -52 -26.5 -112.5t-87.5 -151.5l-113 -170q-14 -23 -31 -23q-12 0 -28 8l-56 27q-26 13 -26 31zM643 754q0 8 6 20l51 107q31 61 31 102 q0 31 -18.5 77.5t-18.5 74.5q0 62 46.5 104.5t123.5 42.5q66 0 107 -37t41 -100q0 -52 -27 -112t-88 -152l-113 -170q-14 -23 -30 -23q-13 0 -29 8l-55 27q-27 13 -27 31z" />
<glyph unicode="&#x201e;" horiz-adv-x="927" d="M16 -338q0 7 7 21l51 106q30 59 30 102q0 31 -18 77.5t-18 74.5q0 62 46.5 104.5t123.5 42.5q66 0 106.5 -37t40.5 -100q0 -52 -27 -112t-88 -152l-112 -170q-14 -22 -31 -22q-13 0 -29 8l-55 26q-27 13 -27 31zM451 -338q0 9 6 21l51 106q31 61 31 102q0 31 -18.5 77.5 t-18.5 74.5q0 62 46.5 104.5t123.5 42.5q66 0 106.5 -37t40.5 -100q0 -52 -26.5 -112.5t-87.5 -151.5l-113 -170q-14 -22 -31 -22q-13 0 -29 8l-55 26q-26 13 -26 31z" />
<glyph unicode="&#x2022;" horiz-adv-x="794" d="M176 565q0 131 87 223.5t229 92.5q116 0 181.5 -66t65.5 -168q0 -131 -86.5 -223t-228.5 -92q-116 0 -182 66t-66 167z" />
<glyph unicode="&#x2026;" horiz-adv-x="1585" d="M88 125q0 78 50 133t132 55q67 0 105.5 -39.5t38.5 -99.5q0 -78 -50.5 -133t-132.5 -55q-67 0 -105 39t-38 100zM616 125q0 78 50.5 133t132.5 55q67 0 105 -39t38 -100q0 -78 -50 -133t-132 -55q-67 0 -105.5 39.5t-38.5 99.5zM1145 125q0 78 50 133t132 55 q67 0 105 -39t38 -100q0 -78 -50 -133t-132 -55q-67 0 -105 39t-38 100z" />
<glyph unicode="&#x202f;" horiz-adv-x="380" />
<glyph unicode="&#x2039;" horiz-adv-x="794" d="M125 473q0 16 10 70q6 32 16.5 47.5t38.5 36.5l472 336l139 -203l-369 -258l250 -238l-176 -186l-352 336q-29 29 -29 59z" />
<glyph unicode="&#x203a;" horiz-adv-x="794" d="M76 281l368 258l-249 237l176 187l352 -336q29 -29 29 -60q0 -10 -11 -69q-6 -32 -16.5 -47.5t-38.5 -36.5l-471 -336z" />
<glyph unicode="&#x205f;" horiz-adv-x="475" />
<glyph unicode="&#x20ac;" horiz-adv-x="1228" d="M119 420l31 174h137l14 82h-137l31 174h137l12 70q15 91 40.5 154.5t74.5 111.5q54 52 132 74t212 22h65q83 0 146 -11.5t109.5 -36.5t76.5 -50t66 -64l-160 -202q-106 83 -293 83h-29q-68 0 -104 -28q-27 -24 -37 -76l-8 -47h262l-31 -174h-262l-14 -82h262l-31 -174 h-262l-6 -37q-9 -64 8 -86q23 -29 94 -29h45q186 0 322 84l100 -231q-79 -64 -180.5 -98.5t-265.5 -34.5h-70q-177 0 -272 82q-90 78 -90 219q0 35 10 117l2 14h-137z" />
<glyph unicode="&#x2122;" horiz-adv-x="1624" d="M172 1055l37 215h625l-39 -215h-193l-90 -510h-236l91 510h-195zM791 545l120 686q4 22 15.5 30.5t34.5 8.5h86q27 0 41.5 -8t21.5 -29l111 -279l213 283q15 19 29.5 26t43.5 7h107q22 0 29 -9t4 -30l-121 -686h-219l55 311l-76 -104q-14 -21 -27.5 -29t-41.5 -8h-60 q-41 0 -55 37l-39 104l-55 -311h-217z" />
<glyph unicode="&#xe000;" horiz-adv-x="1013" d="M0 0v1014h1014v-1014h-1014z" />
</font>
</defs>
</svg>
